<svg viewBox="0 0 680 245" xmlns="http://www.w3.org/2000/svg">
<path d="M206.797 85.3312C207.187 74.9373 211.191 64.1967 218.43 56.8925C219.944 55.3649 221.204 53.3776 222.571 51.7111C224.477 49.388 226.867 48.2468 229.442 46.8695C252.686 31.5488 286.713 43.7169 295.053 70.1765C295.942 72.9966 296.054 75.199 298.108 77.4907C298.224 80.2366 298.3 82.984 298.336 85.7322C298.144 92.6083 298.252 100.17 298.298 107.085C298.302 108.807 298.37 112.739 298.137 114.65C297.532 119.601 292.645 126.615 292.658 131.508C292.659 132.128 285.399 140.462 284.374 141.663C281.166 144.566 277.472 147.24 273.801 149.519C273.002 150.048 269.698 150.511 269.184 150.936C266.419 153.22 262.994 153.669 259.359 153.317C254.499 152.847 246.693 153.932 242.18 153.228C236.226 152.3 227.53 147.698 223.142 143.507C213.337 133.221 207.436 122.785 206.601 108.49C206.38 101.959 206.346 91.7086 206.797 85.3312ZM231.103 107.739L231.264 114.993L231.204 115.696C231.197 116.88 230.963 120.15 231.629 120.901L233.639 120.87L233.822 121.086C234.489 122.891 235.178 124.687 235.888 126.476C235.917 126.619 235.962 126.841 236.023 126.971C239.829 135.215 247.674 136.982 255.603 135.835C266.006 134.33 266.518 127.722 271.461 120.963C271.518 113.502 274.062 108.407 274.124 102.232C274.158 98.8161 274.352 88.1175 273.946 85.1602C273.281 80.2993 271.663 79.9875 271.497 72.7846C269.526 70.0299 266.671 65.0842 264.412 62.9587C260.863 59.6194 255.856 58.2074 251.022 58.394C245.495 58.6073 242.998 60.1062 239.195 64.0358C236.635 66.6805 234.312 71.5564 233.611 75.1932C233.478 75.88 233.603 79.2603 233.629 80.1221C231.705 81.905 231.375 79.7134 231.208 83.8772C231.157 85.4316 231.121 86.9864 231.1 88.5414L231.103 107.739Z" class="color-main"/>
<path d="M309.14 42.752L342.578 42.7388C346.873 42.7378 355.214 42.4712 359.185 43.1635C362.107 43.672 370.594 48.7945 372.756 51.1928C378.452 57.5127 382.156 63.9855 381.788 72.7024C381.708 74.5993 381.476 82.9571 381.608 84.3929C380.017 84.75 379.94 85.8649 379.478 87.3458C378.969 88.7471 378.958 89.4299 378.846 90.9275C376.078 93.85 373.642 97.6134 370.726 100.069C369.055 101.477 361.221 103.586 360.227 105.339C360.718 108.733 367.037 116.268 369.099 119.354C375.357 128.712 380.555 138.677 386.563 148.174C386.892 148.695 386.93 149.841 386.942 150.481C382.968 150.501 365.981 150.385 363.16 151.024C357.508 146.74 348.971 128.528 345.323 121.889C343.152 117.94 338.015 111.131 335.182 107.469C333.799 107.335 332.046 107.353 330.63 107.33C330.234 117.073 330.904 128.033 330.622 137.88C330.525 141.253 330.894 146.83 330.452 149.948C330.159 150.326 329.611 150.828 329.116 150.988C325.616 152.113 320.938 153.572 317.284 153.059C316.318 152.924 315.78 152.29 314.656 152.098C313.473 151.896 311.373 152.022 310.375 151.584C309.273 151.101 308.945 150.648 308.532 149.668L308.482 148.062C308.272 144.829 308.609 141.365 308.153 138.085C307.892 136.209 307.512 135.773 308.467 134.141L308.701 133.986C309.245 131.831 308.931 109.536 308.631 106.753C308.362 104.149 308.387 94.0467 308.523 91.3341C309.257 90.2627 308.771 87.0428 308.612 85.6691C308.249 84.115 308.615 79.3156 308.537 77.4267C308.138 67.7382 308.476 58.1719 308.642 48.4818C309.042 46.8722 309.063 44.4615 309.14 42.752ZM330.693 61.4836C330.595 67.5345 330.232 83.1078 330.91 88.6282C339.304 89.7443 341.093 88.8749 349.197 88.7147C350.074 88.0727 350.939 87.3702 351.93 86.9416C355.122 85.0044 355.596 83.7152 357.673 80.5474C357.914 71.0635 358.956 63.1212 346.764 61.1757C342.422 60.483 338.342 60.234 333.92 60.5505L330.693 61.4836Z" class="color-main"/>
<path d="M392.151 70.6841C392.789 68.4151 396.696 62.3884 398.208 60.3117C415.795 36.1604 446.688 34.1164 470.364 51.4082C470.394 52.7287 470.279 54.2756 470.208 55.6134C468.205 58.1865 462.721 64.8469 459.57 66.1709C457.182 67.1754 453.734 63.192 451.992 62.4262C445.59 59.6101 439.018 57.7724 432.034 59.6784C430.028 60.2253 422.744 63.6172 422.052 64.9134C420.693 66.9617 417.236 71.8593 417.142 73.9558C416.986 77.3647 415.127 79.8015 414.586 82.3616C414.206 83.9084 414 87.0835 414.021 88.7239C413.95 95.015 413.877 102.708 414.136 108.963L414.218 112.578C414.624 115.266 415.165 116.198 416.483 118.562L416.722 121.254C418.322 123.774 418.31 126.461 421.823 129.701C427.186 134.649 433.293 135.631 440.348 135.642C444.405 135.649 446.502 134.336 449.021 131.596C448.765 124.643 448.997 117.292 448.874 110.26C444.455 110.21 440.157 110.349 435.838 109.405L434.438 107.585C432.923 104.635 432.643 103.736 432.478 100.433C431.216 97.1265 429.831 93.7574 432.517 90.9679C433.414 90.6149 434.194 90.4076 435.164 90.3856C446.623 90.1247 458.082 90.7015 469.543 90.2796C470.135 90.2578 472.297 91.2164 472.941 91.4937C473.047 101.424 473.08 111.354 473.033 121.285C473.033 128.189 473.209 135.854 472.9 142.662C472.232 143.231 470.197 145.115 469.676 145.429C465.139 148.148 459.217 150.123 453.972 150.447C453.784 151.118 453.731 151.833 453.089 152.083C450.559 153.07 444.82 153.343 442.266 153.212C439.268 153.423 434.964 153.471 431.908 153.275C412.688 152.045 397.076 138.669 391.062 120.627C389.997 117.433 389.424 114.896 389.535 111.702C389.594 110.486 389.571 108.836 389.518 107.621C389.127 98.832 390.256 89.346 389.709 80.6564L389.844 80.044C390.15 77.9238 391.301 72.5282 392.151 70.6841Z" class="color-main"/>
<path d="M50.5952 78.1064C51.283 71.2086 56.4799 62.6769 60.869 57.417C62.6061 55.3352 66.3495 52.2408 68.3768 50.5716C79.8117 41.1558 98.9817 36.734 112.81 42.7446C115.476 43.903 119.234 44.0503 121.911 45.6195C125.389 47.5101 127.971 49.5497 131.631 51.3152C131.684 52.87 131.767 54.499 131.79 56.0468C128.293 59.1841 124.9 62.0216 122.804 66.3533C117.343 65.5134 115.542 63.25 110.634 61.0595C102.99 57.6477 91.6411 57.7369 84.6847 62.896C78.3884 67.3089 76.8504 73.9191 75.0035 80.9574C74.3342 83.507 75.8922 89.5549 73.6058 91.1782C71.7527 92.4936 72.3275 94.4476 72.424 96.4807C72.5417 96.9374 72.6661 97.2594 72.597 97.7249C72.6499 99.3844 72.5193 105.982 72.908 106.876C74.1827 109.811 75.3915 110.324 74.7361 114.892L74.9732 115.069C75.3892 119.379 79.4866 128.245 82.9981 131.107C88.6454 135.71 98.9385 137.512 105.872 135.08C107.305 134.578 108.291 134.457 109.789 134.329C110 126.472 109.89 117.846 109.815 109.974C104.706 109.838 98.5704 111.028 94.4388 107.582C93.1856 106.356 93.458 102.17 93.2171 100.069C93.0473 98.5875 91.5105 93.1637 92.373 91.5766C92.6313 91.1011 95.2908 90.8096 95.8171 90.7923C107.118 90.7458 118.425 90.716 129.728 90.7349C131.265 90.7375 132.862 91.0932 134.357 91.43C134.349 108.442 134.187 125.71 134.378 142.707C131.91 144.953 127.664 146.364 124.62 147.611C122.882 148.207 123.289 148.336 123.055 149.563C123.002 149.841 117.432 150.337 117.054 150.466C108.595 153.352 101.141 153.641 92.1827 153.22C80.9602 152.716 70.3906 147.796 62.7743 139.533C58.053 134.313 53.9425 129.448 52.0186 122.732C51.5748 121.182 50.592 120.31 50.609 118.571C50.1476 116.67 50.1972 114.436 49.7455 112.63C46.6653 100.312 48.3498 90.4087 50.5952 78.1064Z" class="color-main"/>
<path d="M481.876 43.0435C485.454 42.509 500.26 42.6797 504.364 42.7414C516.988 42.931 530.765 42.3967 543.294 42.9627C543.056 46.0411 543.177 49.3024 543.206 52.3993C543.241 56.2506 541.953 57.8721 540.235 61.0683C529.109 60.7065 517.2 60.4402 506.097 60.9075C505.011 61.708 504.02 62.3185 503.396 63.5268C502.249 66.2777 502.679 79.3809 503.108 82.6214C503.511 83.1969 504.397 84.3054 504.482 84.9324C504.714 85.1206 504.997 85.3461 505.323 85.609C513.364 86.0373 527.193 85.7412 534.845 85.8171C534.869 86.7863 534.866 88.5377 535.051 89.4144C534.881 92.0847 534.954 94.0142 535.075 96.7003L535.128 97.5029L535.084 99.0835L535.16 100.103C535.066 101.046 535.151 102.038 534.328 102.59C530.047 105.469 508.833 102.228 505.482 104.546C504.011 105.621 503.729 105.718 503.291 107.516C502.932 108.926 502.508 124.573 502.94 125.789C503.055 128.099 503.526 129.972 505.103 131.761C505.803 131.974 507.733 132.581 508.421 132.547C517.332 132.118 526.214 132.004 535.139 132.184C539.761 132.276 542.015 131.462 545.704 134.705C545.798 139.551 545.63 145.996 545.972 150.606C544.992 150.899 543.965 151.138 543.118 151.701C541.288 151.791 536.022 150.559 532.586 150.467C519.8 150.122 506.132 150.969 493.467 150.544C491.193 150.329 485.742 150.554 483.238 150.586C482.012 149.769 481.344 148.227 481.297 146.79C480.985 137.631 481.064 128.463 481.076 119.3L481.25 72.7394C481.297 66.9044 480.797 47.5819 481.876 43.0435Z" class="color-main"/>
<path d="M204.238 43.0665C205.106 43.0268 205.973 42.9721 206.839 42.9023C206.871 45.235 206.809 48.4764 206.953 50.7286C205.644 50.8296 205.624 50.6383 204.644 51.2999L204.439 52.1773L204.177 52.3272C204.146 54.3253 204.071 56.4853 204.094 58.4687C202.653 59.1497 201.95 59.5714 200.809 60.7219C191.295 60.7924 175.472 59.7312 166.532 61.3982L166.51 86.1021C176.13 86.1528 185.751 86.1307 195.37 86.0356C195.985 86.7124 195.842 87.928 195.851 88.8993C195.971 92.9906 195.985 97.084 195.895 101.176L195.91 102.309L195.572 103.778C195.175 104.022 186.819 103.692 185.409 103.683C179.343 103.724 172.262 103.211 166.556 104.501C166.452 113.367 166.362 122.986 166.537 131.829C167.322 132.06 170.092 132.924 170.768 132.881C180.003 132.295 189.272 133.072 198.496 132.449C200.71 132.3 204.356 133.685 206.041 132.782C206.158 132.719 206.274 132.651 206.386 132.58C207.456 134.005 206.955 148.626 206.966 151.119C199.345 152.712 189.033 151.529 181.168 151.552C170.728 151.581 160.273 151.053 149.828 151.594C148.855 151.645 145.751 151.323 144.998 150.875L144.82 150.63C144.356 149.982 143.719 148.324 143.297 147.468C143.332 145.631 143.331 144.954 143.824 143.138C145.048 140.482 144.574 130.505 144.571 126.993C144.562 115.129 144.788 103.213 144.243 91.3617C144.076 87.7317 144.632 84.2029 144.443 80.4776C144.596 80.903 143.699 69.113 143.69 68.7185C143.355 67.575 142.684 66.7626 142.59 65.3985C142.206 59.7039 142.844 54.0076 142.805 48.3054C142.79 46.2178 142.911 44.9522 144.761 43.8323C146.528 42.5886 162.431 43.0839 165.384 43.0851L204.238 43.0665Z" class="color-main"/>
<path d="M587.684 40.1805C592.276 40.1326 596.865 40.1194 601.458 40.1407C603.896 40.1625 608.377 40.3535 610.527 40.1688C615.788 40.2326 627.435 45.3538 632.098 48.2072C633.386 48.5261 633.498 48.3121 634.116 49.2327L634.266 51.8192C633.833 52.7041 633.254 54.0264 632.639 54.7483C630.906 57.7327 626.693 62.1061 625.864 64.6371L620.986 64.5066C613.034 59.5018 603.435 56.9238 593.9 58.6161C588.146 59.637 583.627 66.2221 584.495 72.1536C584.671 73.3462 585.93 75.4071 586.522 76.6412C591.052 79.6097 602.74 84.2821 607.641 83.3857L611.984 85.5713L612.069 85.6193C613.658 86.4793 615.796 87.0587 617.567 87.7558C624.872 90.6321 631.497 97.3475 634.766 104.585C637.408 110.338 636.996 112.276 637.081 118.333C637.161 123.896 636.34 124.594 634.819 129.473C634.754 129.755 634.654 130.143 634.554 130.382C631.268 138.238 626.24 144.307 618.468 148.064C618.326 148.131 618.221 149.304 617.647 149.482C613.811 150.672 609.957 152.258 605.997 152.947C604.047 153.309 597.615 153.259 596.889 153.59L596.506 154.663C588.769 156.098 561.33 151.156 555.29 144.168C552.916 141.421 558.674 135.064 559.568 130.744C566.852 126.788 568.364 130.551 575.033 132.656C582.112 134.889 596.198 136.494 603.273 133.509C604.505 132.989 608.556 129.387 609.816 128.374C610.254 126.234 611.101 122.996 611.204 120.962C611.804 109.308 594.618 106.465 586.186 104.126C582.582 103.126 578.105 101.789 574.592 100.272C571.177 98.7971 569.306 96.8305 566.799 94.3981C557.759 85.6343 559.03 78.7945 559.003 67.2232C558.988 60.0923 564.26 53.801 569.067 48.9373C572.253 45.7122 575.695 43.895 579.882 42.4051C583.656 41.0627 583.268 40.0548 587.684 40.1805Z" class="color-main"/>
<path d="M427.305 182.526C439.04 182.19 452.373 182.52 464.279 182.521L547.441 183.037C577.981 183.414 609.282 183.034 639.908 183.037C639.855 184.184 640.102 187.683 639.952 188.261L427.176 188.27L427.305 182.526Z" class="color-main"/>
<path d="M207.635 182.563C211.448 181.913 217.209 182.101 221.222 182.1L242.199 182.107C245.983 182.098 254.744 181.5 257.665 182.137L257.901 182.463C257.858 184.381 257.862 186.301 257.914 188.219L257.881 190.547C256.937 190.545 256.296 190.541 255.347 190.66C243.497 191.086 229.501 190.751 217.555 190.754L146.104 190.757L79.3329 190.765C67.4222 190.767 54.0898 191.075 42.2972 190.621L40 190.344V188.394V185.408V182.893C42.6498 182.816 46.1944 182.641 48.7576 182.944C53.0493 182.752 58.0181 182.966 62.3975 182.976L89.5237 182.989L172.299 182.971C177.332 182.98 204.847 183.508 207.635 182.563Z" class="color-main"/>
<path d="M298.889 168.091C300.958 166.573 303.232 166.923 305.852 166.998C306.167 169.196 306.765 172.515 305.963 174.591C305.293 174.786 304.373 174.9 304.17 175.53C303.574 177.381 303.858 180.787 303.795 182.807C303.158 184.446 303.507 186.215 303.583 188.061C304.236 188.883 305.729 190.822 306.419 191.454C306.436 193.714 306.42 195.975 306.372 198.234C305.099 199.367 304.532 200.069 303.48 201.371C299.579 202.212 301.929 202.864 297.467 204.479H279.209C278.546 203.455 277.752 202.65 276.927 201.756C276.586 197.466 276.302 173.434 277.323 170.479C279.905 167.054 296.765 171.383 298.889 168.091ZM284.766 196.356C288.043 197.008 289.808 197.484 293.16 197.379C295.173 197.064 296.419 196.69 298.36 196.117L298.281 190.735C296.181 190.447 292.298 189.819 290.323 189.869C288.155 190.093 287.1 190.269 284.984 190.791L284.766 196.356ZM284.819 177.323C284.847 178.894 284.945 181.083 284.897 182.61C287.749 182.632 290.729 182.701 293.57 182.663C294.898 182.538 294.813 182.748 295.733 182.015C296.237 180.916 295.952 178.822 295.872 177.528C292.406 176.545 291.382 176.36 287.789 176.547C286.828 176.82 285.796 177.141 284.819 177.323Z" class="color-main"/>
<path d="M376.665 169.597C381.301 169.021 392.486 168.792 397.146 169.705C398.841 170.037 400.553 171.749 404.866 172.42L406.301 174.445C407.199 175.892 408.59 177.655 408.261 179.295C407.499 180.208 407.234 180.043 405.986 180.087C405.904 181.794 405.842 183.533 405.663 185.23C399.514 190.92 397.529 195.953 402.9 196.767C403.106 196.798 403.542 199.752 403.698 200.015C404.236 201.492 405.327 201.987 405.41 203.516C404.58 204.33 404.177 204.33 402.883 204.476H398.526C397.137 202.151 391.504 195.628 389.491 193.447C387.95 193.379 386.04 193.472 384.469 193.506C384.252 196.55 384.525 200.576 383.996 203.606C383.837 204.51 382.925 203.671 381.186 204.439L381.107 204.476H379.695C378.803 203.874 377.132 203.198 376.591 202.288C375.347 200.207 375.853 173.001 376.665 169.597ZM384.381 177.478C384.366 180.131 384.302 182.952 384.44 185.586C388.25 185.913 390.256 186.455 394.128 185.638C395.919 185.378 396.678 183.54 397.664 182.049C397.529 180.651 397.414 179.142 397.246 177.759C394.198 177.232 391.112 176.944 388.017 176.899L384.381 177.478Z" class="color-main"/>
<path d="M324.33 204.475C323.91 204.325 323.06 204.149 322.996 203.691C322.455 199.803 325.649 193.494 327.775 189.941C331.559 183.619 332.279 175.754 336.952 170.234C338.361 168.569 342.588 169.287 344.568 169.478C347.525 173.665 348.196 179.012 350.249 183.345C352.217 187.495 354.644 195.235 357.368 198.42C357.516 200.144 357.73 202.796 357.371 204.475H351.852C350.143 202.459 348.325 199.807 346.751 197.629C343.453 197.157 339.973 197.13 336.81 196.224C331.255 199.915 332.982 200.461 329.569 204.475H324.33ZM337.113 187.027C338.205 187.917 339.452 189.204 340.835 189.182C344.918 187.069 342.194 182.821 339.496 181.939C338.57 183.465 337.822 185.368 337.113 187.027Z" class="color-main"/>
</svg>
