<svg viewBox="0 0 506 680" xmlns="http://www.w3.org/2000/svg">
<path d="M206.503 40C205.326 45.3464 203.311 50.7889 202.171 55.6113C199.477 67.0065 198.016 89.0172 201.106 100.214C203.056 99.6908 204.736 98.9397 206.585 98.1377C211.618 95.9559 218.14 97.7566 223.35 98.668C229.602 99.7941 235.875 100.811 242.162 101.718C247.611 102.516 251.387 103.282 256.923 102.583C265.198 101.462 274.079 100.086 282.231 98.458C292.532 96.4006 293.943 96.3385 303.444 100.368C305.708 86.1425 305.759 71.0159 302.677 56.8916C301.495 51.4718 298.879 45.4763 298.099 40.1074C308.533 44.7458 316.461 51.9033 323 61.1709C331.156 72.7297 340.668 87.4077 343.21 101.52C344.982 111.35 345.043 122.025 347.023 131.897C348.873 140.091 353.698 150.95 353.134 159.911C352.716 166.542 347.847 174.667 346.865 181.93C348.382 186.511 352.957 191.758 354.921 196.291C356.001 198.788 355.783 202.999 355.808 205.766C355.887 213.986 355.76 222.335 352.411 230.023C340.21 238.373 333.5 247.89 327.871 261.514C327.072 263.45 324.648 267.268 324.505 269.177C323.988 276.124 324.307 283.373 324.314 290.375C316.721 299.962 305.391 313.507 296.798 321.655C290.973 317.906 284.928 314.21 279.046 310.525C271.945 317.418 261.41 319.75 251.976 319.661C240.258 319.55 234.504 317.101 225.235 310.516C219.394 314.062 213.511 318.085 207.613 321.713C200.196 315.34 186.573 297.86 179.881 289.521L179.869 284.876C179.791 279.472 180.443 273.553 179.722 268.344C179.513 266.833 177.272 262.847 176.563 261.165C170.905 247.729 164.325 238.431 152.276 230.178C148.395 219.636 146.473 205.583 150.405 194.559C151.569 191.295 157.445 185.545 157.251 181.729C156.872 174.265 151.864 167.073 151.152 159.581C150.692 150.65 155.635 141.039 157.396 132.652C159.592 122.192 159.593 104.663 162.963 94.9863C168.535 78.989 180.593 59.9174 192.889 48.3076C194.761 46.5406 203.999 41.2188 206.503 40ZM271.875 303.555C265.606 299.332 258.224 292.959 250.749 293.325C245.696 294.353 236.471 300.378 232.403 303.608C238.688 309 246.327 310.652 254.43 310.404C260.987 309.696 266.969 308.238 271.875 303.555ZM280.004 203.54C273.581 194.27 257.388 190.287 246.569 191.69C239.644 192.559 231.825 194.748 226.645 199.945C224.767 201.964 223.092 204.305 221.709 206.753C218.88 211.76 215.513 215.952 212.694 221C208.279 228.906 195.869 243.232 192.821 251.287C189.569 259.881 190.025 275.471 189.793 284.444C190.015 290.16 199.922 298.15 203.012 302.73C204.635 305.136 209.843 307.338 212.541 306.226C221.978 302.335 230.79 295.223 239.308 289.571C243.074 286.184 248.699 276.8 247.357 271.6C246.378 267.807 238.719 262.987 235.471 260.486C230.531 256.683 225.309 252.756 221.479 247.739C224.155 243.67 226.847 237.887 231.512 237.29C239.995 236.205 249.588 236.916 258.241 236.878C264.281 236.861 271.184 236.544 276.829 238.737C278.908 241.561 280.944 244.417 282.934 247.303C278.529 253.945 271.195 258.714 264.987 263.594C261.062 266.435 255.659 269.76 257.03 275.456C258.473 281.45 263.143 289.36 268.769 292.248C275.022 295.458 284.603 303.743 290.757 305.913C292.304 306.474 293.977 306.589 295.586 306.247C300.342 305.196 313.985 289.947 314.404 285.485C315.323 275.685 313.969 263.377 312.453 253.589C312.018 251.004 308.058 245.042 306.479 242.647C297.874 229.602 288.88 216.35 280.004 203.54ZM273.016 243.111C269.706 241.209 245.294 241.78 240.105 242.121C237.076 242.218 229.716 241.669 229.987 246.085C231.748 248.394 240.624 248.505 243.248 250.374C244.604 251.34 246.096 253.199 247.019 254.538C252.581 262.614 252.547 261.204 257.57 254.017C260.267 250.843 261.718 250.013 265.74 248.783C268.223 248.024 273.895 247.99 274.641 245.149C274.359 244.239 273.856 243.594 273.016 243.111ZM211.507 106.345C200.117 111.038 188.567 118.806 178.214 125.509C174.596 127.851 168.34 131.46 166.786 135.775C164.127 143.164 161.309 151.75 161.059 159.724C161.873 167.208 169.509 177.234 166.702 185.665C165.285 189.919 161.301 194.96 158.598 198.892C158.56 206.277 158.064 214.895 159.459 222.066C159.646 223.014 167.84 230.299 169.156 231.525C174.724 236.718 179.254 242.178 184.105 247.995C185.989 246.11 188.868 242.153 190.295 239.826C196.419 229.843 207.879 217.64 210.767 206.638C194.876 204.053 194.219 195.206 183.216 184.597C190.791 181.274 197.862 178.174 206.191 177.267C214.349 181.76 221.54 185.797 231.171 183.227C238.992 181.138 239.657 174.567 242.181 168.093C245.23 172.741 243.808 177.334 250.957 178.757C258.499 180.258 260.031 173.223 262.179 167.769C265.096 174.411 265.071 180.105 272.007 182.779C272.287 182.887 272.57 182.992 272.852 183.093C280.987 185.991 290.963 181.758 297.887 177.469C306.484 177.798 313.777 181.193 321.386 184.835C307.513 195.337 313.657 202.328 293.526 206.743C295.457 213.282 300.004 220.025 304.08 225.46C309.489 232.671 314.551 241.068 320.16 248.041C327.725 239.975 331.971 231.829 342.033 225.528C347.055 222.382 345.957 209.557 346.042 204.499C346.578 195.839 338.304 191.61 337.205 183.174C336.208 175.871 343.132 165.186 343.318 158.654C343.443 154.232 338.655 134.63 335.044 131.886C323.473 123.097 307.864 113.074 294.338 107.03C290.127 105.898 284.356 107.393 280.299 107.828C268.757 109.065 256.784 111.856 245.166 110.735C233.832 109.641 222.957 107.483 211.507 106.345ZM295.239 195.771C305.417 195.011 307.226 186.872 292.482 187.493L283.707 191.838C287.799 194.215 290.367 195.746 295.239 195.771ZM220.916 191.775C215.458 189.108 212.993 187.093 206.932 187.526C205.253 187.844 202.576 188.12 201.591 189.678C200.049 192.119 203.687 194.291 205.609 194.925C208.532 195.889 211.695 195.576 214.613 194.855C216.979 194.022 218.827 193.199 220.916 191.775ZM314.465 63.1748C314.461 68.4037 314.425 73.6327 314.359 78.8613C314.277 82.8288 314.038 86.8481 314.133 90.8086C314.298 97.6462 312.41 101.483 317.977 106.623C323.604 111.82 329.07 117.007 335.174 121.651C335.869 119.732 334.625 115.128 334.525 113.056C333.993 102.01 331.187 92.6434 326.129 82.7256C323.81 78.1799 318.719 66.4367 314.465 63.1748ZM189.583 63.2012C182.307 72.4162 175.83 87.1473 172.153 98.4004C170.71 102.816 168.785 116.46 168.845 121.116L169.107 121.375L169.321 121.319C173.161 118.124 191.054 105.029 190.23 100.686C189.254 95.5487 190.623 64.937 189.583 63.2012Z" class="color-main"/>
<path d="M48.0996 499.688C69.0871 499.806 90.1146 499.492 111.098 499.736C123.138 511.795 135.953 523.7 148.194 535.634L185.539 499.697L256.54 499.682C232.644 523.318 207.888 546.357 183.999 569.978C193.802 579.901 204.565 590.011 214.685 599.688C214.806 590.255 214.652 580.784 214.688 571.345C214.696 561.495 214.1 550.938 218.695 541.865C223.696 531.993 233.521 525.097 243.809 521.636C247.881 520.274 252.094 519.382 256.367 518.978C261.354 518.486 300.983 517.693 303.995 519.189C304.9 521.6 304.445 545.629 304.368 549.886C294.215 550.361 283.716 549.641 273.54 549.962C262.885 550.296 256.251 547.695 249.391 557.407L254.238 557.431C263.818 557.45 273.503 557.301 283.083 557.439C284.342 557.459 285.65 557.559 286.476 558.483C286.459 560.182 284.412 562.121 283.222 563.398C276.441 570.677 269.991 578.527 263.076 585.657L249.278 585.667L249.265 603.736C246.639 607.281 238.468 615.786 235.149 619.442C241.914 626.406 249.323 633.052 256.202 640.003H185.203C173.208 627.98 160.355 616.319 148.227 604.334C136.049 615.732 123.264 628.297 111.357 640L40.1211 639.99C63.6567 616.399 88.8983 593.558 112.57 569.996C96.3244 553.616 78.1953 536.718 61.4482 520.627L47.9033 507.641C45.7562 505.583 41.7194 501.89 40 499.71C42.6521 499.623 45.4414 499.671 48.0996 499.688ZM250.203 502.285C229.139 502.288 207.485 502.025 186.471 502.308C174.195 514.264 160.697 527.642 148.169 539.181L110.099 502.308L46.124 502.271C62.1447 518.234 78.9537 533.735 95.0801 549.599C101.676 556.087 109.888 563.395 116.082 570.002C99.7258 586.491 82.1837 602.464 65.6221 618.8C59.279 625.057 52.6102 631.125 46.4092 637.521C67.4852 637.63 89.2345 637.8 110.277 637.55C122.656 625.199 135.983 613.149 148.178 600.76C160.236 612.559 174.759 625.548 186.183 637.498C192.242 637.572 198.302 637.605 204.362 637.592C207.035 637.595 211.873 637.73 214.376 637.438C214.865 636.619 214.742 635.993 214.726 635.004C206.009 634.689 196.053 635.016 187.153 634.91C175.41 622.694 160.548 609.509 148.203 597.434C135.215 609.919 122.003 622.312 109.137 634.904C103.246 635.164 95.7831 634.962 89.7246 634.962L52.6094 634.969C58.4059 628.93 65.2987 622.787 71.3076 616.857C87.2354 601.138 104.051 585.789 119.858 569.999C113.46 563.488 106.475 557.06 99.9219 550.668C84.1722 535.305 67.9812 520.222 52.3379 504.767L108.804 504.782L148.189 542.741C161.159 530.031 174.639 517.576 187.496 504.782C205.911 504.48 225.199 504.773 243.688 504.786C222.041 526.721 198.505 548.228 176.494 569.986C188.509 582.369 202.338 594.708 214.673 607.046L214.692 603.213C203.838 593.138 190.575 580.52 180.261 569.974C203.322 547.227 227.152 525.061 250.203 502.285ZM231.573 623.385C235.316 626.769 239.927 631.302 243.465 634.949C236.353 634.952 228.021 634.741 221.013 635.001L218.819 637.55L249.972 637.553C244.945 632.304 238.67 626.435 233.387 621.353L231.573 623.385Z" class="color-main"/>
<path d="M187.496 504.781C205.911 504.479 225.199 504.772 243.688 504.784C222.041 526.719 198.505 548.227 176.494 569.985C188.509 582.368 202.338 594.706 214.673 607.044C214.664 614.682 214.256 627.727 214.726 635.002C206.009 634.688 196.053 635.014 187.153 634.908C175.41 622.692 160.548 609.507 148.203 597.432C135.215 609.918 122.003 622.311 109.137 634.903C103.246 635.163 95.7831 634.96 89.7246 634.96L52.6094 634.967C58.4059 628.928 65.2987 622.786 71.3076 616.856C87.2354 601.137 104.051 585.787 119.858 569.997C113.46 563.486 106.475 557.059 99.9219 550.666C84.1722 535.304 67.9812 520.221 52.3379 504.765L108.804 504.781L148.189 542.74C161.159 530.029 174.639 517.575 187.496 504.781Z" class="color-accent"/>
<path d="M231.572 623.383C235.315 626.767 239.926 631.3 243.464 634.947C236.352 634.95 228.02 634.739 221.012 634.999C224.478 631.101 227.944 627.123 231.572 623.383Z" class="color-accent"/>
<path d="M344.643 518.559C344.937 518.543 345.232 518.53 345.524 518.52C352.002 518.305 359.833 518.504 366.427 518.504L407.18 518.491L443.018 518.482C449.073 518.482 455.238 518.251 461.284 518.517C462.351 518.565 463.972 518.472 464.764 519.307C465.02 519.577 465.071 519.541 465.027 519.888C464.729 522.094 441.964 546.796 438.724 549.977L396.453 549.997L396.449 569.1V601.555C390.762 608.593 383.011 616.289 377.013 623.259C374.755 625.882 365.488 636.223 363.258 637.822L362.717 637.501C361.451 635.44 361.986 629.272 361.986 626.633L361.98 608.066L361.986 550.006C356.168 550.01 349.955 550.109 344.175 549.897C343.8 545.489 343.387 521.076 344.643 518.559Z" class="color-main"/>
<path d="M308.723 552.395C313.576 552.305 337.647 551.817 340.801 552.726C342.015 556.032 341.394 596.938 341.387 603.767L323.235 623.776C320.845 626.457 310.56 638.435 308.214 639.543C307.77 639.238 307.58 639.225 307.387 638.695C306.723 636.875 306.805 563.825 306.984 555.589C307.002 554.803 307.024 553.673 307.432 552.986C307.707 552.52 308.223 552.527 308.723 552.395Z" class="color-main"/>
<path d="M307.704 518.527C311.977 518.389 338.4 518.087 340.866 519.163C341.734 520.945 341.654 548.379 340.953 549.895C336.821 550.097 310.232 550.235 307.537 549.49C306.656 547.718 306.719 520.566 307.704 518.527Z" class="color-accent"/>
<path d="M413.726 343.004C418.033 343.353 428.279 343.542 430.727 347.296C431.855 353.289 429.184 374.799 428.57 381.776L423.921 432.921C422.845 444.526 421.694 460.712 419.589 472.484C419.419 473.419 417.116 474.489 416.154 474.912C412.01 474.938 401.764 474.438 399.284 471.235C397.792 469.306 399.454 456.535 399.716 453.572L401.898 428.936L409.707 346.29C411.08 344.657 411.863 343.968 413.726 343.004Z" class="color-main"/>
<path d="M361.414 336.542C365.756 336.51 375.942 337.064 378.593 340.774C379.689 344.996 376.926 369.474 376.408 375.292L371.564 428.333L369.347 451.867C368.932 456.121 368.436 461.423 367.5 465.612C367.209 466.913 365.471 467.73 364.34 468.258C360.372 468.422 348.867 467.835 347.189 464.783C345.585 461.861 347.713 445.557 348.052 441.726L351.174 406.917L355.103 365.627C355.902 357.113 356.599 348.09 357.624 339.662C359.142 338.032 359.525 337.686 361.414 336.542Z" class="color-main"/>
<path d="M141.182 336.693C144.393 336.126 145.808 337.849 147.52 340.203C149.665 367.543 152.542 395.616 155.101 422.971L157.239 445.669C157.577 449.135 159.448 462.287 157.608 464.94C155.761 467.601 146.598 468.124 143.078 468.316L142.865 468.322C139.938 468.38 139.338 467.922 137.368 466.025C136.904 463.159 136.503 460.279 136.168 457.39C133.504 434.743 131.617 409.761 129.588 386.996L127.164 359.99C126.861 356.565 124.97 342.593 126.887 340.056C129.028 337.221 137.298 337.032 141.182 336.693Z" class="color-main"/>
<path d="M90.0359 343.098C92.6661 343.245 93.7083 344.648 95.1068 346.634L102.739 427.24L105.082 452.253C105.4 455.71 107.173 468.564 105.409 471.239C103.412 474.266 94.3946 474.602 90.566 474.926C87.5339 474.894 87.4604 474.634 85.0619 472.6C84.0161 468.052 83.6391 460.662 83.179 455.873L80.2805 424.78L76.1145 380.309C75.4988 373.724 72.9236 353.655 74.3665 346.932C74.9723 344.11 86.4817 343.399 90.0359 343.098Z" class="color-main"/>
<path d="M388.007 339.537C392.592 339.886 397.349 340.078 401.758 341.491C406.062 342.868 405.404 347.106 405.097 350.909C403.368 372.287 401.263 393.649 399.276 415.008L396.045 448.917C395.489 454.776 395.384 463.402 393.406 468.96C392.965 470.206 391.387 470.971 390.141 471.359C386.454 471.336 381.134 470.942 377.562 470.026C374.587 469.264 373.926 468.457 372.546 465.961C372.399 463.117 373.166 456.486 373.453 453.427L375.626 430.255C378.316 401.449 381.578 371.656 383.837 342.907C385.099 341.046 385.815 340.226 388.007 339.537Z" class="color-main"/>
<path d="M116.28 339.557C118.843 339.941 119.324 340.87 121.022 342.827C123.507 363.693 125.198 386.609 127.207 407.708L130.553 443.414C131.217 450.573 132.087 458.399 132.443 465.52C131.507 467.672 130.682 468.905 128.395 469.677C124.515 470.994 119.936 471.084 115.876 471.375C113.229 471.359 111.124 469.857 110.739 467.121C110.075 462.397 109.693 457.579 109.237 452.822L106.428 422.939L102.166 377.294C101.318 368.184 100.385 359.01 99.7954 349.884C99.7865 348.506 99.4558 344.554 100.304 343.509C103.222 339.919 112.186 339.896 116.28 339.557Z" class="color-main"/>
<path d="M238.963 393.074C245.726 392.616 253.48 393.016 260.352 392.959C290.187 392.712 319.892 395.387 349.576 398.494C349.353 402.966 349.644 406.745 347.612 410.663C329.906 408.719 312.818 406.095 294.924 406.348C285.608 406.476 276.052 406.246 266.707 406.246C247.941 405.66 229.164 405.554 210.393 405.929C202.511 406.092 195.084 406.175 187.143 406.659C177.06 407.271 167.287 408.722 157.312 409.692C156.955 407.111 155.76 400.281 156.388 398.161C161.468 394.471 227.844 393.625 238.963 393.074Z" class="color-main"/>
<path d="M439.015 358.08C441.913 358.109 444.763 358.423 447.607 359.015C452.476 360.034 452.441 364.003 452.153 368.202C451.585 376.537 450.703 384.907 449.917 393.242L445.482 439.112C444.642 447.683 444.003 456.592 442.869 465.141C442.623 467.008 440.926 467.841 439.357 468.498C434.542 468.552 429.239 469.331 425.954 465.157C425.286 462.553 425.513 459.193 425.667 456.502C426.159 447.895 433.996 362.84 434.891 361.101C435.747 359.438 437.351 358.679 439.015 358.08Z" class="color-main"/>
<path d="M63.9006 358.146C67.2353 358.009 68.2973 358.906 70.1661 361.513C71.0831 368.073 71.6234 375.629 72.2783 382.311L75.8239 419.049L78.1256 445.088C78.5978 450.399 79.0732 455.639 79.3844 460.963C79.8023 468.109 74.5446 468.484 68.9673 468.51L65.0575 468.468C63.5121 467.507 63.1699 467.171 61.8641 465.883L55.8133 401.652L53.8414 380.713C53.4519 376.578 51.6911 364.905 53.7081 361.09C54.9813 358.681 61.0685 358.406 63.9006 358.146Z" class="color-main"/>
<path d="M450.202 415.42C452.87 416.003 463.931 417.966 465.018 419.469C465.235 421.711 463.919 427.422 462.765 429.453L462.018 430.373C460.193 430.866 451.758 428.242 449.119 427.65C449.301 423.86 449.848 419.257 450.202 415.42Z" class="color-main"/>
<path d="M54.5248 415.453C55.0721 416.036 55.7251 425.988 55.8628 427.596C53.656 428.167 44.013 430.989 42.6934 430.281C42.5865 430.117 42.4796 429.954 42.3727 429.791L42.2259 429.547C41.1187 427.731 39.2961 421.033 40.2834 419.037C41.9907 417.974 51.9802 416.01 54.5248 415.453Z" class="color-main"/>
</svg>
