<svg viewBox="0 0 680 394" xmlns="http://www.w3.org/2000/svg">
<path d="M256.01 240.894C256.96 239.698 266.603 240.119 268.566 240.137C276.223 240.205 283.729 239.894 291.387 240.566C297.682 241.12 306.609 242.921 308.197 250.258C310.111 260.838 304.567 265.35 294.989 267.348L297.104 268.127C301.946 268.517 308.198 271.251 310.287 275.926C313.16 282.353 312.005 291.795 304.798 294.945C293.763 299.769 280.66 298.008 268.889 298.373C266.789 298.433 257.207 298.502 256.088 298.143L255.801 297.541L256.174 296.867C257.261 296.165 259.445 295.925 260.799 295.688C261.284 289.478 261.037 280.455 261.025 274.094C261.006 263.964 261.186 253.35 260.937 243.255C259.282 242.666 256.946 242.464 256.01 240.894ZM278.213 268.998C278.09 277.949 278.077 286.903 278.174 295.854C283.67 295.845 286.885 296.149 291.283 292.545C295.522 287.31 295.927 276.179 290.694 271.354C287.886 268.766 281.859 269.015 278.213 268.998ZM278.212 242.778C278.097 250.64 278.067 258.501 278.121 266.363C282.481 266.384 285.56 266.767 289.066 263.887C290.448 262.258 291.391 260.567 291.667 258.435C293.361 245.331 289.843 242.833 278.212 242.778Z" class="color-main"/>
<path d="M318.505 240.169C329.168 239.868 356.538 239.061 365.494 243.549C368.563 245.086 370.935 247.517 371.976 250.828C373.072 254.321 372.827 258.988 371.116 262.255C368.474 267.299 362.73 268.742 357.71 270.249C372.031 271.716 370.443 280.197 373.092 291.715C373.431 293.19 373.699 294.495 375.058 295.35C378.192 295.664 378.51 291.963 380.514 292.747C381.233 294.545 380.04 296.494 378.451 297.345C373.444 300.022 365.791 299.651 360.59 297.753C351.846 292.938 355.198 279.603 350.771 272.878C349.296 270.64 342.625 270.871 339.945 270.838C339.917 277.545 339.612 289.19 340.117 295.688C342.024 295.896 345.015 295.846 345.744 297.796L345.239 298.174C341.505 298.518 320.726 298.727 317.982 297.727L318.046 297.703L317.594 297.213C318.428 296.056 321.388 295.907 322.778 295.701C323.052 289.787 322.896 282.62 322.897 276.635L322.896 243.265C321.446 242.891 318.709 242.388 317.779 241.28C317.902 240.454 317.739 240.761 318.505 240.169ZM339.946 242.739C339.943 251.181 339.834 259.892 339.962 268.312C344.349 268.187 349.101 268.474 352.572 265.424C355.829 260.68 356.686 248.409 351.289 244.617C348.55 242.693 343.33 242.811 339.946 242.739Z" class="color-main"/>
<path d="M100.944 240.159C105.156 240.154 126.167 239.571 127.815 240.964L127.485 241.477C125.719 242.484 124.753 242.611 122.801 243.028C122.438 250.531 122.681 259.669 122.683 267.342L144.272 267.324C144.296 259.219 144.28 251.115 144.223 243.011C142.895 242.756 139.466 242.255 139.186 240.711C139.234 240.66 139.275 240.602 139.329 240.557C140.169 239.866 161.976 239.907 164.329 240.253C165.141 240.372 165.892 240.484 166.391 241.16C165.45 242.439 163.035 242.732 161.488 243.035C161.148 256.522 161.596 270.175 161.408 283.679C161.354 287.582 161.305 291.957 161.631 295.831C163.668 296.015 165.477 295.936 166.654 297.759L166.413 298.143L165.516 298.335C161.918 298.357 141.265 299.076 139.498 297.475L139.736 296.993C140.966 296.102 142.57 295.937 144.082 295.651C144.636 290.765 144.297 275.138 144.194 269.763C138.422 270.28 128.631 269.966 122.718 269.919C122.679 277.192 122.388 288.659 122.9 295.728C124.134 295.928 127.816 296.452 127.976 297.902C127.762 297.967 127.544 298.021 127.325 298.065C124.605 298.62 102.408 298.748 100.748 297.595L100.901 297.098C102.245 296.169 103.901 295.931 105.506 295.572C105.771 288.637 105.622 280.939 105.623 273.966C105.661 263.711 105.636 253.455 105.545 243.199C104.044 242.821 100.741 242.411 100.41 240.825L100.944 240.159Z" class="color-main"/>
<path d="M617.346 243.136C615.785 242.834 612.996 242.312 612.351 240.778C612.659 240.384 612.61 240.211 613.108 240.205C621.007 240.121 628.941 240.041 636.84 240.171C637.732 240.186 638.828 240.398 639.542 240.944L639.358 241.473C638.068 242.409 636.273 242.678 634.693 243.045C634.478 251.632 634.606 260.655 634.609 269.28C634.534 278.117 634.575 286.954 634.728 295.79C636.354 295.897 639.137 296.288 640 297.78L639.33 298.279C635.69 298.375 614.448 298.838 612.572 297.672L612.703 297.026C614.373 296.101 615.402 296.021 617.256 295.717C617.876 288.691 617.505 277.276 617.486 269.957C610.263 270.003 603.037 269.978 595.811 269.884C595.795 277.056 595.418 289.039 595.991 295.7C597.655 295.989 599.522 296.175 600.772 297.361L600.578 297.77C598.69 298.608 575.488 298.688 573.892 298.116C573.521 297.323 573.549 297.726 573.845 296.865C574.749 296.132 577.304 295.928 578.601 295.729C579.193 279.334 578.731 259.82 578.682 243.264C577.12 242.831 574.026 242.375 573.475 240.843L573.948 240.141C576.974 240.138 600.014 239.756 600.968 240.797L600.803 241.308C599.612 242.161 597.331 242.733 595.861 243.188C595.452 249.983 595.764 260.273 595.758 267.296L617.449 267.357C617.667 261.731 617.767 248.617 617.346 243.136Z" class="color-main"/>
<path d="M174.431 240.177L222.38 240.105C222.404 242.912 223.001 255.225 221.449 256.536C219.079 255.655 216.993 244.807 211.265 243.634C205.046 242.359 199.519 242.795 193.255 242.819C193.082 250.807 193.219 259.329 193.226 267.359C196.464 267.329 212.256 266.936 214.355 267.643C214.766 268.479 214.729 268.529 214.548 269.486C214.379 269.651 214.21 269.815 214.04 269.979C212.072 269.985 206.266 269.988 204.491 269.985C200.424 269.98 196.998 269.937 193.251 269.889L193.2 286.623L193.233 295.862C200.868 295.911 211.288 297.445 216.697 291.618C219.002 289.135 220.187 282.846 222.543 281.353L223.06 281.527C223.847 283.363 223.542 295.403 223.526 298.351L189.715 298.384C184.984 298.392 175.183 298.672 170.914 298.031L170.752 297.582C171.453 296.338 174.592 295.916 175.988 295.608C176.529 278.924 176.139 260.028 176.102 243.179C174.128 242.74 172.579 242.521 171.032 241.208L171.065 240.686C172.045 240.04 173.196 240.192 174.431 240.177Z" class="color-main"/>
<path d="M412.71 238.936C413.317 238.988 413.791 239.077 414.393 239.187C416.208 240.795 436.569 288.911 440.193 296.036C441.723 296.295 443.213 296.332 444.369 297.273L444.235 297.742C441.702 298.764 419.467 298.761 417.297 297.65L417.281 297.203C418.796 296.199 420.173 296.233 421.996 296.026C420.463 291.683 418.05 286.668 416.084 282.45C409.914 282.302 403.084 282.388 396.914 282.438C395.932 284.77 391.536 294.22 392.034 295.885C393.692 296.961 395.169 295.603 396.422 297.228C396.226 298.028 396.4 297.739 395.568 298.28C393.502 298.43 384.855 298.815 383.465 297.861C383.515 297.335 383.936 296.71 384.354 296.642C391.595 295.456 389.336 291.135 392.567 285.84C396.223 279.843 409.245 242.168 412.71 238.936ZM406.044 260.474C403.483 266.483 400.263 273.691 398.079 279.752C401.061 279.846 404.046 279.875 407.028 279.836L414.859 279.861C413.756 277.235 407.151 261.591 406.044 260.474Z" class="color-main"/>
<path d="M451.673 242.627C450.527 242.434 448.38 242.321 448.461 240.881C450.2 239.652 468.317 239.977 471.236 240.31C472.505 240.783 495.536 270.363 498.306 273.674C498 263.784 498.605 252.68 498.172 243.139C496.732 242.791 494.997 242.502 493.812 241.666L493.51 241.083C495.289 239.344 504.962 240.226 507.651 240.59C505.146 242.02 504.03 242.632 501.095 243.091C501.004 247.959 501.335 296.935 500.64 298.329C499.082 299.315 497.642 297.958 496.623 296.706C492.282 291.354 488.038 285.906 483.763 280.499L456.41 245.944C456.067 260.12 456.478 274.428 456.348 288.614C456.326 290.933 456.345 293.309 456.454 295.623C458.498 295.958 460.009 296.128 461.589 297.538L461.455 297.966C459.601 298.501 449.243 299.157 448.414 297.287C449.336 296.009 451.658 295.94 453.369 295.66C453.743 291.567 453.618 286.178 453.621 281.958L453.599 259.551C453.599 256.797 454.014 244.626 453.054 243.153L451.673 242.627Z" class="color-main"/>
<path d="M40.1653 240.155C58.3182 240.122 78.0128 239.729 96.0276 240.235C96.1578 242.923 96.605 255.914 95.0192 257.24C93.5627 256.557 90.9904 248.484 88.6939 246.183C85.1537 242.637 81.4116 242.767 76.7047 242.499C76.2703 257.497 76.6231 274.224 76.6256 289.358C76.6187 291.439 76.6829 293.59 76.7206 295.678C78.0823 295.892 81.6365 296.277 81.9522 297.803L81.5085 298.221C77.7202 298.403 56.4613 298.981 54.5568 297.513L54.7752 297.007C56.0718 296.091 57.8131 295.922 59.3995 295.629C59.6734 289.399 59.5297 282.309 59.531 276.016L59.4973 242.522C48.2148 243.107 47.4381 244.543 42.966 254.672C42.5336 255.651 42.0285 256.717 41.0979 257.211L40.7159 256.907C39.5982 254.343 40.1084 243.661 40.1653 240.155Z" class="color-main"/>
<path d="M539.802 239.509C548.702 238.551 557.458 239.796 565.862 242.744C565.781 245.067 565.719 257.556 563.441 257.668C561.562 256.605 558.907 248.384 555.754 245.651C552.242 242.605 550.671 242.091 545.67 241.827C542.442 241.656 539.154 242.752 536.926 245.066C531.856 250.334 531.489 261.512 531.61 268.396C531.735 275.612 532.763 285.896 538.335 291.011C542.395 294.735 547.016 295.281 552.22 295.105C560.571 294.375 561.191 291.372 566.348 290.038C567.367 290.341 567.14 290.103 567.533 290.83C566.429 294.639 554.778 298.451 550.865 298.987C533.639 301.349 515.724 294.138 513.574 274.897C512.621 266.335 513.138 257.342 518.492 250.107C523.783 243.221 531.56 240.655 539.802 239.509Z" class="color-main"/>
<path d="M76.6816 342.11C82.7898 341.814 89.5205 341.957 95.6835 341.96L127.16 341.979L154.277 341.954C157.453 341.948 171.475 341.468 173.067 342.861C172.37 343.64 172.227 343.472 171.082 343.756C152.802 344.513 131.603 343.968 113.054 344.011L89.5451 343.971C86.993 343.971 76.484 344.591 75.1348 342.936C75.6567 342.2 75.5654 342.425 76.6816 342.11Z" class="color-accent"/>
<path d="M513.477 342.057C520.205 341.814 527.643 341.96 534.405 341.964H568.271L590.89 341.951C593.047 341.945 603.14 341.508 604.455 342.534L604.511 343.154C603.632 343.958 604.062 343.725 602.704 343.909C585.955 344.211 568.916 343.871 552.114 343.962C543.361 344.011 534.608 344.002 525.855 343.93C523.785 343.918 514.235 344.13 513.156 343.519C512.935 342.68 512.935 343.023 513.477 342.057Z" class="color-accent"/>
<path d="M208.039 330.577C212.6 330.486 219.133 329.84 222.838 332.904C226.041 335.554 223.907 339.118 221.617 341.49C225.791 344.704 227.191 347.429 223.278 351.749C219.371 354.495 210.483 353.669 205.371 353.551C205.33 347.927 204.974 336.112 205.461 330.974C206.026 330.514 207.239 330.605 208.039 330.577ZM220.949 344.681C217.629 342.726 212.562 343.166 208.844 343.26L208.781 350.94C212.459 350.903 217.551 351 220.993 350.077C222.211 348.615 222.908 345.831 220.949 344.681ZM220.053 334.729C217.182 332.732 212.232 333.202 208.852 333.254L208.76 340.674C212.051 340.693 216.82 340.929 219.745 339.623C220.862 338.339 221.696 335.872 220.053 334.729Z"class="color-accent"/>
<path d="M388.871 330.574C395.758 330.383 409.107 329.138 407.412 340.258C406.995 343.011 404.808 344.579 402.639 346.034C403.96 348.223 407.163 351.459 407.21 353.338C406.453 354.043 406.306 353.793 404.991 353.783C403.639 352.908 400.184 348.11 398.996 346.579C396.762 346.495 394.45 346.57 392.209 346.605C392.256 348.478 392.646 352.25 391.617 353.647C390.62 353.856 390.408 353.787 389.396 353.597C388.299 352.257 388.815 333.455 388.871 330.574ZM403.113 335.564C400.077 333.028 395.752 333.469 392.066 333.541C392.044 336.98 392.059 340.421 392.115 343.86C395.693 343.931 399.373 344.386 402.433 342.379C404.271 340.512 405.512 337.569 403.113 335.564Z"class="color-accent"/>
<path d="M267.767 330.576C274.739 330.366 288.301 329.194 285.723 340.988C285.232 343.238 282.782 345.036 280.843 346.065C282.112 347.823 285.651 351.554 285.566 353.353C284.76 353.92 284.563 353.719 283.422 353.697C282.05 352.434 278.758 348.133 277.394 346.458C275.21 346.555 272.99 346.611 270.802 346.686C270.728 348.431 271.011 350.152 270.86 351.87C270.721 353.453 268.781 354.283 267.506 353.407L267.471 353.085C267.193 350.32 266.767 331.79 267.767 330.576ZM281.483 335.178C278.499 333.033 274.21 333.495 270.762 333.546C270.775 336.738 270.691 340.559 270.852 343.702C273.972 343.755 278.611 344.107 281.341 342.558C283.007 340.541 283.934 336.94 281.483 335.178Z"class="color-accent"/>
<path d="M318.171 330.478C321.272 330.302 325.956 330.516 325.638 335.125C325.449 337.859 322.964 339.749 321.019 341.429C323.067 343.558 324.435 344.914 326.691 346.806C327.191 345.157 327.409 343.28 329.259 342.734L329.647 343.09C330.382 345.365 329.482 346.694 328.576 348.919C329.737 350.041 331.336 351.226 331.16 352.931C330.326 353.567 330.698 353.38 329.482 353.502L326.775 351.245C324.167 353.134 320.977 354.044 317.765 353.816C314.324 353.561 310.51 351.634 310.937 347.564C311.277 344.322 313.901 342.485 316.258 340.606C313.022 336.606 312.247 332.296 318.171 330.478ZM318.091 342.539C312.022 346.666 312.878 351.298 320.676 351.13C321.724 350.896 322.734 350.772 323.545 350.07C324.585 347.782 319.733 343.368 318.091 342.539ZM319.061 332.61C314.23 335.363 318.131 339.795 320.015 338.907C323.546 336.226 324.585 333.074 319.061 332.61Z" class="color-accent"/>
<path d="M244.573 330.426C245.595 330.392 245.895 330.332 246.897 330.628C247.437 331.451 247.873 332.314 248.279 333.209C251.273 339.795 254.524 346.27 257.446 352.887L257.116 353.381C256.135 353.727 255.942 353.826 254.916 353.742C253.183 352.766 252.332 349.805 251.56 347.897L246.199 347.85L239.36 347.894C238.49 349.989 237.699 352.682 235.774 353.826C234.683 353.932 235.128 353.997 234.062 353.458C233.86 353.134 233.623 352.978 233.82 352.623C235.537 349.54 242.622 331.596 244.573 330.426ZM245.467 334.118C243.828 337.772 241.852 341.554 240.619 345.301L245.445 345.322C246.741 345.341 248.776 345.472 249.952 345.141C249.845 343.779 246.242 334.976 245.467 334.118Z"class="color-accent"/>
<path d="M365.197 330.458C367.968 330.246 374.614 330.72 375.761 333.72C375.209 336.196 373.826 335.283 372.009 334.502C366.967 332.334 361.514 333.017 359.021 338.456C357.395 342.009 358.987 347.028 362.184 349.325C365.145 351.451 369.292 350.747 372.651 350.133C372.894 348.487 372.891 346.666 372.935 344.992C372.935 343.237 372.567 342.374 374.25 341.644C377.06 342.043 376.216 348.992 376.207 351.248C371.635 353.854 366.22 355.033 361.318 352.53C358.538 351.121 356.46 348.63 355.569 345.641C353.232 337.888 357.887 332.405 365.197 330.458Z" class="color-accent"/>
<path d="M435.602 330.347C436.768 330.267 437.625 330.151 438.504 330.822C439.055 333.396 438.968 347.203 438.996 350.723C442.42 350.704 446.92 350.436 450.301 350.941C451.195 351.075 451.292 351.468 451.647 352.097C451.551 353.073 451.688 352.702 451.121 353.5C445.929 353.628 440.738 353.693 435.543 353.697C435.197 346.686 435.331 337.356 435.602 330.347Z" class="color-accent"/>
<path d="M461.824 330.462C462.946 330.412 463.84 330.255 464.843 330.703C465.339 334.218 464.965 346.211 465.136 350.744C467.442 350.738 475.675 350.339 477.32 350.974C477.834 351.844 477.675 352.483 477.619 353.518C472.132 353.615 467.137 353.69 461.655 353.499C461.627 345.822 461.684 338.141 461.824 330.462Z"class="color-accent"/>
<path d="M419.176 330.403C420.335 330.387 421.435 330.287 422.357 330.874C422.84 335.444 422.541 348.608 422.467 353.711C421.276 353.792 420.69 353.895 419.512 353.568C418.543 352.096 419.086 333.331 419.176 330.403Z" class="color-accent"/>
<path d="M457.961 207.111C464.405 206.766 472.573 206.978 479.104 206.983L518.23 207.062L575.463 207.013C584.347 206.999 593.265 207.036 602.149 206.933C603.009 206.923 603.62 206.954 604.324 207.45C604.536 208.4 604.58 208.01 604.231 208.909L603.483 209.05C594.066 208.543 582.144 209.065 572.556 209.062L497.349 208.924L472.164 208.95C469.753 208.955 458.51 209.345 457.139 208.402L457.145 207.811L457.961 207.111Z" class="color-accent"/>
<path d="M76.6033 207.109C84.8984 206.833 93.7911 206.987 102.146 206.988L145.663 207.005L196.709 207.021C203.661 207.019 210.63 207.048 217.583 206.901C218.393 206.885 220.65 207.082 221.351 207.503C221.788 207.765 221.65 207.769 221.799 208.37C221.382 208.775 221.082 208.825 220.524 209.064C173.057 208.266 125.237 209.387 77.737 208.922C76.7847 208.912 75.8729 208.868 75.1992 208.186C75.6757 207.354 75.5576 207.606 76.6033 207.109Z" class="color-accent"/>
<path d="M295.403 206.494C296.549 207.307 298.77 206.742 300.525 207.004C296.83 207.472 273.016 208.092 270.897 207.148L270.788 206.74C273.241 204.696 291.787 207.122 295.27 205.436L295.403 206.494ZM335.828 40C337.907 41.5843 336.126 42.2876 339.306 42.4404C340.322 42.1402 340.822 41.908 341.883 42.0684C342.83 42.8535 342.648 42.5086 342.988 43.5225C342.639 45.2765 341.297 45.3817 341.306 46.5645C342.691 47.2332 345.408 47.104 346.978 47.0908C347.958 46.167 348.341 45.713 349.632 45.2832C351.441 45.497 351.547 46.5622 352.231 48.208C353.267 47.979 353.876 46.0591 354.172 45.1465C356.1 45.3755 356.536 44.2035 358.544 44.7031L358.937 45.332C358.473 46.5203 357.891 46.4939 356.649 46.9502L356.528 47.2881C361.183 46.9407 360.216 48.1421 364.443 49.0098C366.203 49.3436 365.473 46.9625 368.814 47.4453C370.163 46.0137 369.369 45.458 370.771 44.457C371.813 44.4769 372.279 44.8784 373.14 45.4551C372.336 46.9993 372.09 46.388 372.115 47.8301C373.671 49.891 373.978 49.6087 372.523 51.8027C375.091 54.1764 379.644 49.7913 381.096 50.1631C381.847 51.4905 380.514 52.073 380.911 53.8193C381.726 54.5804 382.873 54.6525 383.953 54.6211C384.429 54.6043 384.933 54.5747 385.405 54.5352C385.131 55.3237 384.569 55.6457 383.899 56.1787C384.442 56.5845 384.699 56.6207 384.831 57.1387C385.239 61.219 385.235 61.8472 389.412 63.0508C388.593 63.4853 384.774 66.0083 384.262 66.2012L383.189 65.6748L382.797 66.002C384.748 68.9764 390.753 65.9821 393.143 64.7861C395.441 65.2347 398.125 65.3514 400.172 65.8311C399.056 67.7981 398.652 68.4116 399.269 70.7061C399.427 71.2767 399.603 71.8507 399.795 72.4111V72.4121C401.761 71.5297 403.186 70.5895 405.252 71.3174L405.698 71.8525C405.192 73.8239 403.224 74.3474 401.397 74.625C401.852 75.1773 402.719 76.02 402.537 76.5537C401.592 79.1109 398.794 80.4761 396.875 82.8926C399.625 84.0826 399.362 84.1756 401.334 86.3701C404.125 85.0416 403.416 85.4649 406.317 86.1006C408.117 86.4872 408.153 85.892 409.741 87.5273C411.924 87.6956 412.313 85.3746 414.154 85.2148C415.019 85.5925 415.122 85.8038 415.631 86.6377C415.486 87.2309 415.545 87.2012 415.235 87.6895L414.958 89.8047C415.243 91.6717 416.621 93.0429 416.569 94.2422C413.274 97.6637 416.243 96.4347 415.375 99.1436C415.266 99.9886 415.03 100.487 415.426 101.033L415.858 100.875C417.01 100.959 417.895 101.39 418.75 102.165C419.305 103.733 417.459 106.692 416.971 108.562C419.133 109.556 420.913 110.828 423.091 111.298C423.393 112.985 423.805 114.995 423.97 116.673C421.983 116.234 419.958 115.799 417.968 115.381C416.914 116.291 417.637 118.872 415.771 119.235C414.468 118.049 415.54 116.74 413.839 115.365L412.995 114.887C412.584 113.9 412.758 114.006 413.011 112.837C409.946 114.161 410.1 114.166 406.791 114.46L405.089 111.491C402.984 111.634 401.79 111.848 399.808 112.488C399.787 112.496 399.761 112.507 399.741 112.515C399.332 112.153 398.594 111.168 398.225 110.703C397.823 110.374 393.428 109.056 391.179 107.77C388.629 108.159 387.728 108.319 385.647 109.803C380.28 114.843 374.221 119.348 366.957 121.334C362.184 123.337 356.042 128.781 354.767 134.254C354.682 134.623 354.941 134.706 355.206 134.93C357.378 134.756 364.653 131.637 368.241 130.845C367.652 129.877 367.312 129.449 367.153 128.302C367.563 127.164 367.375 127.119 368.253 126.484C370.164 126.939 370.79 129.533 372.978 129.467C373.788 129.055 373.87 128.947 374.401 128.198C374.233 127.777 373.024 127.579 372.146 127.041C371.881 125.15 373.376 124.44 374.856 124.189C375.906 124.007 374.683 123.137 375.131 121.953C375.452 121.874 375.778 121.788 376.094 121.702C379.115 120.869 377.212 118.349 380.375 118.027C381.104 118.38 381.19 118.449 381.985 118.544C382.672 117.662 382.903 117.395 383.74 116.631C386.402 116.106 385.97 118.277 388.006 118.595C389.401 115.062 396.128 117.434 396.93 111.572C398.793 113.114 397.892 113.274 398.375 115.217C398.978 114.175 397.803 113.551 399.089 112.823C397.9 113.536 399.012 114.163 398.434 115.182C397.604 116.134 396.669 117.046 396.262 118.223C396.565 118.539 396.537 118.635 396.956 118.648C398.964 118.735 400.115 120.91 401.559 121.029C402.089 120.627 402.564 120.27 403.12 119.902L403.556 120.104C404.064 121.759 404.086 124.835 405.612 125.381C408.124 126.274 408.391 125.85 410.442 127.849C410.961 126.678 411.568 124.904 412.54 124.238C413.604 124.362 413.774 124.633 414.678 125.576C416.682 125.633 415.288 124.192 419.181 125.603C420.847 126.509 420.902 126.252 421.309 128.249C421.98 129.162 423.68 129.636 424.799 130.048L425.11 130.571C424.878 130.934 424.76 131.163 424.462 131.464C424.294 132.685 424.247 133.247 423.817 134.407C422.801 134.881 421.989 134.064 421.115 133.439C420.731 133.776 420.312 134.117 419.865 134.39C420.285 134.123 420.682 133.797 421.05 133.474C418.985 132.048 417.727 131.217 415.225 132.016C415.22 132.013 415.214 132.009 415.21 132.006L415.169 132.032C415.162 132.035 415.152 132.038 415.145 132.04C415.147 132.041 415.15 132.043 415.151 132.044L411.34 134.569C409.892 133.848 407.972 132.714 406.417 132.666C405.459 133.165 405.781 132.929 405.13 133.992C405.27 134.902 404.463 135.857 403.534 136.539C404.438 135.862 405.208 134.924 405.066 134.027C403.712 132.506 403.203 131.809 401.115 131.693C400.556 131.665 399.995 131.648 399.436 131.642L399.214 131.912C400.127 132.94 401.543 133.708 402.735 134.439C402.511 135.894 402.137 136.342 401.919 137.418C401.941 137.41 401.967 137.4 401.989 137.392L404.052 140.147L407.221 141.132L407.738 143.187C403.595 144.685 400.155 140.869 395.972 139.831L395.754 139.779C394.456 139.463 394.029 139.656 392.793 140.094C388.259 142.917 384.974 145.1 379.463 143.993C370.299 142.817 369.825 143.885 361.816 148.656C356.133 152.041 347.817 154.681 347.454 162.654C346.635 173.744 348.081 184.957 350.683 195.739C352.175 201.9 354.714 203.697 360.931 203.993C364.877 204.184 369.34 205.038 373.152 203.64C376.336 202.481 375.914 204.123 378.266 204.615L378.324 204.656C390.521 205.492 402.801 205.047 414.948 206.491C418.158 206.873 422.523 206.294 425.627 206.798L425.771 207.069C423.546 207.787 421.121 206.612 418.81 206.789C404.797 207.866 390.783 207.482 376.739 207.356C372.52 207.319 365.013 207.678 361.037 207.017C365.54 206.599 373.741 207.046 378.904 206.803C378.852 206.794 378.799 206.787 378.746 206.778C373.584 206.997 365.552 206.577 361.108 206.983C340.884 206.806 320.822 207.201 300.6 206.969C298.856 206.708 296.629 207.25 295.477 206.459L295.343 205.4C295.652 203.729 295.688 203.41 295.547 201.72C305.817 206.347 319.703 205.317 330.61 203.598C332.302 203.329 335.429 202.669 336.407 201.086C337.997 198.415 337.444 175.252 336.723 171.551C336.322 169.492 335.812 167.607 333.986 166.389C330.637 164.176 311.627 160.532 307.435 161.291C307.41 161.301 307.383 161.311 307.358 161.321C307.36 161.323 307.363 161.325 307.365 161.326C301.079 163.891 294.294 165.264 287.76 162.367L287.839 162.336C287.836 162.335 287.832 162.333 287.829 162.332C285.819 162.858 280.195 162.397 277.689 162.338L277.69 162.337C276.12 162.857 274.272 163.454 272.937 164.443C273.145 164.504 273.371 164.571 273.562 164.627C273.371 164.572 273.144 164.505 272.936 164.444C272.139 164.81 272.066 164.84 271.23 164.796L270.841 164.242C271.031 162.138 275.611 158.486 277.288 157.067C277.808 157.222 281.678 159.547 282.406 159.907C283.786 158.161 284.733 156.838 285.959 154.977C285.406 153.329 284.705 150.64 285.71 149.114C286.667 148.862 287.658 149.408 288.656 149.801C289.661 149.703 292.345 147.577 293.322 146.869C292.698 145.042 291.924 142.094 293.884 140.899C294.845 140.838 295.067 141.018 295.911 141.554L295.91 141.556L296.189 142.581C298.27 143.255 300.256 138.607 303.147 139.703C304.495 140.231 305.595 141.892 306.751 142.051C308.015 141.444 307.581 140.872 309.174 140.689L310.393 141.313C313.402 140.25 312.778 140.553 314.895 143.086C315.049 144.192 315.189 145.883 315.677 146.814C316.131 146.919 315.988 146.981 316.326 146.812L318.266 146.787C318.92 147.598 319.314 148.213 320.277 148.656C321.332 148.563 321.693 148.271 322.612 147.729C323.353 148.656 322.962 151.87 322.861 153.157C321.654 152.597 320.548 151.903 319.314 152.104L318.52 152.786C318.522 152.824 318.524 152.861 318.526 152.896C319.764 154.237 323.684 157.177 325.22 158.379C323.661 159.238 324.219 158.803 323.428 160.591C323.445 160.59 323.464 160.59 323.48 160.589V160.588C324.284 158.777 323.722 159.207 325.286 158.345C327.262 159.772 331.174 162.063 333.66 161.725C336.698 159.302 331.68 149.908 329.632 147.619C326.114 143.643 320.591 140.931 315.658 139.076C310.385 137.096 303.783 137.273 298.17 136.85L298.169 136.849C296.281 136.532 287.824 135.072 286.488 135.157C285.82 135.7 285.722 135.952 285.265 136.693C283.929 136.876 283.706 136.611 282.436 135.735C281.598 135.979 281.851 135.925 281.273 136.954C281.988 139.135 282.629 140.968 280.312 142.292C279.319 142.414 278.858 142.123 277.975 141.718C275.751 140.925 274.214 139.684 272.285 139.012L271.562 138.349L271.669 137.097C270.887 136.382 269.295 135.213 269.45 134.147C270.153 133.711 271.537 133.854 272.449 133.864C272.861 133.236 272.769 133.562 272.694 132.738C271.536 131.136 269.203 130.773 267.374 130.896C267.105 132.769 267.492 132.539 266.483 133.642L265.886 133.835C265.196 133.373 265.4 133.495 265.021 132.61L265.324 131.34C263.815 132.466 262.747 131.898 261.88 132.591C259.831 134.282 258.12 135.821 255.943 137.4C255.684 137.293 253.114 136.375 252.817 136.257C251.283 134.858 252.844 134.042 250.648 132.385C251.322 131.061 255.254 129.293 256.722 128.534C256.891 127.763 256.733 127.767 256.414 126.876C257.868 124.483 260.021 126.827 262.309 123.83L262.494 123.584C260.978 116.961 257.047 123.247 255.115 119.922C255.419 117.802 258.62 115.354 260.732 115.132C262.578 115.941 261.525 117.224 262.341 118.961L262.907 118.748C263.148 117.444 263.221 117.226 263.789 116.021C264.771 115.29 264.592 115.498 266.031 115.428C265.732 114.048 264.053 113.495 263.635 112.173C264.84 111.441 265.418 111.081 266.495 110.169C267.596 110.603 266.555 111.609 268.369 112.812C268.386 112.607 268.407 112.399 268.43 112.195C268.657 110.14 269.203 109.216 270.787 107.947L271.137 107.997C271.643 109.432 270.813 109.779 271.391 111.108C272.629 110.928 274.404 110.873 275.259 110.2L274.95 109.293C275.144 108.779 275.568 108.565 276.035 108.232C276.895 108.47 276.514 108.701 277.306 109.897L277.854 109.74C279.277 108.352 280.05 106.449 281.046 104.63C282.178 105.372 282.569 105.713 283.918 105.918C283.919 105.922 283.92 105.928 283.92 105.932C286.463 105.137 289.657 102.561 286.918 100.122C285.83 101.625 287.805 103.473 283.651 104.123L283.318 104.172C283.318 104.171 283.316 104.167 283.314 104.164C282.656 103.077 282.6 102.931 282.379 101.683C281.84 99.8703 282.203 97.2054 280.66 96.0127C279.703 95.783 279.477 95.8992 278.55 96.2246C278.549 96.2253 278.54 96.2303 278.535 96.2334C278.098 95.7696 277.366 94.5245 276.99 93.9258L275.271 94.54C275.06 96.1213 275.054 96.3503 275.523 97.835C273.501 97.2475 267.657 100.062 270.534 93.7197L271.709 91.958C271.943 91.7647 273.007 90.5721 273.208 90.3584C274.169 90.3105 274.396 90.3204 275.262 89.8896L275.147 89.3555L274.051 88.6738C273.027 88.5441 272.258 88.5742 271.246 88.5947L271.254 88.5801C270.42 87.9453 270.511 88.1878 270.155 87.3467L270.613 86.9482C270.641 86.9435 270.683 86.9364 270.705 86.9326C270.682 86.9365 270.64 86.9428 270.612 86.9473L270.155 87.3447L270.628 86.9336C271.976 86.6931 272.88 86.9565 274.229 87.2314C275.847 85.7442 276.23 81.3535 277.044 78.5996C279.08 77.5747 280.514 76.1079 282.48 75.0049C283.867 74.2428 285.412 74.5927 286.298 73.2207C285.897 72.7742 285.191 72.4962 284.626 72.2266L284.649 71.7197L285.165 71.4697C285.772 71.8269 286.009 72.0346 286.729 72.0303C287.491 71.3781 287.396 71.6512 287.556 70.8125C286.798 70.3318 286.608 70.2736 286.186 69.5322L286.403 69.1152C288.081 68.4734 287.959 69.5247 289.89 69.1094L290.12 68.6426C287.73 66.7714 285.697 65.5433 288.653 62.748C289.342 63.2281 289.657 64.3308 290.062 65.2334C292.556 66.9078 293.176 63.6385 294.082 63.4287C298.242 62.4842 299.727 65.5857 299.372 58.2422C300.352 58.7179 300.949 59.0105 301.398 59.9873C301.307 60.9749 300.952 61.3323 300.355 62.0898L300.14 62.3623L300.269 63.0195L300.987 63.3584C302.22 61.8604 302.566 59.2897 301.277 57.7529C300.133 57.6276 300.556 57.5949 299.372 58.2266C299.372 58.2248 299.372 58.2225 299.372 58.2207C299.371 58.2221 299.364 58.229 299.36 58.2334L299.357 58.2354H299.358C298.593 59.0759 297.751 60.3235 296.604 59.8291C296.147 57.689 298.31 54.7726 299.562 53.1865C301.052 53.4303 303.861 54.3523 304.728 54.2021C304.782 53.377 304.654 53.5213 303.976 52.6533C302.365 52.6692 300.764 51.5977 298.206 51.71C298.204 51.7081 298.197 51.7002 298.192 51.6953C298.527 50.6254 298.633 49.7863 299.517 49.1865C300.832 48.9542 301.676 49.7161 302.79 50.4805C303.264 50.8111 303.764 51.1509 304.245 51.4697C306.566 49.8058 307.369 50.7584 309.929 49.7812C311.703 49.1219 312.008 50.6429 313.501 50.207L313.884 48.6104L314.445 48.2852C315.301 48.5459 315.467 48.6253 316.361 48.6152L316.728 48.1846C316.46 47.3797 316.323 47.2041 316.526 46.4248C319.242 44.4337 319.22 46.865 321.257 42.9922C326.585 45.49 327.56 45.4522 332.447 43.7363C332.229 42.756 331.653 40.8774 332.008 40.0801C332.99 40.3371 333.175 40.8035 333.99 41.6611C333.982 41.6713 333.97 41.6892 333.961 41.7012C335.093 42.8785 335.04 43.2113 336.389 43.542C337.506 43.132 338.062 42.701 339.271 42.4746C336.086 42.3215 337.888 41.6236 335.794 40.0342C335.308 40.2214 335.051 40.3566 334.862 40.5264C335.057 40.3393 335.313 40.1982 335.828 40ZM378.648 204.964C377.184 205.27 376.388 204.178 375.428 204.506C376.377 204.241 377.176 205.341 378.668 204.978L378.648 204.964ZM306.98 154.73C302.791 158.716 302.559 156.398 299.668 157.992L299.729 159.265C298.005 160.827 295.36 158.273 292.076 159.54C291.678 160.398 291.578 160.712 290.965 161.396L289.226 161.792L287.828 162.331C287.832 162.333 287.836 162.334 287.84 162.336L289.157 161.827L289.263 162.26L289.774 162.565C297.006 162.578 299.396 161.994 306.271 159.825C306.638 160.572 306.7 160.876 307.357 161.32C307.382 161.31 307.409 161.3 307.434 161.29C306.772 160.845 306.703 160.53 306.339 159.789C307.329 159.395 308.156 159.208 308.7 158.34C308.713 156.874 307.879 156.024 306.98 154.73ZM317.76 154.667C315.116 155.939 314.234 156.171 311.338 156.821C310.372 160.338 321.083 160.735 323.409 160.592C323.111 158.722 319.572 155.164 317.758 154.671C317.758 154.67 317.759 154.668 317.76 154.667ZM373.365 132.931C372.392 132.176 369.831 132.393 368.604 132.455C369.344 133.762 369.562 134.277 370.732 135.195C370.767 135.719 370.803 136.248 370.839 136.777C370.803 136.248 370.766 135.72 370.731 135.196C369.561 134.278 369.344 133.763 368.604 132.456C360.556 135.261 351.836 138.201 347.807 146.455C347.074 147.953 345.791 151.82 347.012 153.258C349.2 153.648 367.908 143.273 371.021 141.547V141.546L374.886 139.475C375.604 138.872 377.087 138.043 377.942 137.534L376.475 137.28C375.279 137.13 372.811 136.642 372.06 135.697C372.184 134.089 373.06 134.479 373.365 132.931ZM325.567 122.635C323.692 124.162 326.131 127.093 327.21 128.448L327.184 128.524C328.857 130.683 331.657 134.319 332.029 136.999C332.052 137.008 332.078 137.019 332.102 137.028C334.483 141.913 334.582 145.821 338.144 151.408C338.489 142.383 335.657 133.541 330.472 126.017C329.507 124.617 327.337 122.873 325.567 122.635ZM265.752 136.437C267.959 138.774 268.692 138.107 271.599 137.131L271.491 138.384L272.215 139.047C271.098 140.282 270.292 140.166 268.938 141.248L269.757 142.006C267.933 144.639 265.527 145.895 263.684 142.451C262.836 140.868 264.429 141.267 264.069 139.624C263.342 139.409 263.326 139.422 262.697 139.02C262.888 138.256 265.021 136.739 265.752 136.437ZM360.587 93.3682C360.254 95.3098 360.086 99.2257 360.058 101.251C358.959 102.368 358.393 102.833 357.758 104.25C357.656 104.431 357.554 104.617 357.455 104.799C356.579 106.42 355.087 108.965 355.617 110.741C357.386 111.282 357.256 110.08 359.02 110.62C359.068 112.477 351.677 112.834 349.117 118.255C347.397 121.909 343.695 139.881 344.539 142.526L345.065 142.713C346.073 142.098 347.778 139.054 348.524 137.289C351.211 130.931 357.157 125.997 361.083 120.683C363.052 118.013 371.155 102.205 370.802 100.091C370.075 99.4677 369.947 99.5089 368.95 99.4092C365.313 101.494 362.314 99.7262 357.759 104.25C358.394 102.833 358.96 102.368 360.059 101.251C360.087 99.2257 360.254 95.3098 360.588 93.3682C360.624 93.3063 360.661 93.2431 360.694 93.1865C360.661 93.2433 360.623 93.3062 360.587 93.3682ZM392.566 132.157C390.232 132.352 389.906 132.873 388.196 134.517H388.195L387.519 134.138C385.141 135.535 385.731 137.259 384.322 137.934C383.093 137.462 382.478 136.933 381.374 137.538C379.584 138.526 377.733 139.955 376.089 141.167C377.919 142.012 379.556 141.665 380.698 142.047C385.225 142.184 386.67 141.577 390.595 139.405L390.594 139.404C391.047 139.227 391.51 139.089 391.973 138.94C392.728 138.207 393.119 137.904 392.982 136.862L392.25 136.744C391.102 137.012 390.759 137.504 389.958 138.335C389.973 136.352 389.816 136.279 388.575 134.78C389.894 133.826 390.93 134.749 392.844 132.398L392.566 132.157ZM319.315 124.58C317.481 126.041 317.293 126.251 315.141 127.206C312.752 128.264 308.761 127.619 307.774 129.417L307.831 130.198C308.706 130.677 311.587 131.534 311.784 131.77C313.391 133.656 330.133 147.147 330.008 139.146L329.989 138.748C331.059 137.682 330.778 138.176 331.168 136.722C331.152 136.716 331.134 136.71 331.118 136.704C330.707 138.223 331.025 137.681 329.926 138.778C329.42 134.951 328.854 133.393 326.516 130.354L326.538 130.286C324.301 128.19 321.871 126.272 319.315 124.58ZM384.067 127.736C383.613 128.301 383.347 128.57 382.804 128.893L382.55 129.036C381.678 129.723 379.674 131.131 379.244 132.006L379.223 132.699C379.036 132.644 378.845 132.548 378.657 132.406C377.535 131.89 377.511 131.647 376.474 131.868C375.978 132.73 376.355 134.648 376.474 135.758L377.941 136.013C379.654 135.022 381.573 134.142 383.198 133.058C383.651 132.753 383.534 132.533 383.618 131.822L383.442 131.792C383.056 131.74 382.68 131.794 382.322 131.896C382.416 131.856 382.517 131.811 382.619 131.771L383.847 130.452C384.176 130.201 384.499 129.937 384.815 129.668C385.601 128.986 385.841 128.927 385.894 128.103C385.098 127.736 384.962 127.771 384.067 127.736ZM296.077 128.649C297.322 132.783 307.784 135.574 311.736 135.788C312.995 131.607 298.876 128.971 296.077 128.649ZM294.057 130.765C291.503 129.721 290.452 130.724 290.557 133.461C291.04 134.178 291.27 134.248 292.051 134.707C294.579 134.636 297.706 134.753 300.26 134.786C298.308 133.75 296.01 132.014 294.057 130.765ZM281.368 127.896C280.574 128.98 280.22 129.438 279.271 130.379L279.086 131.058C279.684 131.562 279.758 131.558 280.586 131.617C281.394 130.919 282.671 129.991 282.963 129.053C282.563 128.294 282.235 128.118 281.368 127.896ZM285.831 128.235C285.884 129.74 285.68 129.32 286.421 130.536C287.371 131.198 287.815 131.201 288.941 131.348C288.665 129.195 288.124 128.461 285.831 128.235ZM338.095 106.347C336.948 110.353 340.363 120.466 340.143 125.179C340.102 126.062 340.697 129.775 340.952 130.597L341.454 130.789L342.137 130.482C343.594 123.713 344.348 114.776 340.444 108.755C339.823 107.799 339.194 106.75 338.095 106.347ZM327.864 114.958C328.285 115.805 330.255 119.883 330.696 120.399V120.4C332.587 124.244 333.944 126.646 336.541 130.045C336.013 126.863 335.536 122.651 334.108 119.817L333.967 119.548C332.077 117.678 330.087 116.401 327.864 114.958ZM377.989 101.722L377.088 103.101C376.227 105.404 377.713 105.837 376.375 107.293C375.113 106.77 374.692 106.442 373.652 105.563C370.319 106.323 365.676 115.698 365.229 118.966C372.922 118.449 379.347 112.984 384.614 107.897C385.455 107.019 385.541 106.888 385.896 105.723L382.97 106.215C383.225 103.885 382.974 104.113 380.944 103.2L379.573 103.87C379.865 105.188 379.841 105.447 379.77 106.767C379.662 106.766 379.549 106.769 379.449 106.773C379.549 106.769 379.661 106.766 379.769 106.767C379.84 105.446 379.865 105.188 379.572 103.869L379.157 103.828C379.571 102.257 380.039 101.577 378.905 100.353C378.599 100.806 378.292 101.265 377.989 101.722ZM302.18 115.729C302.387 116.925 302.653 116.833 303.712 117.878C304.445 116.684 304.101 115.572 302.872 114.864L302.18 115.729ZM322.101 110.964C319.972 112.163 318.355 112.352 317.706 114.616C317.769 117.216 319.44 117.665 321.495 117.858C326.769 116.545 323.959 111.323 322.101 110.964ZM329.608 103.961C329.477 105.049 329.479 106.083 328.689 106.823C327.613 107.458 326.165 107.634 324.911 107.866C327.074 111.242 328.185 112.815 331.838 114.788C332.862 115.118 333.783 115.542 334.79 115.169C337.234 112.604 331.596 105.535 329.608 103.961ZM313.816 112.652C313.045 112.805 311.227 113.121 310.561 113.413C310.675 113.871 310.891 114.187 311.125 114.596C312.462 115.265 314.131 114.94 315.055 113.731L314.969 113.185L313.816 112.652ZM358.824 93.5645C356.219 94.1039 357.238 95.8006 355.777 97.8193C355.52 98.1693 353.626 99.2844 353.141 99.5684C354.299 100.178 355.251 100.446 356.494 100.842H356.493L356.35 101.531C355.438 102.039 355.789 102.002 354.876 101.876C353.065 100.533 352.577 98.498 351.346 98.4775L351.171 98.7627L352.19 99.6377C351.29 100.247 350.122 100.658 349.367 101.162C346.373 103.178 343.194 110.658 345.21 113.948C348.924 116.365 354.482 104.518 356.631 102.312C356.795 102.13 357.246 101.127 357.348 100.882C359.115 99.57 360.602 94.9882 358.824 93.5645ZM300.17 106.466C299.399 107.241 298.867 107.643 298.6 108.718C299.231 110.233 301.023 110.196 302.571 110.476C303.531 110.039 303.287 110.316 303.633 109.409C303.363 107.657 301.938 106.49 300.17 106.466ZM286.79 105.846C285.85 106.621 284.913 107.163 284.678 108.276C284.969 108.971 284.943 108.969 285.489 109.481C286.554 108.805 286.957 108.63 287.59 107.519C287.597 106.76 287.558 106.287 286.79 105.846ZM399.971 105.167C399.591 106.099 399.481 106.274 399.646 107.252C400.326 108.233 399.963 107.945 401.026 108.408C401.554 107.069 401.628 107.413 401.426 106.121C400.821 105.564 400.72 105.407 399.971 105.167ZM392.067 104.865C390.855 104.715 389.74 105.332 388.587 105.813L388.615 106.734C389.399 107.294 389.552 107.235 390.578 107.059C391.382 106.405 391.707 106.193 392.267 105.278L392.067 104.865ZM334.204 90.7676C333.138 91.7886 333.373 91.8488 332.119 92.1279C330.826 91.4602 330.657 91.048 329.524 91.2266C327.581 93.3608 328.607 95.0351 331.074 95.8994C331.26 96.8779 330.482 98.8006 330.594 99.0957C331.066 100.324 334.265 104.534 335.279 105.02C336.893 104.289 336.375 102.349 336.891 100.825C337.096 99.5301 337.234 98.2049 337.427 96.8975L337.208 96.6709C335.35 94.7036 336.258 91.6038 334.204 90.7676ZM338.784 95.6123L338.722 97.3857C338.652 99.2223 338.577 101.198 338.619 102.86L338.657 103.075C338.744 103.512 338.833 103.569 339.184 104L339.72 103.875C340.599 102.769 341.011 101.212 341.465 99.8516L342.365 97.0635C341.593 95.8245 340.744 94.9075 339.262 94.8877L338.784 95.6123ZM346.209 96.9277C344.894 96.9066 344.519 96.8499 343.323 97.3945C342.741 99.2152 342.716 99.6853 342.623 101.615C342.657 102.789 342.461 103.124 343.043 103.955L343.835 103.818C345.744 102.427 346.936 100.58 347.315 98.2305C346.931 97.1483 347.207 97.4796 346.209 96.9277ZM385.27 95.8047C384.673 95.85 384.653 96.0651 384.095 96.584C383.939 97.3363 383.854 97.5187 383.328 98.0742C382.247 97.7796 381.491 97.4396 380.461 97.7773C379.76 98.4886 379.779 98.7583 379.623 99.7627C381.372 100.731 383.143 100.349 384.147 98.5312L384.696 98.3105C384.904 98.9722 385.001 99.3649 385.138 100.045V100.046C384.777 101.129 384.187 101.474 383.312 102.178C384.296 103.219 383.819 102.963 385.125 103.271C385.744 103.101 386.237 103.006 386.792 102.676C386.832 101.879 386.629 101.137 386.397 100.38L386.163 99.6133C386.008 97.9311 386.018 97.2887 385.27 95.8047ZM415.33 99.1787C414.227 99.4688 412.191 99.8396 411.537 100.629C411.922 100.973 415.734 103.141 415.997 103.157C416.314 102.452 416.002 101.825 415.812 100.91L415.38 101.068C414.984 100.522 415.221 100.024 415.33 99.1787ZM389.212 98.4824C388.34 99.2068 387.417 99.6621 387.276 100.545C387.763 100.678 387.981 100.748 388.492 100.821C389.567 100.447 389.768 100.569 390.418 99.7646C390.029 98.8803 390.106 99.1292 389.212 98.4824ZM319.896 80.2617C316.849 80.4264 316.232 85.7579 313.087 85.6475L312.935 85.6367C313.233 84.4227 313.658 83.3426 313.17 82.2305L312.678 81.7832C311.07 82.5066 311.766 84.7773 312.347 86.0869C313.066 87.8293 314.447 92.063 315.258 93.25C316.543 93.2686 317.147 92.8964 317.77 93.4727C317.375 94.0583 317.071 94.4854 316.632 95.0342C316.688 95.9272 316.676 95.97 317.237 96.624C319.07 96.8478 320.199 94.8582 321.42 96.209C321.314 96.9877 321.229 97.4516 321.033 98.2109L321.343 98.2236L321.494 98.0664C321.901 98.109 322.313 98.1119 322.658 98.1641C322.742 98.1774 322.842 98.1974 322.918 98.2178C323.343 98.3379 323.697 98.6056 323.869 99.2393C324.27 99.7158 324.582 99.9804 325.043 100.389L325.741 100.334L325.934 100.142C326.822 99.1643 326.885 97.7121 327.03 96.3926H327.029C326.769 95.0776 326.592 93.8196 326.039 92.5938C325.408 91.2 322.811 91.5635 322.782 90.1631C322.746 88.3609 323.798 84.8382 322.659 83.2109C321.015 82.8018 321.261 83.8176 319.515 83.7324C319.022 82.3722 320.286 81.6882 319.896 80.2617ZM368.112 99.4473C368.182 99.4476 368.265 99.4469 368.344 99.4434L368.455 99.4365C368.331 99.443 368.213 99.4476 368.112 99.4473ZM364.105 91.7861C363.29 91.2986 363.4 91.2577 362.906 91.3311C362.836 91.3415 362.744 91.3524 362.645 91.3662C362.568 91.3769 362.473 91.3932 362.376 91.4053C361.312 92.0554 361.195 92.3373 360.59 93.3691L360.634 93.6904C360.796 94.8676 360.758 98.1692 360.964 98.9248C361.798 96.3997 362.258 94.8795 365.199 94.2676C364.925 96.2417 363.487 97.2552 363.499 98.6006C364.193 99.2717 365.583 99.1839 366.702 99.2656L366.948 99.1416C366.328 98.0535 366.244 98.3264 366.453 97.4131C367.268 97.2009 368.008 97.0038 368.814 96.748C368.22 95.0944 366.585 94.9515 365.2 94.2676H365.202C364.872 93.0395 364.81 92.8702 364.105 91.7861ZM298.236 90.249C297.128 90.3544 296.006 90.9246 295.142 91.5713L294.803 92.2217C295.304 92.8053 295.95 92.9553 296.658 92.9775C296.889 92.9839 297.152 92.9797 297.396 92.9736L297.701 93.2197V93.2207C297.723 93.5602 297.745 93.7993 297.751 94.0088C297.761 94.3568 297.727 94.6348 297.588 95.1689C298.101 97.7017 300.046 97.9529 302.3 98.7188L303.244 95.3594V95.3604C305.657 95.4838 305.971 97.7987 308.732 95.6924L308.703 95.2598C307.001 94.5263 304.755 93.1991 303.103 93.3408L303.09 92.9521C303.077 92.1162 303.14 91.6907 302.646 91.0332C301.791 91.3886 301.465 91.5465 300.576 91.7109L299.457 90.8623L299.007 90.2539C298.93 90.2452 298.83 90.2381 298.751 90.2344C298.588 90.228 298.401 90.2344 298.236 90.249ZM413.147 93.8916C411.805 94.3584 411.572 94.2085 410.767 95.1338C410.692 96.1938 411.355 97.1228 411.882 98.1152C412.441 97.0992 413.658 95.1788 413.711 94.1445C413.56 94.0682 413.302 93.9197 413.147 93.8916ZM372.747 87.7227C372.33 90.3114 372.246 92.5572 372.271 95.1777C372.627 95.3776 372.786 95.4923 373.171 95.623C374.324 93.7883 373.703 90.2752 373.236 88.1621L372.747 87.7227ZM281.022 92.4434C279.954 92.3128 279.558 92.6498 278.658 93.1865C279.762 94.1039 280.812 95.2322 282.163 95.3018L282.916 94.7861C282.414 93.797 282.018 92.9364 281.022 92.4434ZM376.209 90.7988C375.692 91.7274 375.411 92.013 375.561 93.0488C376.51 94.1892 377.599 94.2552 379.119 94.6055C379.19 93.2678 377.427 91.1296 376.209 90.7988ZM308.668 85.249C308.375 87.7722 309.463 86.6258 308.814 88.0117C307.084 88.3871 306.425 86.4923 304.986 86.748C304.107 89.09 305.225 90.8002 307.177 91.9697C308.253 92.4984 309.547 93.2892 310.679 93.1377C312.796 91.6525 310.514 87.9192 309.708 85.8936C309.346 85.618 309.097 85.395 308.668 85.249ZM270.678 89.7031C271.147 89.8069 272.952 90.1882 273.208 90.3564C273.007 90.5696 271.944 91.7616 271.709 91.9561C270.706 91.5399 269.946 91.3267 269.242 90.5234L269.529 90.0029L270.683 89.6914L270.678 89.7031ZM353.858 87.0361C353.718 88.2739 353.403 90.0279 353.712 91.1768C354.316 91.6717 353.999 91.5836 354.715 91.5684C354.945 90.3071 355.379 88.6907 354.999 87.5205C354.52 87.2641 354.385 87.1647 353.858 87.0361ZM415.192 87.7227C411.953 89.0309 412.267 88.6344 409.188 88.9736L409.197 90.0742C410.542 90.7772 412.78 89.7705 414.915 89.8389L415.192 87.7227ZM388.747 85.7256C387.178 87.264 384.669 86.866 384.026 88.5078C385.02 89.9764 386.35 89.3821 387.887 89.1543C389.115 88.9853 390.963 88.8361 391.761 87.8613C391.59 86.8959 391.594 87.1549 390.77 86.3164C390.117 86.1623 389.344 86.0178 388.747 85.7256ZM305.831 81.8389L305.875 82.2764C306.775 82.4202 307.052 82.3764 307.974 82.2686L309.017 82.2754L309.327 81.8438C309.045 80.9901 308.456 80.3166 307.616 79.9688L305.831 81.8389ZM295.49 78.1143C293.951 79.225 292.956 79.8447 292.281 81.6797L292.525 82.166C293.248 82.1267 293.061 82.2834 293.416 81.8945C294.302 81.2695 296.812 79.7181 297.132 78.8965C296.656 78.2207 296.363 78.1726 295.49 78.1143ZM330.363 77.6494C329.051 77.3625 329.456 77.2732 328.537 77.7764C327.831 79.2787 328.203 80.5045 329.561 81.5166C331.12 81.4336 330.9 79.4976 330.955 78.1768L330.363 77.6494ZM334.107 73.8721C332.657 73.7233 330.441 73.4597 329.857 75.1172C330.583 76.2102 330.962 76.5057 330.364 77.6494L330.956 78.1768C331.122 77.6403 331.378 77.204 331.638 76.707C332.592 76.1315 334.21 75.22 334.585 74.21L334.107 73.8721ZM303.203 74.5117C302.828 73.9464 302.056 73.7902 301.479 74.1416C301.092 74.3857 300.869 74.8207 300.894 75.2773C300.919 75.7334 301.188 76.1416 301.599 76.3418C302.005 76.5315 302.503 76.5 302.872 76.2432C303.417 75.8506 303.568 75.0761 303.203 74.5117ZM397.037 67.8193C396.346 68.7713 395.244 70.1037 395.015 71.2002C395.387 71.6934 395.205 71.6084 395.713 71.8242C396.599 70.9201 397.636 70.0474 398.034 68.875L397.953 68.2783C397.612 68.0846 397.408 67.9443 397.037 67.8193ZM372.098 66.9199C370.189 66.2828 366.882 65.8029 365.847 68.0078L366.261 68.3809C368.499 68.2556 370.172 67.4538 371.816 67.458L371.817 67.457C372.459 68.3082 373.093 68.9394 372.728 69.9551C372.2 70.0986 371.657 70.2567 371.132 70.4189C370.116 70.739 370.375 70.5131 369.997 71.2471C370.877 71.8147 372.071 70.7936 372.462 70.8584C373.902 71.101 376.111 71.4757 377.514 71.7139C379.091 71.1103 380.03 70.9732 380.688 69.5L380.249 69.1182C379.045 68.9435 377.844 69.8803 376.747 70.5459C375.188 69.3346 374.215 68.0019 372.461 67.0947L372.098 66.9199ZM345.713 66.8604C345.722 69.045 345.418 69.4465 344.09 71.1982L344.473 71.5029L345.669 71.0928C346.786 70.7384 347.636 70.6111 348.34 69.7188C348.617 68.0306 347.162 67.3732 345.713 66.8604ZM358.11 66.8535C357.228 66.5519 356.707 66.6656 355.786 66.7383L355.599 67.6387C356.182 68.521 356.69 68.6581 357.768 68.7305C358.121 67.7883 358.342 67.6903 358.11 66.8535ZM340.955 65.9775C340.533 65.7196 339.99 65.7172 339.557 65.958C338.915 66.3268 338.681 67.1396 339.03 67.7939C339.379 68.4422 340.183 68.7068 340.844 68.3818C341.287 68.1582 341.589 67.7066 341.61 67.2119C341.635 66.717 341.374 66.24 340.955 65.9775ZM383.864 56.2139C379.336 58.0567 379.321 54.0896 375.591 56.3477C375.461 56.4302 375.515 58.056 374.774 59.085C374.506 59.1426 373.938 59.2809 373.678 59.3027C373.577 59.3683 373.469 59.4313 373.379 59.4814C373.469 59.4313 373.576 59.3681 373.677 59.3027C373.506 58.4649 373.281 56.7474 372.742 56.2285C371.541 56.8169 368.797 58.4127 368.367 59.7119L368.741 60.1504C369.354 60.1612 369.738 60.2204 370.327 60.0703C370.337 60.0677 370.353 60.0634 370.359 60.0615C370.353 60.0634 370.338 60.0676 370.328 60.0703C371.042 60.0911 371.745 60.1535 372.453 60.2119C373.442 61.0253 373.24 61.1896 373.699 62.6543C373.954 62.4929 374.221 62.3257 374.476 62.1689C376.289 61.0564 376.319 61.4189 378.495 61.9404C379.519 61.428 379.558 60.8007 380.185 59.5654C382.39 58.9555 383.018 58.6226 384.796 57.1738C384.663 56.6528 384.414 56.6269 383.864 56.2139ZM370.736 59.9619C370.757 59.9571 370.787 59.9502 370.805 59.9463L371.013 59.9062C370.93 59.9204 370.829 59.941 370.736 59.9619ZM371.541 59.8467C371.64 59.8416 371.746 59.8386 371.833 59.8379L372.096 59.8369C371.93 59.8392 371.742 59.8366 371.541 59.8467Z" class="color-accent"/>
</svg>
