<svg viewBox="0 0 359 166" xmlns="http://www.w3.org/2000/svg">
<path class="color-main" d="M64.72 104.512C61.0933 104.512 58.1707 103.424 55.952 101.248C53.776 99.0293 52.688 96.1067 52.688 92.48V70.656C52.688 66.9867 53.776 64.0853 55.952 61.952C58.1707 59.776 61.0933 58.688 64.72 58.688C68.3893 58.688 71.3333 59.776 73.552 61.952C75.7707 64.0853 76.88 66.9867 76.88 70.656V71.424C76.88 71.6373 76.7947 71.8293 76.624 72C76.496 72.1707 76.3253 72.256 76.112 72.256L70.16 72.512C69.648 72.512 69.392 72.256 69.392 71.744V70.144C69.392 68.6507 68.9653 67.4347 68.112 66.496C67.2587 65.5573 66.128 65.088 64.72 65.088C63.3547 65.088 62.2453 65.5573 61.392 66.496C60.5387 67.4347 60.112 68.6507 60.112 70.144V93.056C60.112 94.5493 60.5387 95.7653 61.392 96.704C62.2453 97.6427 63.3547 98.112 64.72 98.112C66.128 98.112 67.2587 97.6427 68.112 96.704C68.9653 95.7653 69.392 94.5493 69.392 93.056V91.456C69.392 91.2427 69.456 91.072 69.584 90.944C69.7547 90.7733 69.9467 90.688 70.16 90.688L76.112 90.944C76.3253 90.944 76.496 91.0293 76.624 91.2C76.7947 91.328 76.88 91.4987 76.88 91.712V92.48C76.88 96.1067 75.7707 99.0293 73.552 101.248C71.3333 103.424 68.3893 104.512 64.72 104.512ZM100.382 104C99.87 104 99.5927 103.765 99.55 103.296L98.334 96.576C98.334 96.3627 98.206 96.256 97.95 96.256H88.606C88.35 96.256 88.222 96.3627 88.222 96.576L87.006 103.296C86.9633 103.765 86.686 104 86.174 104H80.35C79.7527 104 79.518 103.723 79.646 103.168L89.118 59.904C89.2033 59.4347 89.4807 59.2 89.95 59.2H96.734C97.2033 59.2 97.4807 59.4347 97.566 59.904L107.038 103.168V103.424C107.038 103.808 106.803 104 106.334 104H100.382ZM89.374 90.112C89.3313 90.3253 89.438 90.432 89.694 90.432H96.798C97.054 90.432 97.1607 90.3253 97.118 90.112L93.406 69.888C93.3633 69.76 93.2993 69.696 93.214 69.696C93.1287 69.696 93.0647 69.76 93.022 69.888L89.374 90.112ZM131.49 59.712C131.703 59.3707 132.023 59.2 132.45 59.2H138.338C138.551 59.2 138.722 59.2853 138.85 59.456C139.02 59.584 139.106 59.7547 139.106 59.968V103.232C139.106 103.445 139.02 103.637 138.85 103.808C138.722 103.936 138.551 104 138.338 104H132.45C132.236 104 132.044 103.936 131.874 103.808C131.746 103.637 131.682 103.445 131.682 103.232V73.024C131.682 72.8533 131.639 72.768 131.554 72.768C131.468 72.768 131.383 72.832 131.298 72.96L125.73 83.072C125.516 83.4133 125.324 83.584 125.154 83.584C124.983 83.584 124.791 83.4133 124.578 83.072L119.01 72.96C118.924 72.832 118.839 72.768 118.754 72.768C118.668 72.768 118.626 72.8533 118.626 73.024V103.232C118.626 103.445 118.54 103.637 118.37 103.808C118.242 103.936 118.071 104 117.858 104H111.97C111.756 104 111.564 103.936 111.394 103.808C111.266 103.637 111.202 103.445 111.202 103.232V59.968C111.202 59.7547 111.266 59.584 111.394 59.456C111.564 59.2853 111.756 59.2 111.97 59.2H117.858C118.284 59.2 118.604 59.3707 118.818 59.712L125.026 70.656C125.154 70.8267 125.282 70.8267 125.41 70.656L131.49 59.712ZM158.567 59.136C160.828 59.136 162.812 59.6907 164.519 60.8C166.268 61.9093 167.612 63.4667 168.551 65.472C169.532 67.4773 170.023 69.76 170.023 72.32C170.023 76.16 168.999 79.2533 166.951 81.6C164.946 83.9467 162.279 85.12 158.951 85.12H153.511C153.298 85.12 153.191 85.2267 153.191 85.44V103.232C153.191 103.445 153.106 103.637 152.935 103.808C152.807 103.936 152.636 104 152.423 104H146.535C146.322 104 146.13 103.936 145.959 103.808C145.831 103.637 145.767 103.445 145.767 103.232V59.904C145.767 59.6907 145.831 59.52 145.959 59.392C146.13 59.2213 146.322 59.136 146.535 59.136H158.567ZM157.351 79.296C158.93 79.296 160.188 78.6987 161.127 77.504C162.108 76.2667 162.599 74.6027 162.599 72.512C162.599 70.3787 162.108 68.6933 161.127 67.456C160.188 66.176 158.93 65.536 157.351 65.536H153.511C153.298 65.536 153.191 65.6427 153.191 65.856V78.976C153.191 79.1893 153.298 79.296 153.511 79.296H157.351ZM199.465 91.712C199.465 95.6373 198.313 98.6667 196.009 100.8C193.748 102.933 190.782 104 187.113 104H175.849C175.636 104 175.444 103.936 175.273 103.808C175.145 103.637 175.081 103.445 175.081 103.232V59.968C175.081 59.7547 175.145 59.584 175.273 59.456C175.444 59.2853 175.636 59.2 175.849 59.2H185.961C190.014 59.2 193.193 60.224 195.497 62.272C197.801 64.32 198.953 67.3067 198.953 71.232C198.953 75.6267 197.396 78.7627 194.281 80.64C194.068 80.768 194.025 80.896 194.153 81.024C195.817 82.0907 197.118 83.52 198.057 85.312C198.996 87.104 199.465 89.2373 199.465 91.712ZM182.825 65.6C182.612 65.6 182.505 65.7067 182.505 65.92V77.824C182.505 78.0373 182.612 78.144 182.825 78.144H186.089C187.838 78.144 189.204 77.6107 190.185 76.544C191.166 75.4773 191.657 73.9627 191.657 72C191.657 69.952 191.166 68.3733 190.185 67.264C189.204 66.1547 187.838 65.6 186.089 65.6H182.825ZM186.537 97.536C188.244 97.536 189.588 96.9387 190.569 95.744C191.55 94.5493 192.041 92.864 192.041 90.688C192.041 88.4693 191.55 86.7413 190.569 85.504C189.588 84.224 188.244 83.584 186.537 83.584H182.825C182.612 83.584 182.505 83.6907 182.505 83.904V97.216C182.505 97.4293 182.612 97.536 182.825 97.536H186.537ZM226.73 64.832C226.73 65.0453 226.644 65.2373 226.474 65.408C226.346 65.536 226.175 65.6 225.962 65.6H212.138C211.924 65.6 211.818 65.7067 211.818 65.92V78.016C211.818 78.2293 211.924 78.336 212.138 78.336H220.33C220.543 78.336 220.714 78.4213 220.842 78.592C221.012 78.72 221.098 78.8907 221.098 79.104V84.032C221.098 84.2453 221.012 84.4373 220.842 84.608C220.714 84.736 220.543 84.8 220.33 84.8H212.138C211.924 84.8 211.818 84.9067 211.818 85.12V97.28C211.818 97.4933 211.924 97.6 212.138 97.6H225.962C226.175 97.6 226.346 97.6853 226.474 97.856C226.644 97.984 226.73 98.1547 226.73 98.368V103.232C226.73 103.445 226.644 103.637 226.474 103.808C226.346 103.936 226.175 104 225.962 104H205.161C204.948 104 204.756 103.936 204.586 103.808C204.458 103.637 204.394 103.445 204.394 103.232V59.968C204.394 59.7547 204.458 59.584 204.586 59.456C204.756 59.2853 204.948 59.2 205.161 59.2H225.962C226.175 59.2 226.346 59.2853 226.474 59.456C226.644 59.584 226.73 59.7547 226.73 59.968V64.832ZM232.974 104C232.761 104 232.569 103.936 232.398 103.808C232.27 103.637 232.206 103.445 232.206 103.232V59.968C232.206 59.7547 232.27 59.584 232.398 59.456C232.569 59.2853 232.761 59.2 232.974 59.2H238.862C239.075 59.2 239.246 59.2853 239.374 59.456C239.545 59.584 239.63 59.7547 239.63 59.968V97.28C239.63 97.4933 239.737 97.6 239.95 97.6H253.774C253.987 97.6 254.158 97.6853 254.286 97.856C254.457 97.984 254.542 98.1547 254.542 98.368V103.232C254.542 103.445 254.457 103.637 254.286 103.808C254.158 103.936 253.987 104 253.774 104H232.974ZM259.536 104C259.323 104 259.131 103.936 258.961 103.808C258.833 103.637 258.769 103.445 258.769 103.232V59.968C258.769 59.7547 258.833 59.584 258.961 59.456C259.131 59.2853 259.323 59.2 259.536 59.2H265.425C265.638 59.2 265.809 59.2853 265.937 59.456C266.107 59.584 266.193 59.7547 266.193 59.968V97.28C266.193 97.4933 266.299 97.6 266.513 97.6H280.337C280.55 97.6 280.721 97.6853 280.849 97.856C281.019 97.984 281.105 98.1547 281.105 98.368V103.232C281.105 103.445 281.019 103.637 280.849 103.808C280.721 103.936 280.55 104 280.337 104H259.536ZM295.704 104.512C292.162 104.512 289.304 103.445 287.128 101.312C284.952 99.1787 283.864 96.384 283.864 92.928V91.264C283.864 91.0507 283.928 90.88 284.056 90.752C284.226 90.5813 284.418 90.496 284.632 90.496H290.456C290.669 90.496 290.84 90.5813 290.968 90.752C291.138 90.88 291.224 91.0507 291.224 91.264V92.544C291.224 94.208 291.629 95.552 292.44 96.576C293.293 97.6 294.381 98.112 295.704 98.112C297.026 98.112 298.114 97.6427 298.968 96.704C299.821 95.7227 300.248 94.4427 300.248 92.864C300.248 91.7547 300.013 90.7947 299.544 89.984C299.074 89.1733 298.413 88.4053 297.56 87.68C296.706 86.9547 295.341 85.9093 293.464 84.544C291.33 83.008 289.602 81.6427 288.28 80.448C287 79.2533 285.912 77.824 285.016 76.16C284.162 74.4533 283.736 72.4907 283.736 70.272C283.736 66.7307 284.802 63.9147 286.936 61.824C289.069 59.7333 291.885 58.688 295.384 58.688C298.925 58.688 301.784 59.7973 303.96 62.016C306.136 64.192 307.224 67.0933 307.224 70.72V72.256C307.224 72.4693 307.138 72.6613 306.968 72.832C306.84 72.96 306.669 73.024 306.456 73.024H300.696C300.482 73.024 300.29 72.96 300.12 72.832C299.992 72.6613 299.928 72.4693 299.928 72.256V70.592C299.928 68.928 299.501 67.6053 298.648 66.624C297.837 65.6 296.749 65.088 295.384 65.088C294.104 65.088 293.058 65.5573 292.248 66.496C291.437 67.392 291.032 68.6507 291.032 70.272C291.032 71.808 291.458 73.1093 292.312 74.176C293.208 75.2427 294.936 76.7147 297.496 78.592C300.098 80.512 302.061 82.0907 303.384 83.328C304.706 84.5227 305.73 85.8453 306.456 87.296C307.181 88.7467 307.544 90.4747 307.544 92.48C307.544 96.1067 306.456 99.0293 304.28 101.248C302.104 103.424 299.245 104.512 295.704 104.512Z" fill="white"/>
<path class="color-main" d="M287.616 117.16C287.552 117.192 287.552 117.224 287.616 117.256C288.629 117.779 289.136 118.648 289.136 119.864C289.136 120.899 288.784 121.683 288.08 122.216C287.376 122.739 286.453 123 285.312 123H281.168C281.115 123 281.067 122.984 281.024 122.952C280.992 122.909 280.976 122.861 280.976 122.808V111.992C280.976 111.939 280.992 111.896 281.024 111.864C281.067 111.821 281.115 111.8 281.168 111.8H285.184C287.712 111.8 288.976 112.824 288.976 114.872C288.976 115.939 288.523 116.701 287.616 117.16ZM283.312 113.736C283.259 113.736 283.232 113.763 283.232 113.816V116.312C283.232 116.365 283.259 116.392 283.312 116.392H285.184C285.685 116.392 286.075 116.275 286.352 116.04C286.629 115.805 286.768 115.485 286.768 115.08C286.768 114.664 286.629 114.339 286.352 114.104C286.075 113.859 285.685 113.736 285.184 113.736H283.312ZM285.312 121.048C285.803 121.048 286.187 120.925 286.464 120.68C286.741 120.424 286.88 120.077 286.88 119.64C286.88 119.203 286.741 118.861 286.464 118.616C286.187 118.36 285.797 118.232 285.296 118.232H283.312C283.259 118.232 283.232 118.259 283.232 118.312V120.968C283.232 121.021 283.259 121.048 283.312 121.048H285.312ZM297.409 123C297.302 123 297.233 122.947 297.201 122.84L296.721 121.272C296.699 121.229 296.673 121.208 296.641 121.208H292.705C292.673 121.208 292.646 121.229 292.625 121.272L292.161 122.84C292.129 122.947 292.059 123 291.953 123H289.921C289.857 123 289.809 122.984 289.777 122.952C289.745 122.909 289.739 122.851 289.761 122.776L293.217 111.96C293.249 111.853 293.318 111.8 293.424 111.8H295.937C296.043 111.8 296.113 111.853 296.145 111.96L299.601 122.776C299.611 122.797 299.617 122.824 299.617 122.856C299.617 122.952 299.558 123 299.441 123H297.409ZM293.201 119.368C293.19 119.432 293.211 119.464 293.265 119.464H296.081C296.145 119.464 296.166 119.432 296.145 119.368L294.705 114.616C294.694 114.573 294.678 114.557 294.657 114.568C294.635 114.568 294.619 114.584 294.609 114.616L293.201 119.368ZM307.167 123C307.06 123 306.986 122.952 306.943 122.856L304.943 118.424C304.922 118.381 304.89 118.36 304.847 118.36H303.359C303.306 118.36 303.279 118.387 303.279 118.44V122.808C303.279 122.861 303.258 122.909 303.215 122.952C303.183 122.984 303.14 123 303.087 123H301.215C301.162 123 301.114 122.984 301.071 122.952C301.039 122.909 301.023 122.861 301.023 122.808V111.992C301.023 111.939 301.039 111.896 301.071 111.864C301.114 111.821 301.162 111.8 301.215 111.8H305.791C306.474 111.8 307.071 111.939 307.583 112.216C308.106 112.493 308.506 112.888 308.783 113.4C309.071 113.912 309.215 114.504 309.215 115.176C309.215 115.901 309.034 116.525 308.671 117.048C308.308 117.56 307.802 117.923 307.151 118.136C307.098 118.157 307.082 118.195 307.103 118.248L309.279 122.776C309.3 122.819 309.311 122.851 309.311 122.872C309.311 122.957 309.252 123 309.135 123H307.167ZM303.359 113.736C303.306 113.736 303.279 113.763 303.279 113.816V116.552C303.279 116.605 303.306 116.632 303.359 116.632H305.455C305.903 116.632 306.266 116.499 306.543 116.232C306.831 115.965 306.975 115.619 306.975 115.192C306.975 114.765 306.831 114.419 306.543 114.152C306.266 113.875 305.903 113.736 305.455 113.736H303.359Z" fill="white"/>
<rect class="color-main" x="40" y="47" width="279" height="2"/>
<rect class="color-main" x="312" y="117" width="7" height="2"/>
<path class="color-main" d="M40 117H278V119H40V117Z"/>
</svg>
