<svg viewBox="0 0 680 547" xmlns="http://www.w3.org/2000/svg">
<path class="color-accent" d="M112.713 186.375C119.231 186.393 125.043 186.746 131.441 188.249C150.839 192.762 167.637 204.854 178.097 221.838C188.566 238.758 191.869 259.165 187.27 278.533C181.838 301.428 168.78 315.61 149.381 327.498C149.436 333.883 151.232 354.257 147.22 358.565C145.872 360.013 144.044 360.701 142.1 360.785C139.901 360.88 137.756 360.456 136.172 358.816C132.215 354.719 133.894 339.521 133.806 333.654C128.088 335.058 123.832 335.495 118.031 336.03C110.133 336.135 105.095 335.583 97.3567 334.211C97.4342 338.553 98.6574 355.975 94.9524 358.368C76.6199 370.195 80.828 337.267 80.7512 327.932C74.3237 324.229 70.3678 321.711 64.7854 316.722C50.0548 303.383 41.1816 284.749 40.0999 264.882C39.0818 245.219 45.881 225.953 59.0071 211.305C73.4318 195.301 91.379 187.418 112.713 186.375ZM87.9797 286.225C86.4071 287.726 85.2726 288.584 85.4856 290.902C86.2148 298.844 83.9444 351.482 86.4036 355.142C87.8293 356.299 88.6297 356.414 90.4817 356.153C92.9629 353.817 93.0034 353.649 92.9876 350.032C92.9 330.106 93.1903 310.111 92.718 290.198C92.653 287.466 90.5573 286.273 87.9797 286.225ZM138.46 292.747C138.455 300.657 137.833 352.63 139.101 355.607C140.72 356.373 142.629 356.379 144.323 355.877C145.448 352.934 144.671 301.189 144.696 292.725L138.46 292.747ZM127.757 192.054C121.182 190.763 114.451 190.461 107.787 191.155C87.947 193.746 71.5366 202.083 59.1497 218.113C47.6253 233.034 42.5826 251.977 45.1594 270.668C47.749 289.249 57.5925 306.039 72.5276 317.35C75.0957 319.317 77.8052 321.093 80.6331 322.663L80.6077 289.663C75.79 287.276 71.3343 283.58 69.8274 278.332C67.8112 271.309 68.3279 254.063 69.0012 246.817L69.4758 246.063C71.4669 245.846 70.8051 245.637 72.3469 246.523C74.0585 249.318 73.1925 254.852 73.3069 258.151C73.7172 269.991 70.2433 278.223 81.7981 285.406C83.4659 283.992 85.1932 282.476 86.9192 281.154C86.8812 276.031 86.2615 250.674 87.5168 247.576C88.8472 247.154 88.7869 247.112 90.1116 247.445C92.2076 250.841 91.2804 275.137 91.2356 281.069C92.9265 282.403 94.8987 284.043 96.6194 285.275C102.15 281.728 101.986 281.607 104.358 275.802C106.45 270.676 103.318 248.889 105.75 246.287C107.255 246.404 107.898 246.33 109.201 247.011C110.084 251.156 110.251 277.746 106.989 281.622C105.27 283.663 103.981 285.563 101.632 287.352C100.264 288.161 98.8579 289.02 97.4788 289.798C97.5754 303.071 97.585 316.345 97.5071 329.618C111.351 332.128 119.919 332.402 133.733 329.022C133.62 316.221 133.583 303.42 133.619 290.618C126.581 283.852 123.089 277.618 122.85 267.355C122.672 259.721 125.006 250.552 130.477 244.779C146.639 230.122 161.974 251.141 160.569 267.385C159.662 277.863 157.437 283.425 150.201 290.095L149.758 290.498C149.61 299.93 149.242 313.022 149.763 322.222C167.093 310.7 179.098 296.653 183.325 275.647C187.148 256.964 183.314 237.523 172.685 221.702C162.202 206.262 146.051 195.604 127.757 192.054ZM144.065 287.79C162.435 280.468 158.919 243.283 139.489 244.533C121.36 251.147 123.744 289.656 144.065 287.79ZM140.615 247.821C141.59 247.986 141.489 248.066 142.386 248.642C143.676 253.094 136.184 252.929 134.674 261.61C133.728 267.055 133.895 272.061 136.769 277.547C137.3 278.56 139.447 280.457 140.629 282.354C140.821 283.954 140.135 284.658 139.257 286.065C126.547 278.361 125.598 254.226 140.615 247.821Z"/>
<path class="color-main" d="M340.11 40C360.833 46.844 384.065 55.8865 404.766 63.3803L549.115 115.639C572.356 124.05 596.977 133.535 620.28 141.396L620.073 141.931L448.255 89.3472C412.389 78.361 375.835 67.533 340.159 56.1251L126.906 121.492L81.4022 135.388C77.5434 136.569 63.5134 141.274 60.5098 141.352L238.061 76.8542C270.993 64.9344 307.146 50.9982 340.11 40Z"/>
<path class="color-main" d="M340.109 490.429L522.989 413.998L584.511 388.341C594.12 384.34 606.938 378.426 616.413 375.281L616.096 375.578L616.332 375.522C602.691 382.809 585.444 390.488 571.255 397.206L492.438 434.508L392.867 481.647C375.831 489.716 357.171 499.024 340.075 506.529C311.348 494.734 279.487 479.68 250.797 466.896L68.9941 385.872L69.3438 385C91.4806 393.224 114.194 402.397 136.254 410.989L265.704 461.454L314.867 480.62C322.632 483.652 332.356 487.754 340.109 490.429Z"/>
<path class="color-main" d="M255.429 278.985C274.782 278.422 284.92 296.715 271.718 311.829C281.057 319.158 283.659 329.687 277.771 340.229C277.158 340.939 276.523 341.63 275.865 342.3C266.298 351.92 235.397 349.017 221.63 348.967L221.621 279.071C232.78 278.855 244.354 279.308 255.429 278.985ZM269.753 332.186C276.691 315.996 250.351 317.465 241.383 318.4C237.743 318.922 235.089 319.481 231.664 320.923L231.678 338.637C240.221 338.666 253.002 339.059 261.194 338.418C264.794 337.297 268.114 336.009 269.753 332.186ZM263.304 306.409C273.387 297.373 264.552 287.656 252.597 289.223C248.027 289.821 236.673 289.357 231.688 289.348L231.651 310.454C244.926 305.301 255.156 309.913 263.304 306.409Z"/>
<path class="color-main" d="M221.663 199.601C232.107 199.683 248.24 198.648 258.229 200.154C271.636 202.176 276.097 217.959 266.546 228.875C274.74 235.273 277.323 245.477 271.82 254.566C271.336 255.122 270.831 255.659 270.309 256.179C263.882 262.524 254.064 262.122 245.708 262.097C237.673 262.072 229.637 262.056 221.602 262.021L221.663 199.601ZM259.196 235.547C253.101 234.276 244.514 234.478 238.203 234.965C234.894 235.545 233.795 235.832 230.662 237.033L230.641 253.107C237.516 253.133 252.116 253.543 258.341 252.479C260.337 251.566 262.355 250.737 263.805 249.045C267.751 244.437 265.204 236.799 259.196 235.547ZM262.604 216.807C263.24 205.362 239.028 208.724 230.656 208.801L230.681 227.789C241.787 222.817 251.07 227.653 259.107 224.095C261.47 221.785 262.407 220.346 262.604 216.807Z"/>
<path class="color-main" d="M485.074 199.615C492.991 199.684 517.025 198.911 523.744 200.497C527.39 201.367 530.815 202.975 533.816 205.222C549.573 216.917 549.091 237.977 537.817 252.737C537.135 253.468 536.437 254.185 535.726 254.886C525.755 264.742 507.949 262.107 493.751 262.022L493.775 228.446C493.775 222.835 494.006 214.556 493.554 209.225C492.457 208.614 490.143 208.733 488.772 208.698C487.488 205.692 486.253 202.664 485.074 199.615ZM528.8 212.646C522.817 207.614 510.552 208.724 502.832 208.784L502.809 253.115C513.847 253.179 523.091 254.763 531.282 246.709C539.045 236.502 539.198 221.393 528.8 212.646Z"/>
<path class="color-main" d="M578.285 278.984C590.021 279.247 616.282 277.093 625.665 281.297C630.148 283.305 633.9 286.798 635.655 291.452C637.608 296.635 637.296 303.605 635.026 308.638C632.241 314.824 626.868 317.38 620.87 319.688C624.352 327.078 626.661 333.621 633.409 338.407C635.487 338.512 637.887 338.491 639.993 338.524L639.998 348.939C635.569 348.911 632.63 348.85 628.383 347.598C618.412 343.19 614.661 330.163 609.832 319.993C601.55 319.938 596.1 319.318 588.429 322.523L588.549 348.91L578.227 348.964C578.212 325.706 578.03 302.224 578.285 278.984ZM614.323 289.192C605.748 289.199 597.1 289.26 588.486 289.27C588.481 296.786 588.366 304.702 588.515 312.185C601.208 307.136 614.737 312.285 622.707 307.868C625.545 305.216 626.502 303.84 626.815 299.785C627.416 292.023 621.038 289.186 614.323 289.192Z"/>
<path class="color-main" d="M289.856 199.57C299.663 199.795 326.401 197.815 333.373 202.135C347.509 210.892 344.895 230.782 327.83 235.797C331.145 242.903 332.73 247.576 338.787 252.614C340.802 252.828 342.887 252.871 344.917 252.951C345.034 255.868 344.957 259.159 344.955 262.106C340.982 261.969 338.886 261.905 334.909 261.131C326.15 257.557 321.976 245.034 318.119 236.252C310.502 236.105 305.853 235.541 298.797 238.635L298.815 262.114L289.814 262.093L289.856 199.57ZM331.208 211.759C325.105 206.694 306.437 208.837 298.894 208.72C298.817 215.591 298.807 222.464 298.865 229.336C310.813 224.545 321.351 229.377 329.574 225.392C333.334 221.867 334.975 214.885 331.208 211.759Z"/>
<path class="color-main" d="M555.349 278.957C556.427 278.825 556.35 278.824 557.341 279.284C558.274 281.582 557.841 286.613 557.754 289.356L518.829 289.348L518.868 310.312C528.53 306.693 536.962 307.629 547.255 307.67L547.303 318.193C536.779 318.146 528.824 317.098 518.848 320.678L518.853 338.602C528.699 338.79 538.977 338.653 548.861 338.663L562.054 338.561L562.04 348.955L508.748 348.937L508.777 279.031C524.298 279.102 539.824 279.078 555.349 278.957Z"/>
<path class="color-main" d="M448.327 198.472C455.715 211.912 461.65 227.406 468.667 241.155C472.01 247.699 475.612 255.502 478.436 262.269C474.756 262.035 472.048 262.071 468.407 262.171C467.032 259.153 465.676 256.124 464.344 253.088L453.401 253.097C442.156 253.02 431.282 251.435 424.558 262.038L414.885 262.023L441.916 206.134C440.824 203.791 439.328 200.859 438.712 198.42L448.327 198.472ZM432.82 246.865C437.178 244.952 439.015 244.428 443.753 243.972L460.043 243.729C458.057 239.779 448.255 219.773 446.287 217.787L432.82 246.865Z"/>
<path class="color-main" d="M602.518 197.866C603.389 197.801 604.264 197.765 605.144 197.759C615.317 197.699 620.132 200.307 627.135 207.217C625.172 209.395 623.258 211.615 621.392 213.874C617.303 209.667 615.033 208.168 608.535 206.995C600.027 205.335 588.185 213.381 594.371 222.477C596.929 226.241 607.29 225.348 611.152 225.308L610.623 234.454C604.995 234.369 596.92 233.815 592.678 237.674C583.828 245.735 592.918 254.958 602.408 254.408C611.479 253.882 617.231 251.019 623.373 244.824L624.196 234.486C622.306 234.525 620.194 234.769 618.506 234.087C617.515 232.479 617.905 232.076 618.01 229.916C618.155 228.467 618.121 226.505 619.016 225.496C623.272 224.928 635.119 225.303 639.933 225.339C639.601 228.145 639.491 231.529 639.327 234.393L633.022 234.388C632.348 243.596 631.733 252.808 631.17 262.025L622.291 262.071C622.474 259.607 622.536 256.904 622.642 254.416C595.64 276.995 564.445 250.379 588.95 228.169C581.962 221.916 581.938 214.643 586.988 206.787C590.624 201.134 596.078 198.999 602.518 197.866Z"/>
<path class="color-main" d="M349.33 278.953C352.411 279.078 356.137 279.018 359.265 279.044C358.975 294.174 360.579 316.741 358.017 331.125C353.365 357.242 300.552 357.428 297.466 328.561C296.407 318.654 296.681 309.275 296.722 299.204L296.718 279.004L306.747 278.997L306.745 306.433C306.705 314.676 305.403 327.855 311.071 334.223C318.181 342.209 336.102 342.202 343.991 335.198C350.613 329.318 348.975 319.237 349.184 311.296C349.447 300.689 348.531 289.507 349.33 278.953Z"/>
<path class="color-main" d="M360.048 199.598L403.972 199.637L404.024 208.759C392.505 208.906 380.736 208.782 369.198 208.781C369.145 214.935 369.213 221.164 369.229 227.324C376.994 224.614 386.368 225.257 394.665 225.285L394.694 234.586C389.903 234.674 371.467 233.544 369.192 237.712L369.218 253.115L407.689 253.068V262.166C393.837 261.445 374.315 262.043 360.039 262.075L360.048 199.598Z"/>
<path class="color-main" d="M371.584 278.999L430.753 278.98V289.356L406.262 289.341V324.27L406.257 348.983L396.267 348.955L396.291 289.349L371.555 289.374L371.584 278.999Z"/>
<path class="color-main" d="M436.481 279.037C455.45 278.556 476.58 279.04 495.732 279.05L495.688 289.348L471.154 289.354L471.173 324.752L471.169 348.999L461.227 348.943C461.612 329.388 461.328 308.98 461.328 289.361L436.375 289.321L436.481 279.037Z"/>
<path class="color-main" d="M231.373 372.357C236.868 372.472 240.897 375.215 242.066 380.672C243.988 389.645 243.221 400.394 233.098 403.213C227.473 403.074 223.169 400.615 221.959 394.922C219.982 385.625 220.852 374.964 231.373 372.357ZM230.801 377.332C227.323 381.852 225.453 398.045 233.025 398.272C236.922 393.853 238.632 377.657 230.801 377.332Z"/>
<path class="color-main" d="M354.151 372.314C357.149 372.459 363.131 373.752 364.031 377.154C365.044 380.986 362.444 383.918 360.623 386.949C367.534 395.022 367.768 400.358 356.339 403.146C351.718 403.087 345.066 401.598 343.992 395.716C343.208 391.42 346.923 389.704 349.013 386.848C343.5 378.936 343.178 374.585 354.151 372.314ZM358.946 393.04C358.398 390.799 356.194 389.379 353.931 389.812C352.36 390.112 351.083 391.257 350.61 392.788C350.136 394.319 350.544 395.987 351.669 397.125C352.795 398.264 354.456 398.686 355.988 398.225C358.193 397.56 359.493 395.282 358.946 393.04ZM358.359 380.098C357.915 378.144 355.97 376.926 354.024 377.381C352.094 377.833 350.89 379.762 351.33 381.699C351.769 383.636 353.687 384.855 355.623 384.426C357.574 383.993 358.802 382.051 358.359 380.098Z"/>
<path class="color-main" d="M304.511 372.32C314.827 372.635 317.844 377.78 311.902 386.313C310.795 387.905 325.208 398.992 306.831 403.19C306.029 403.184 305.229 403.151 304.43 403.09C294.721 402.279 291.258 393.326 300.362 386.978C292.609 380.949 295.93 374.6 304.511 372.32ZM309.709 392.948C309.119 390.743 306.922 389.375 304.688 389.823C303.108 390.14 301.836 391.311 301.386 392.86C300.936 394.411 301.384 396.082 302.547 397.198C303.71 398.315 305.396 398.69 306.922 398.172C309.08 397.44 310.3 395.154 309.709 392.948ZM309.123 380.055C308.654 378.11 306.693 376.92 304.756 377.405C302.839 377.886 301.669 379.826 302.133 381.75C302.598 383.674 304.524 384.863 306.447 384.412C308.391 383.956 309.593 382 309.123 380.055Z"/>
<path class="color-main" d="M371.33 372.903C374.411 372.887 384.805 372.216 386.897 373.439C387.291 375.535 387.166 376.395 385.781 377.978C383.896 378.834 378.879 378.344 376.446 378.323L375.941 384.081C380.433 384.092 384.247 384.26 387.07 388.313C390.783 393.654 387.652 398.836 382.992 401.898C378.148 403.865 374.647 403.189 369.725 401.966C369.708 400.14 369.774 398.801 369.898 396.998C372.857 396.711 381.366 400.618 381.775 393.168C379.832 388.234 374.3 389.163 370.121 389.544C370.685 384.144 370.971 378.349 371.33 372.903Z"/>
<path class="color-main" d="M273.582 372.854L289.262 372.883L289.245 378.321C285.72 378.355 282.052 378.25 278.515 378.2C278.341 380.145 278.074 381.859 278.513 383.774C279.516 384.53 282.199 384.172 283.498 384.452C293.033 386.515 292.345 396.867 285.615 401.717C282.392 402.964 274.512 404.348 272.104 401.366C272.001 399.741 271.743 398.341 272.294 396.847C275.879 397.908 280.74 398.489 283.79 395.905C284.162 395.057 284.436 394.933 284.285 394.023C283.276 387.933 276.836 389.11 272.454 389.549C272.702 384.105 273.204 378.318 273.582 372.854Z"/>
<path class="color-main" d="M401.924 372.385C402.501 372.386 403.083 372.406 403.66 372.445C408.195 372.729 413.174 375.846 412.231 380.971C411.615 384.33 410.076 385.084 407.479 386.973C409.908 388.603 412.5 390.414 413.154 393.455C413.496 395.035 413.207 396.687 412.346 398.056C409.167 403.029 399.701 405.046 394.805 401.65C393.906 400.22 394.189 398.353 394.214 396.552C397.191 396.317 402.602 401.042 406.065 395.763C406.974 394.379 406.964 394.597 406.796 392.987C404.857 390.546 400.649 390.107 397.523 389.449C396.666 387.524 396.647 388.169 396.849 386.289C398.913 384.086 408.898 385.025 404.434 378.407C400.683 376.116 399.884 378.363 395.681 378.725L395.286 377.979C395.243 376.14 395.099 375.515 395.825 373.842C397.835 372.908 399.735 372.731 401.924 372.385Z"/>
<path class="color-main" d="M467.389 372.833C471.198 372.913 485.704 372.031 487.85 373.824C487.782 377.744 482.602 386.9 481.058 391.61C479.548 396.204 479.106 397.605 478.182 402.611L471.295 402.622C473.661 392.148 475.7 387.4 481.029 378.346C476.263 378.145 471.275 379.462 468.014 377.687C466.908 375.731 467.331 375.451 467.389 372.833Z"/>
<path class="color-main" d="M319.686 372.867C323.087 372.894 338.28 372.052 340.188 373.835C340.096 377.766 334.941 386.89 333.417 391.518C331.96 395.944 331.464 397.827 330.511 402.592L323.623 402.622C326.117 391.675 327.957 388.043 333.277 378.251C328.741 378.223 323.668 379.474 320.352 377.67C319.224 375.735 319.647 375.484 319.686 372.867Z"/>
<path class="color-main" d="M246.168 372.907C249.315 372.903 265.02 372.103 266.487 373.813C266.724 376.782 265.272 379.531 263.933 382.126C260.399 388.981 258.461 395.082 257.012 402.626L250.078 402.621C252.67 391.806 254.275 388.019 259.796 378.34C255.325 378.204 249.956 379.433 246.803 377.604C245.714 375.771 246.125 375.333 246.168 372.907Z"/>
<path class="color-main" d="M453.633 372.29C455.311 372.162 455.893 371.954 457.327 372.67C457.976 375.197 457.649 398.233 457.63 402.61C455.672 402.718 453.825 402.973 451.954 402.472C450.776 401.269 451.156 401.588 451.064 399.347L451.05 379.977C449.314 380.811 447.736 381.741 445.851 381.984L445.019 381.323C444.629 379.482 444.716 379.003 444.874 377.11C445.644 376.319 451.747 373.417 453.633 372.29Z"/>
<path class="color-main" d="M429.502 372.222C431.151 372.257 431.849 371.982 433.018 372.811C433.73 379.211 433.244 395.503 433.22 402.625C431.31 402.715 429.516 402.953 427.698 402.444C426.525 401.002 426.89 401.025 426.842 398.865C426.861 392.535 426.828 386.204 426.741 379.875C424.88 380.834 422.47 381.712 420.488 382.495L420.426 376.686C424.461 375.126 425.832 374.395 429.502 372.222Z"/>
</svg>
