<svg viewBox="0 0 680 142" xmlns="http://www.w3.org/2000/svg">
<path class="color-main" d="M640 68.5449C636.564 71.0543 632.972 73.9926 629.556 76.3887L636.421 81.9883C637.29 82.6931 638.612 83.8307 639.6 84.5781L640 84.8721V100.405C633.461 95.9064 626.255 90.4753 619.81 85.7402V100.422H606.309V53.9609L619.434 53.96L619.436 67.6348C626.248 62.6561 633.271 57.6409 640 52.5742V68.5449Z"/>
<path class="color-main" d="M520.479 53.9611L533.61 53.9609L533.601 75.9941C533.601 79.3734 533.511 82.9408 533.711 86.3084C533.823 88.1977 535.772 89.5788 537.562 88.9532C538.684 88.6224 539.307 88.0306 539.347 86.7968C539.455 83.3065 539.37 79.7919 539.37 76.2944L539.379 53.9609H552.514L552.518 76.9942C552.518 80.2266 552.746 87.4795 552.111 90.3235C551.56 92.8486 550.296 95.1626 548.47 96.9909C544.876 100.589 541.447 101.215 536.817 101.962H536.487C531.495 101.399 526.892 99.5506 523.679 95.5211C522.177 93.6346 521.172 91.403 520.755 89.029C520.288 86.4254 520.471 79.7132 520.472 76.6737L520.479 53.9611Z"/>
<path class="color-main" d="M272.211 101.963C270.447 101.69 269.035 101.552 267.285 101.095C261.797 99.624 256.978 96.3204 253.626 91.7323C249.693 86.3647 248.064 79.6491 249.103 73.0764C250.13 66.5146 253.724 60.6312 259.096 56.7256C264.465 52.83 271.156 51.2202 277.708 52.2487C284.3 53.318 290.193 56.9726 294.081 62.4024C294.258 62.6455 294.428 62.8935 294.591 63.1462L284.149 70.43C282.087 67.4654 279.567 65.531 275.942 64.8775C272.743 64.3028 269.447 65.0287 266.784 66.894C264.074 68.7825 262.234 71.6767 261.671 74.9312C261.135 78.1128 261.887 81.3768 263.76 84.0037C265.581 86.5923 268.437 88.4899 271.568 89.0296C274.789 89.6167 278.111 88.8848 280.787 86.9985C282.286 85.9387 283.127 84.9271 284.167 83.4517L294.613 90.755C290.354 96.7906 285.125 100.32 277.758 101.63C277.128 101.741 275.807 101.845 275.353 101.963H272.211Z"/>
<path class="color-main" d="M579.121 101.963C577.335 101.693 575.95 101.549 574.185 101.085C568.737 99.6217 563.948 96.3517 560.603 91.811C556.647 86.4342 555 79.7025 556.023 73.1069C557.039 66.566 560.605 60.6945 565.942 56.7788C571.319 52.8425 578.049 51.2189 584.629 52.2693C591.111 53.2938 596.925 56.8352 600.808 62.1233C601.048 62.452 601.283 62.7857 601.508 63.1245L591.076 70.4237C588.977 67.442 586.459 65.4995 582.785 64.863C579.591 64.3118 576.309 65.0543 573.662 66.9268C570.991 68.8052 569.173 71.6665 568.609 74.8827C568.054 78.0954 568.812 81.3966 570.713 84.045C572.531 86.6121 575.392 88.5027 578.503 89.0328C581.724 89.6126 585.042 88.8787 587.717 86.9949C589.145 85.979 590.112 84.8696 591.099 83.4454C594.496 85.8211 598.226 88.319 601.541 90.7557C597.128 96.8967 592.044 100.36 584.453 101.667C583.872 101.767 582.689 101.849 582.252 101.963H579.121Z"/>
<path class="color-main" d="M40 53.9609L70.3337 53.9613L70.3333 66.7001H61.596V100.422H48.0988V66.9393H40V53.9609Z"/>
<path class="color-main" d="M240.471 40H242.51C243.247 40.1756 244.067 40.4221 244.735 40.7781C246.399 41.6454 247.646 43.1434 248.195 44.9368C248.738 46.7395 248.548 48.6837 247.666 50.3467C246.548 52.4135 244.943 53.3157 242.784 53.9532L242.785 100.423H230.293V53.9618L240.002 53.9542C239.341 53.7163 238.648 53.4729 238.041 53.1209C236.404 52.1902 235.208 50.6461 234.714 48.8303C234.232 47.0105 234.491 45.0742 235.433 43.4442C236.628 41.4064 238.282 40.5691 240.471 40Z"/>
<path class="color-main" d="M487.51 54.333C490 54.332 492.513 54.2825 495.002 54.3594C515.532 54.9933 524.617 79.0951 510.315 93.6191L510.265 93.6699C503.28 100.615 495.928 100.306 487.136 100.305L474.777 100.295V54.3408L487.51 54.333ZM487.531 67.4492L487.519 86.8701C491.991 86.8933 495.969 87.242 499.662 84.1416C501.442 82.391 502.294 80.5267 502.287 78.0137C502.27 71.9228 498.654 67.4403 492.423 67.4209L487.531 67.4492Z"/>
<path class="color-main" d="M414.147 53.9534C422.255 53.94 428.33 54.366 434.791 60.3606C439.287 64.5127 441.938 70.2876 442.159 76.4026C442.411 83.1288 439.924 88.5927 435.433 93.4378C428.933 99.8263 422.876 100.429 414.446 100.43L405.344 100.421L405.354 53.9603L414.147 53.9534ZM418.086 67.3772V88.2112C421.563 88.2502 423.663 88.2771 426.071 85.3558C428.151 82.641 429.105 79.7603 428.676 76.3128C428.333 73.5476 426.773 70.63 424.53 68.9495C422.204 67.2074 420.821 67.3707 418.086 67.3772Z"/>
<path class="color-main" d="M75.196 53.9609H88.17V70.2133L95.0512 70.2136V53.9609H107.74L107.745 88.2979L107.745 96.9018C107.745 97.6212 107.843 99.9049 107.548 100.422H94.8066V83.7629L87.9253 83.7628V100.422H75.1934L75.196 53.9609Z"/>
<path class="color-main" d="M333.108 52.7207C333.454 53.0712 333.312 67.0079 333.31 68.5008C329.838 70.9953 326.277 73.8246 322.813 76.3956C326.05 79.1675 329.954 82.2462 333.31 84.9123V100.448C326.671 95.8364 319.621 90.5337 313.062 85.7387V100.424H311.216H299.582V53.9627L312.719 53.9621V67.6117C314.963 66.0767 317.453 64.1603 319.669 62.5402L333.108 52.7207Z"/>
<path class="color-main" d="M112.657 53.9609L138.056 53.9615L138.055 66.9398L125.361 66.9399V70.631L138.055 70.6319V83.5397L125.361 83.5403C125.349 84.35 125.216 86.9934 125.554 87.494L138.055 87.4942V100.423H112.645L112.657 53.9609Z"/>
<path class="color-main" d="M374.256 53.9609H399.639V66.9393H386.964V70.6312H399.639V83.5389L386.964 83.5391C386.952 84.3559 386.814 86.9949 387.166 87.4934H399.639V100.422H374.246L374.256 53.9609Z"/>
<path class="color-main" d="M338.191 53.9609H350.881V87.1079H369.297V100.422H338.191V53.9609Z"/>
<path class="color-main" d="M187.383 53.1364L199.008 53.1286C207.198 53.1242 214.024 52.7667 220.557 58.5935C229.749 66.792 224.448 78.3462 213.885 81.6484C209.167 83.1238 205.537 83.1207 200.751 83.3327V100.332L187.36 100.332L187.376 82.9857C185.397 82.8616 179.474 81.2961 177.963 80.1938L178.314 80.1822C184.14 81.3595 189.907 81.9752 196.112 81.6056C202.402 81.0442 210.577 80.1288 215.674 76.1774C217.505 74.7587 216.05 73.4905 215.341 72.5381C213.595 70.1958 206.511 70.3871 205.597 69.5831C205.428 69.1679 205.439 68.9886 205.541 68.5546C206.284 65.4261 211.171 65.9927 213.353 66.9115C215.164 67.6739 216.837 68.0475 218.518 66.6924C218.902 66.3836 218.997 66.4228 219.131 65.9402C218.495 65.1612 215.394 64.9425 214.326 64.618C213.45 64.352 212.63 63.9783 211.874 63.459C209.527 61.8468 209.748 59.6841 208.068 57.9951C207.15 57.0724 205.894 56.7702 204.63 56.7691C203.142 56.7677 201.541 57.1285 200.156 57.6598C193.31 60.2864 197.359 66.244 194.612 68.9454C193.226 70.3091 189.355 69.7795 187.497 69.7606C187.292 68.0966 187.363 65.2858 187.36 63.5264C187.349 60.0631 187.358 56.5997 187.383 53.1364Z"/>
<path class="color-main" d="M204.595 60.5899C204.986 60.4365 205.429 60.5065 205.754 60.7727C206.079 61.039 206.234 61.46 206.161 61.8737C206.088 62.2872 205.798 62.6289 205.401 62.7672C204.803 62.9754 204.148 62.667 203.93 62.0738C203.71 61.4805 204.006 60.8206 204.595 60.5899Z"/>
</svg>
