<svg viewBox="0 0 680 680" xmlns="http://www.w3.org/2000/svg">
<path d="M124.079 276.938C124.689 277.729 124.432 277.316 124.374 278.708C124.469 278.889 124.564 279.071 124.659 279.252C131.557 280.065 139.803 280.61 144.674 286.267C146.328 288.188 146.799 289.351 147.525 290.8C162.845 300.689 163.486 317.994 162.721 334.688C162.544 338.546 162.71 340.322 159.786 343.147C159.589 343.338 159.332 348.762 158.643 349.387C156.291 353.862 152.795 356.628 151.203 361.393L151.039 361.891C134.738 370.138 126.207 377.241 107.066 372.759L106.739 373.329L106.028 373.86C103.841 374.099 100.563 371.012 95.1112 371.573C88.6625 368.05 82.8528 361.987 76.4871 358.022C75.8291 357.614 72.8283 351.58 72.3123 350.496C72.1477 350.147 72.1506 348.6 72.1639 348.075C66.0379 343.085 67.3474 339.213 66.8377 332.387C65.2944 311.716 70.5434 293.452 91.0057 285.308C96.9894 274.31 116.905 284.488 123.363 276.854L124.079 276.938ZM110.286 288.961C107.454 289.518 105.842 289.648 103.312 289.787C102.512 289.831 97.2598 293.933 96.1053 294.464C94.7513 295.087 93.0095 294.756 92.0008 295.499C91.7843 296.328 91.5497 297.859 90.7655 298.054C84.0058 299.73 87.995 303.317 83.4901 306.434C80.6287 313.128 79.8539 331.391 82.4324 338.835C82.8869 340.147 85.1427 342.972 85.5633 344.513L84.5867 345.479C84.9357 347.122 93.1324 355.211 95.203 357.87L95.3651 358.076L95.7391 358.166C100.246 359.205 104.299 358.61 107.781 361.748L120.361 361.738H126.711C128.3 359.905 129.126 359.371 131.65 359.195C132.488 359.142 133.327 359.105 134.167 359.082C137.106 355.104 137.408 355.34 141.08 352.677C143.402 350.993 140.709 349.782 146.037 348.238C146.335 341.189 148.752 334.406 148.665 327.533C148.632 324.919 146.377 323.262 148.545 320.99C148.566 319.561 143.694 306.274 142.638 304.15C142.32 303.513 141.286 303.648 140.639 303.503C140.071 303.376 139.089 300.658 138.817 300.404C136.056 297.84 132.119 295.609 129.111 293.182C128.865 292.983 127.902 292.895 127.698 292.908C123.949 293.15 121.197 289.778 117.885 289.172C114.714 288.592 115.065 291.381 111.762 288.958L110.286 288.961Z" class="color-main"/>
<path d="M365.139 282.043C373.014 282.116 380.707 285.866 388.092 288.382C388.205 288.421 389.5 291.214 390.399 291.554C391.093 291.815 393.129 292.654 393.876 293.075C396.021 296.34 394.427 295.526 397.977 297.732C397.993 297.875 398.01 298.017 398.026 298.159L398.123 298.818C398.648 302.645 400.068 303.717 402.834 306.243C403.737 311.503 404.571 314.878 406.474 319.888L404.65 323.19C407.871 329.034 406.205 335.271 406.407 342.11C404.408 345.301 402.884 347.377 402.765 351.235C396.851 356.438 392.541 363.995 385.661 367.986C380.553 370.948 355.034 372.761 348.324 371.947C346.182 371.685 340.761 369.902 339.164 370.935L338.197 371.562C337.095 371.469 336.245 371.214 335.106 371.141C331.744 370.922 327.524 372.917 324.462 371.466C321.367 369.999 320.5 375.659 316.404 372.564C315.143 370.463 315.416 368.438 315.431 365.971C316.096 365.479 316.676 365.034 317.456 364.755C320.946 363.493 325.132 360.213 327.609 357.464C328.634 346.065 325.966 334.092 328.768 322.713C328.85 322.378 328.149 322.069 327.849 321.87C327.378 320.192 330.121 313.476 329.873 311.799C328.265 300.94 328.739 291.518 315.439 290.465C315.393 288.056 314.801 283.27 318.26 283.376C329.463 283.721 340.602 284.24 351.824 283.976C356.805 283.858 360.44 282.703 365.139 282.043ZM375.916 295.378C368.565 292.497 358.684 290.324 350.738 291.027L344.738 291.695C339.599 297.503 340.369 307.92 342.231 314.919C338.685 326.482 343.114 336.26 341.212 347.596C342.806 350.73 342.324 355.926 342.301 359.648C352.175 364.496 358.471 359.958 369.939 360.725C373.256 357.052 375.866 358.145 380.189 357.271C381.756 356.953 379.95 355.219 382.815 353.961C383.556 353.636 384.171 352.832 384.679 352.132C386.362 349.296 388.118 345.756 390.635 343.744C390.751 338.757 391.306 335.55 393.039 330.794L391.661 328.283C391.747 323.474 393.696 318.802 393.108 314.792C394.35 314.79 396.498 314.923 397.558 314.557C397.651 310.398 400.994 309.042 400.071 306.559C399.271 306.021 399.699 306.115 398.75 306.269C396.26 308.265 396.339 312.017 394.125 312.435C393.119 312.624 391.014 310.846 390.423 309.984C388.474 307.159 387.965 304.043 384.748 302.199C384.373 301.984 384.459 300.269 384.479 299.76C383.646 297.944 377.985 296.189 375.916 295.378Z" class="color-main"/>
<path d="M255.787 284.312C255.867 285.138 256.704 287.005 256.701 287.046C253.371 297.088 254.982 307.975 252.209 318.087C255.34 327.875 250.157 335.26 254.598 342.216C253.897 345.497 253.379 355.301 253.839 358.642C255.33 362.997 262.317 360.571 264.598 362.264C267.204 364.199 264.494 369.422 261.146 370.418C256.755 371.726 251.857 371.656 246.935 371.497C245.886 370.601 244.774 369.655 243.777 368.712C243.551 368.496 243.626 366.63 242.618 366.673C233.901 367.038 227.682 374.532 218.401 370.498C216.791 369.801 217.008 370.392 215.66 368.729C213.953 367.155 210.477 364.617 208.501 363.014C207.27 358.674 207.119 357.024 203.496 354.248C203.401 350.798 203.897 347.07 203.768 343.594C203.699 341.764 202.543 339.792 202.641 338.049C203.14 336.946 203.7 336.757 204.741 336.119C204.829 335.518 204.925 334.921 205.025 334.323C208.004 316.866 223.514 313.973 238.547 316.83L239.547 315.569C240.713 314.093 240.764 313.951 242.436 313.01C242.494 310.105 241.833 306.34 243.157 303.937C243.478 303.355 243.336 303.559 243.239 302.701C240.832 299.2 234.212 299.439 232.785 295.493C232.984 291.449 238.571 290.273 241.812 290.18C246.15 285.949 248.863 284.106 255.073 284.055L255.787 284.312ZM236.315 325.297C234.104 324.917 231.182 324.379 228.936 324.503C225.897 324.91 223.71 325.454 220.811 326.557C216.741 331.489 212.887 334.891 213.467 341.917C214.527 354.773 218.847 356.045 229.8 360.454C237.449 358.711 240.765 355.473 243.281 348.046C243.069 347.152 241.682 341.89 241.748 341.422C242.274 337.683 243.645 332.619 240.918 329.212C237.715 328.359 238.15 328.372 236.315 325.297Z" class="color-main"/>
<path d="M432.832 314.727C434.213 314.905 435.598 315.652 436.897 316.235C452.665 313.695 461.002 322.704 464.85 337.186C466.852 344.709 464.389 353.93 460.504 360.487C456.141 367.848 449.328 371.242 441.22 373.118C440.357 373.178 436.833 371.687 435.382 371.783C434.452 371.843 431.334 371.139 430.767 370.398C429.1 368.214 427.772 370.249 425.887 370.498C423.642 370.007 420.431 367.241 418.797 365.617C412.415 359.246 408.833 350.596 408.84 341.581C408.837 339.383 408.897 335.572 409.869 333.59C410.268 332.78 411.935 332.135 412.433 331.323C413.704 329.25 413.358 325.941 415.493 322.938C421.211 314.899 429.203 318.365 432.832 314.727ZM437.158 323.512C432.743 324.933 431.846 326.524 426.902 325.938C425.305 329.612 424.787 331.746 421.038 333.337C421.267 341.518 420.889 350.971 427.387 356.626C431.295 360.026 432.896 361.045 437.999 362.114C451.227 362.592 446.436 356.935 453.71 353.389C454.029 347.874 453.256 335.485 449.358 331.309C447.458 329.274 439.982 323.378 437.501 323.403L437.158 323.512Z" class="color-main"/>
<path d="M534.829 280.975C536.781 281.001 537.359 281.246 539.205 281.905C537.13 297.794 534.842 313.544 535.563 329.609C534.789 330.684 534.295 331.336 533.418 332.324C534.507 334.83 535.028 336.248 535.553 338.891C540.51 332.632 546.719 330.43 551.394 324.678L551.175 324.017C549.399 318.436 546.231 320.152 545.099 316.969C545.069 315.587 545.61 314.975 546.327 313.711C553.512 314.335 557.298 310.529 562.736 313.41C566.668 312.244 572.036 311.196 575.068 314.519C575.523 315.015 576.207 316.085 575.988 316.741C574.397 321.492 567.561 322.194 563.563 323.989C562.554 324.431 560.844 327.447 559.934 328.022C557.58 329.661 552.819 331.028 551.036 333.18C548.243 336.557 552.54 339.426 555.083 340.88C556.182 341.508 556.003 342.876 556.092 344.044C556.863 345.299 557.819 345.399 559.257 346.206C561.554 349.476 558.224 348.985 563.576 352.538C562.613 353.962 561.501 355.303 562.71 356.854C564.068 357.515 565.323 357.233 566.883 357.12C570.569 362.386 578.468 363.611 580.151 368.957C579.955 370.268 580.211 369.651 579.042 370.723C575.035 372.586 570.127 371.45 566.013 370.617C562.574 372.499 559.994 371.397 556.252 370.995C554.847 370.846 550.793 370.61 549.751 370.039C548.891 368.482 548.1 366.068 549.322 364.567C550.813 364.102 550.889 363.999 552.181 363.033L552.516 362.777C552.619 352.488 545.813 351.588 541.304 343.858C539.504 343.496 537.226 343.108 536.247 345.236C534.998 347.939 535.921 351.366 535.603 354.277C535.48 355.406 534.666 357.335 534.756 358.557C537.17 363.495 539.906 363.322 541.642 368.834L541.788 369.305C534.434 371.629 524.848 372.715 517.301 370.653L517.358 364.551C520.445 362.575 523.248 359.982 523.912 356.127C524.277 354.015 523.367 351.887 523.563 349.646C523.919 345.631 524.261 341.597 524.519 337.576C524.895 325.357 524.978 311.702 523.225 299.596C521.81 298.143 520.044 296.394 518.52 295.067C514.027 291.153 516.906 288.892 520.256 285.784C525.841 286.187 529.118 282.589 534.829 280.975Z" class="color-main"/>
<path d="M57.5918 388.394C102.053 388.845 147.355 388.404 191.872 388.404H459.011H574.906L611.785 388.384C617.745 388.377 626.321 388.115 632.135 388.503C632.799 389.267 632.61 389.559 632.759 390.784L58.4391 390.764C57.53 390.034 57.8172 389.981 57.5918 388.394Z" class="color-main"/>
<path d="M189.157 280.89C190.844 280.653 191.637 282.169 191.641 283.67C191.661 290.39 188.974 296.632 187.799 303.214C187.151 306.849 186.498 311.712 186.981 315.534C188.556 320.953 187.506 322.884 187.021 328.368C186.382 335.169 186.74 342.029 188.083 348.726C185.482 353.006 187.836 357.608 189.323 361.934C191.98 361.904 194.724 361.927 196.048 364.544C196.509 365.457 197.26 368.697 196.466 369.375C190.261 374.667 182.423 368.15 173.906 371.656L173.508 371.825C171.615 371.38 170.655 369.783 167.529 369.308L167.516 363.246C181.07 358.644 173.895 344.21 174.897 334.492C177.994 330.219 173.852 325.59 176.875 321.521C177.328 320.911 176.515 317.599 176.468 316.737C176.186 311.604 176.52 306.112 174.106 301.401C172.449 298.295 170.632 297.527 167.522 296.629L167.536 291.781C174.28 287.626 181.957 284.274 189.157 280.89Z" class="color-main"/>
<path d="M612.692 316.576C613.814 316.893 614.099 317.625 615.066 318.104C617.244 319.185 619.452 320.216 621.633 321.306C621.67 326.216 621.451 328.335 618.708 332.446C613.731 330.692 610.384 328.698 608.133 323.809C604.338 323.648 597.694 323.256 595.064 326.774C592.766 329.85 593.899 330.228 596.004 332.576C595.964 332.533 596.266 334.933 596.283 335.066C599.444 338.635 614.05 341.989 620.342 345.615C621.723 350.077 623.253 352.727 625.435 356.851C623.984 363.511 621.852 365.55 618.014 371.095C608.684 373.436 601.598 374.096 592.169 372.679C588.261 371.53 587.278 371.194 583.997 368.804C584.11 366.011 582.586 353.268 585.863 352.956C586.727 353.62 588.42 354.394 588.885 354.971C589.21 360.573 592.79 358.431 593.43 359.208C597.883 364.627 606.941 367.499 612.555 362.369C614.604 360.496 614.471 357.392 614.299 354.908C606.244 343.549 582.683 350.346 584.147 332.37C584.688 325.703 588.819 321.674 593.64 317.614C600.921 316.468 605.842 317.197 612.692 316.576Z" class="color-main"/>
<path d="M490.798 313.666C492.913 314.26 493.956 313.547 495.895 313.71C504.561 314.435 513.735 316.63 506.191 326.693C497.392 327.194 495.463 323.974 487.584 324.101C484.33 327.174 482.74 328.999 478.373 330.294C478.403 331.686 478.453 332.486 478.174 333.844C477.105 338.997 480.1 340.086 477.284 345.597C479.463 349.037 480.389 349.877 480.877 353.958C488.052 363.245 498.551 361.399 508.266 358.245C509.103 358.945 509.242 358.958 509.707 359.964C509.853 364.912 502.466 367.89 499.388 371.532C493.089 368.813 495.048 372.24 489.739 371.695C485.203 371.234 483.832 369.158 478.048 369.055C476.697 365.227 477.108 365.944 474.286 364.165C471.557 362.441 474.084 359.629 469.747 356.82C467.898 348.011 467.24 341.464 468.569 332.575C471.876 328.883 471.56 327.686 473.964 324.204L475.584 324.022C476.315 322.777 475.581 322.681 476.076 320.846C478.772 319.052 481.252 316.842 483.895 315.128C485.821 313.879 488.832 314.898 490.798 313.666Z" class="color-main"/>
<path d="M169.738 405.934C174.722 405.618 179.684 405.605 184.663 406.067C193.656 406.9 197.672 415.563 189.373 421.174C195.947 424.149 198.805 429.508 193.61 435.949C190.653 439.615 184.798 439.684 180.374 439.903C175.588 439.907 170.096 440.252 165.207 440.375C168.356 438.237 168.694 438.423 169.886 434.811L170.052 434.292C171.137 434.08 173.045 434.966 174.191 435.388L170.206 429.624L170.205 425.122L172.683 422.206C170.929 421.094 169.367 420.038 169.73 417.784C171.935 415.523 170.34 415.416 169.713 412.71C169.454 411.595 169.357 410.031 169.275 408.862L168.72 408.699C167.446 409.31 165.448 410.575 164.156 411.339C165.53 409.536 167.629 406.691 169.738 405.934ZM189.45 430.432C187.478 423.389 184.414 422.721 177.469 423.073C177.075 427.662 176.316 431.832 177.718 436.238C178.703 436.746 180.093 437.524 181.077 437.936C184.035 437.647 186.266 437.55 188.419 435.147C188.646 434.137 188.77 433.961 188.568 432.939L189.019 432.517L190.721 433.105L190.965 432.806C190.783 432.458 189.47 430.495 189.45 430.432ZM176.921 408.374C178.038 411.532 176.893 415.593 177.529 418.787C178.283 422.572 183.89 420.341 186.211 419.003C193.031 411.599 183.419 408.271 176.921 408.374Z" class="color-main"/>
<path d="M400.616 405.559C405.763 405.701 408.542 405.698 413.161 408.032C413.921 411.665 414.465 414.447 414.94 418.149C413.921 415.838 412.254 411.625 410.073 410.662C404.936 408.401 395.998 408.278 393.464 414.417C392.03 417.89 391.31 423.263 391.954 426.945C392.229 428.509 393.478 431.593 393.996 433.18L393.76 433.526L391.774 433.439L391.605 433.755C394.461 435.006 396.327 435.495 398.91 437.371C400.361 438.42 405.451 438.553 407.357 437.905C408.984 436.255 406.191 435.182 406.45 433.303C406.487 433.047 407.36 431.699 407.572 430.677L406.351 431.54L405.955 431.367C405.806 429.95 405.63 429.153 405.886 427.771L406.696 427.522L406.683 427.008C404.189 424.401 401.194 427.413 399.285 429.143L398.906 428.226C400.932 420.898 410.587 424.604 417.497 424.338C416.169 425.427 414.661 426.556 413.297 427.615C412.443 432.752 414.983 434.073 415.302 438.758C413.33 443.48 390.968 441.212 389.55 437.015L390.642 436.471L390.406 436.003C389.364 435.853 388.554 435.757 387.657 435.149C386.037 434.05 384.124 429.056 383.935 427.323C384.782 426.576 385.937 426.593 387.212 426.364C385.758 425.889 384.725 425.547 383.324 424.946C383.573 424.335 383.553 424.541 384.211 424.029C381.412 418.793 387.455 409.025 392.651 407.295C396.024 406.176 397.001 405.844 400.616 405.559Z" class="color-main"/>
<path d="M317.263 407.828C325.204 408.685 326.071 415.754 321.184 421.226L328.114 425.346C329.968 422.743 330.638 421.721 334.175 420.675C337.412 419.715 344.179 422.039 341.32 426.475C340.746 427.364 339.139 428.42 337.957 428.507L337.422 427.979C339.162 426.738 340.709 425.801 338.913 423.427C338.438 422.803 337.263 422.567 336.473 422.606C332.94 422.782 331.867 423.862 329.52 426.166C333.192 428.175 335.221 429.766 336.885 433.601C332.505 444.982 331.735 442.509 334.882 454.488C330.456 447.333 329.342 443.721 332.024 435.702C332.094 432.149 327.957 431.127 325.83 430.015L325.478 429.828C322.725 434.005 318.689 441.559 312.786 440.503C310.846 440.174 309.117 439.086 307.984 437.476C308.698 437.472 308.379 437.571 308.949 437.213C306.427 435.274 306.935 435.725 306.842 432.598C305.197 430.685 306.428 429.547 307.624 427.614C309.848 426.167 311.648 425.774 314.167 425.137C313.323 426.046 312.035 426.641 311.278 427.491C307.977 431.2 309.616 436.196 314.95 435.672C319.175 435.257 321.756 432.04 324.152 429.068C318.094 426.133 304.151 421.355 309.618 411.988C311.229 409.229 314.27 408.237 317.263 407.828ZM315.195 410.422C309.404 411.604 312.081 414.635 313.69 417.53L313.228 418.271C315.348 418.905 315.853 418.447 318.02 419.536L318.832 419.821C320.997 418.287 321.448 414.313 319.832 412.218C318.689 410.734 316.951 410.561 315.195 410.422Z" class="color-main"/>
<path d="M89.8044 232.025C90.4914 230.935 91.1209 229.663 92.3269 229.361C92.8276 230.691 91.7143 233.788 91.8192 235.193C91.9908 237.495 93.0158 238.71 92.9737 241.223L92.6237 241.481C86.3068 236.041 90.8387 234.407 80.4272 235.138C79.792 245.017 79.6509 261.753 80.7954 271.409C83.0984 271.033 85.1503 270.685 87.4782 270.487C87.4842 270.74 87.3766 270.983 87.3142 271.228C84.1453 273.905 68.9548 278.661 66.018 276.31C66.4477 275.552 71.7911 272.409 72.9243 271.673C73.1434 266.359 72.9405 260.937 72.8894 255.604C73.9317 254.964 73.8164 255.737 75.6011 255.449C74.4705 254.021 73.5415 253.054 73.1003 251.307C73.4054 250.267 74.7129 249.763 75.8637 249.019C75.4185 248.251 74.6691 249.393 73.2029 248.48C72.5796 243.683 73.9147 241.675 72.6029 235.126C63.0759 235.045 63.8907 234.609 58.2422 242.327C58.8339 240.042 59.5643 237.638 60.0176 235.336C60.5462 232.652 61.4489 231.609 60.9383 228.953C61.9194 229.581 62.975 231.104 63.7363 232.073C69.7115 232.403 70.2826 231.356 75.8388 234.145L73.3728 230.029C74.6014 230.823 76.5202 232.254 77.8387 232.835C78.3739 233.071 79.0712 231.913 79.2787 231.928C82.4522 232.159 86.7554 232.106 89.8044 232.025Z" class="color-main"/>
<path d="M101.415 230.729C107.592 231.036 105.398 237.04 105.659 241.378C105.736 242.655 105.624 244.164 105.61 245.462C106.512 244.709 107.51 243.961 108.442 243.235C108.729 243.209 109.016 243.184 109.304 243.161C125.014 241.921 121.789 255.058 120.819 265.148C120.664 266.758 122.625 266.307 123.911 267.446L123.729 267.863C121.32 268.686 114.031 268.88 111.85 267.614L111.818 267.048C112.66 266.229 113.176 266.197 114.311 265.887L114.732 265.775C115.019 260.584 117.701 251.92 113.778 247.553C109.609 246.103 108.486 246.898 105.41 249.836C105.406 253.711 104.894 258.9 105.845 262.705C105.9 262.928 109.109 263.491 109.79 264.581C108.455 265.964 97.0124 265.281 96.1806 264.473C96.9712 263.587 98.394 263.206 99.5488 262.764C99.5969 261.604 99.501 260.392 99.9867 259.423L101.084 259.514L101.369 259.161C99.4535 252.248 99.8655 246.125 100.18 238.974C100.226 237.927 100.448 234.863 100.222 234.034C98.6476 233.953 96.7663 235.876 95.584 236.916C97.1967 233.43 97.8611 232.376 101.415 230.729Z" class="color-main"/>
<path d="M135.389 243.083C143.022 242.521 146.355 245.061 147.435 252.505C144.709 253.022 133.357 254.495 131.82 255.251L131.534 256.154C131.944 258.391 132.924 257.553 133.076 260.577C134.317 261.463 133.931 259.808 135.711 260.758C139.62 262.843 142.264 261.672 145.987 259.794C146.692 259.391 146.429 259.502 147.231 259.346L147.258 259.893C142.684 267.285 131.969 268.413 127.44 260.086C126.897 259.086 126.248 257.11 126.676 255.999C127.404 255.651 127.415 255.693 127.956 255.111C128.059 253.831 127.249 252.557 126.67 251.35C128.566 246.562 130.19 244.128 135.389 243.083ZM135.697 245.089C132.261 247.119 132.215 249.542 131.653 253.226C133.505 252.872 137.378 252.234 138.974 251.632C139.751 251.583 139.587 251.656 140.279 251.969C146.585 250.546 140.552 245.217 135.697 245.089Z" class="color-main"/>
<path d="M223.215 418.184C237.046 417.776 227.431 432.667 231.422 437.359L232.033 437.259C232.906 436.16 232.417 435.646 232.753 434.394L233.298 434.603C235.318 438.451 231.469 443.456 226.905 438.133L226.686 437.871C223.793 439.029 214.513 444.375 212.719 436.619C212.478 435.576 213.339 434.584 214.072 433.9L214.166 433.843C214.945 431.004 222.939 428.385 225.658 427.352C225.644 424.912 226.093 422.082 223.807 420.342C221.692 418.732 215.604 422.371 216.084 424.373C217.132 424.812 218.443 424.456 219.623 424.277C217.977 426.116 217.11 427.219 214.57 427.381C213.259 426.863 213.747 427.275 212.996 426.166C212.372 420.947 219.244 418.898 223.215 418.184ZM224.295 430.287C219.852 431.525 218.978 432.013 218.069 436.768L217.751 436.685L220.017 438C225.053 438.382 227.177 432.684 225.105 430.35L224.295 430.287Z" class="color-main"/>
<path d="M521.03 405.994C521.296 406.067 521.143 406.007 521.485 406.276L521.781 406.515C522.555 406.23 522.186 406.29 522.877 406.27C523.886 414.654 521.744 428.453 523.355 437.222C523.521 438.138 525.297 438.397 526.712 439.084L526.718 439.539C524.743 440.439 519.573 440.303 517.129 440.33C515.851 440.359 515.017 440.532 513.945 439.881L513.849 439.337C514.619 438.384 515.884 438.171 517.103 437.799C517.192 437.291 517.262 436.783 517.318 436.275C517.863 431.663 517.534 426.504 517.63 421.852C517.687 418.937 518.461 412.887 516.684 410.629C515.595 410.47 514.124 411.486 512.969 412.044L513.42 411.542C516.253 408.345 517.199 408.01 521.03 405.994Z" class="color-main"/>
<path d="M495.609 406.047L496.177 406.376C496.904 406.309 496.735 406.332 497.472 406.459C498.84 412.259 496.071 430.421 498.063 437.135C498.379 438.197 501.373 439.008 502.685 439.472C497.801 440.405 494.61 440.312 489.663 440.316C489.178 440.312 488.74 440.117 488.238 439.964L488.258 439.323C489.52 438.337 490.284 438.224 491.824 437.753C492.545 431.59 492.405 423.508 492.136 417.213C492.681 416.947 492.409 417.1 492.953 416.748C492.684 414.753 492.687 410.891 490.39 410.582C489.739 410.978 489.284 411.233 488.604 411.572C488.896 409.145 493.64 407.083 495.609 406.047Z" class="color-main"/>
<path d="M253.077 417.015C254.942 418.118 254.742 419.117 255.36 420.96C256.43 420.727 257.031 418.563 258.27 417.739C263.401 414.329 268.441 422.291 262.142 424.609L261.967 424.28C262.798 422.444 263.197 422.457 262.313 420.704C261.748 420.382 261.446 420.087 260.769 420.316C253.366 422.789 255.124 431.96 255.782 437.382C257.421 437.81 258.544 437.986 259.996 438.873L260.078 439.338C257.998 440.44 249.071 440.55 246.819 439.823L246.871 439.225C247.723 438.265 249.068 437.864 250.284 437.352C250.591 433.773 251.795 424.367 250.517 421.561L249.986 421.461L246.387 424.001C248.705 420.535 249.739 419.419 253.077 417.015Z" class="color-main"/>
<path d="M438.158 416.936C439.592 418.224 439.901 418.914 440.349 420.787C442.726 418.646 443.6 416.232 447.561 417.185C451.037 418.018 450.38 423.666 447.395 424.645L446.913 424.317C447.534 423.181 448.185 422.51 447.634 421.302C445.847 420.189 443.849 420.027 442.497 421.913C439.443 426.183 440.176 432.481 440.771 437.382C442.56 438.053 443.51 437.817 444.795 439.082L444.742 439.603C442.59 440.609 432.908 440.237 430.352 439.846C431.832 438.923 433.645 438.113 435.236 437.342C435.681 434.351 436.849 423.809 435.495 421.561C434.612 421.564 432.427 423.218 431.474 423.835C433.984 420.316 434.631 419.482 438.158 416.936Z" class="color-main"/>
<path d="M471.293 417.068L471.834 417.125C472.186 418.317 471.771 421.381 471.741 422.872C471.638 427.899 471.588 432.813 472.176 437.827C473.57 438.159 474.092 438.196 475.287 438.923L475.39 439.404C473.65 440.636 463.118 440.483 461.109 439.524C462.673 437.382 464.005 439.022 465.648 437.588C466.02 436.579 465.944 436.359 466.684 435.715L467.561 436.19L467.687 435.871C466.98 434.507 466.518 433.856 466.349 432.338C466.89 430.672 466.508 431.638 467.637 430.453C468.344 429.709 466.179 429.606 466.133 428.032C466.09 426.508 466.658 424.048 465.984 422.763C465.778 422.374 464.054 422.215 463.463 422.109C462.72 419.313 469.374 417.593 471.293 417.068Z" class="color-main"/>
<path d="M467.009 407.043C472.096 406.994 473.408 411.021 469.845 413.93C468.557 414.023 467.451 414.126 466.432 413.226C465.685 412.568 465.263 411.612 465.286 410.616C465.319 408.946 465.89 408.123 467.009 407.043Z" class="color-main"/>
</svg>
