<svg viewBox="0 0 680 357" xmlns="http://www.w3.org/2000/svg">
<path d="M283.851 40L284.429 40.2641C284.808 41.542 284.591 53.1468 284.592 55.2567L284.6 102.133C284.592 108.508 284.201 123.366 285.247 128.68C286.897 137.136 291.835 144.592 298.975 149.413C306.442 154.396 315.174 156.265 323.98 154.395C332.723 152.543 340.368 147.29 345.238 139.795C349.895 132.422 351.455 123.508 349.574 114.992C347.317 104.717 341.129 98.2126 332.541 92.7518C334.964 89.872 339.033 86.0469 341.777 83.3095L357.871 67.2291C364.086 60.9317 370.36 54.6954 376.696 48.5207C378.974 46.2901 383.225 41.8931 385.509 40.1441L413.206 40.1306C395.872 57.3511 378.508 75.2176 360.985 92.1892C371.725 108.79 373.183 125.877 365.553 144.126C363.911 147.339 362.945 149.082 360.932 152.125C373.933 164.707 386.636 177.962 399.558 190.661C404.83 195.846 410.105 201.461 415.484 206.475C410.112 206.73 392.735 206.892 387.601 206.446C383.426 202.733 377.781 196.749 373.695 192.687L346.798 165.951C340.177 170.536 332.557 173.475 324.572 174.524C309.911 176.405 296.171 172.447 284.55 163.412L284.593 191.178C284.596 195.927 284.437 202.056 284.808 206.657L264.586 206.538C264.835 199.458 264.688 191.565 264.689 184.432L264.69 145.594L264.636 40.0863C271.041 40.1597 277.447 40.1306 283.851 40Z" class="color-main"/>
<path d="M217.818 251.772C226.921 251.842 236.024 251.855 245.126 251.812C257.881 251.799 274.645 249.868 277.02 266.971C278.318 276.312 274.759 283.846 266.543 288.507C269.261 293.795 274.027 304.532 277.73 309.252C278.735 310.531 281.9 309.722 283.561 309.388C283.5 311.173 283.591 313.136 282.381 314.564C279.417 318.058 273.839 316.908 270.692 314.197L270.429 313.9C267.25 310.366 259.929 295.068 257.478 290.13C253.553 290.493 237.945 290.503 233.942 290.202L233.971 315.569L224.374 315.553C224.669 297.27 224.449 278.352 224.404 260.026C222.157 260.003 220.142 260.109 217.902 260.224L217.818 251.772ZM233.904 282.005C242.598 281.638 252.368 282.616 260.866 281.436C262.224 281.248 263.623 280.243 264.694 279.406C269.884 272.825 269.208 260.899 259.117 260.135C250.866 259.514 242.148 260.211 233.832 260C234.066 266.631 234.067 275.331 233.904 282.005Z" class="color-main"/>
<path d="M416.763 251.741L438.738 251.734C441.6 258.858 460.254 307.658 462.531 309.333C464.068 310.464 466.471 309.78 468.2 309.482C468.025 311.109 467.919 315.274 465.943 315.885C453.646 319.696 451.441 307.449 447.699 299.139C441.174 299.552 434.16 299.05 427.588 299.258C424.689 299.351 421.245 299.328 418.386 299.106L411.96 315.545L402.291 315.538C404.711 310.319 407.603 302.355 409.808 296.809L424.432 260.015C421.949 259.982 419.295 260.074 416.799 260.114L416.763 251.741ZM421.5 291.097L433.469 291.084L444.552 291.074C441.924 284.492 439.369 277.881 436.89 271.24C436.193 269.412 433.816 262.871 432.95 261.479C429.208 271.379 425.39 281.253 421.5 291.097Z" class="color-main"/>
<path d="M360.192 251.721H369.51C369.153 267.31 369.563 283.163 369.404 298.765C369.378 301.254 369.609 313.911 369.305 315.379L368.598 315.561L361.686 315.521C359.071 312.758 352.387 303.218 349.67 299.539C341.79 288.961 333.985 278.327 326.253 267.644L326.297 315.554L317.062 315.544C317.463 295.559 317.514 271.68 317.027 251.727H325.511C327.879 254.091 334.494 263.488 336.964 266.834L360.235 298.428L360.192 251.721Z" class="color-main"/>
<path d="M497.391 251.701L505.721 251.744C508.596 254.861 514.675 263.558 517.482 267.356L540.376 298.471C539.877 283.167 540.789 267.049 540.098 251.728L549.436 251.721C549.314 258.444 549.932 313.68 549.245 315.558L541.734 315.511C529.881 301.198 518.143 282.373 506.425 267.875L506.63 315.568L497.41 315.564L497.391 251.701Z" class="color-main"/>
<path d="M40.1782 243.868L48.9558 243.785L48.9036 267.38C48.8966 271.496 48.8427 275.535 49.0183 279.647C49.6 293.289 66.4054 298.056 74.463 287.144C76.6242 284.232 77.5256 280.569 76.9653 276.986C76.2027 272.044 73.2598 269.132 69.4191 266.431C76.9911 259.083 84.298 251.361 91.9225 244.03C95.4426 243.729 100.421 243.891 104.077 243.911C97.1539 251.17 88.9399 259.172 81.7666 266.193C85.5101 272.034 86.0886 275.965 85.4916 282.705C84.728 286.817 83.8782 288.562 81.7484 292.076C89.7287 299.622 97.697 307.734 105.494 315.502C101.434 315.555 97.373 315.552 93.3132 315.496C88.1175 310.841 80.6807 303.067 75.7254 297.907C65.8643 303.748 58.3987 302.845 48.8969 297.008C48.928 302.849 48.7889 309.813 49.1376 315.565L40.0467 315.552C40.525 295.728 39.9707 275.717 40.1624 255.88C40.1981 252.178 39.7687 247.418 40.1782 243.868Z" class="color-main"/>
<path d="M136.459 251.721L185.974 251.715C185.908 254.455 185.965 257.258 185.99 260.005H146.005C146.161 265.783 146.145 272.966 145.983 278.728C157.886 278.533 170.178 278.665 182.108 278.642L182.087 286.988C172.775 287.309 161.701 287.008 152.251 286.998L146.004 286.985C146.205 293.487 146.063 300.951 146.076 307.519C157.702 306.861 174.577 307.344 186.568 307.387C186.474 310.362 186.415 312.603 186.602 315.558L136.501 315.561C136.62 294.28 136.606 272.999 136.459 251.721Z" class="color-main"/>
<path d="M610.62 250.912C617.935 250.387 626.986 251.322 632.655 256.436C637.527 260.835 637.973 265.06 638.344 271.036L628.685 271.02C628.724 269.255 628.685 267.506 628.658 265.741C624.93 259.979 620.682 259.232 614.259 258.964C609.02 258.75 597.619 260.515 598.194 267.668C598.912 276.54 616.656 277.502 623.171 280.246C627.61 282.117 631.719 282.85 635.322 286.45C642.032 292.202 641.13 303.966 635.121 309.986C629.491 315.621 621.032 316.481 613.291 316.435C598.181 315.777 587.22 312.161 587.289 294.539C590.182 294.35 593.927 294.433 596.882 294.413C596.502 301.662 597.629 304.872 605.338 307.301C609.288 308.379 613.902 308.643 617.892 308.078C635.16 305.632 634.77 292.192 618.418 288.043C608.696 284.9 590.013 282.986 589.021 269.708C587.954 255.398 599.411 251.881 610.62 250.912Z" class="color-main"/>
<path d="M315.968 106.43C324.684 105.6 332.411 112.023 333.185 120.745C333.962 129.466 327.488 137.152 318.761 137.872C310.113 138.585 302.511 132.183 301.743 123.539C300.975 114.895 307.329 107.252 315.968 106.43Z" class="color-main"/>
<path d="M62.1278 272.352C65.87 271.86 69.3001 274.497 69.789 278.239C70.2776 281.981 67.6398 285.412 63.8972 285.898C60.1563 286.387 56.7285 283.75 56.2399 280.011C55.7514 276.269 58.3872 272.841 62.1278 272.352Z" class="color-main"/>
</svg>
