<?xml version="1.0" encoding="UTF-8" standalone="no"?>
<!DOCTYPE svg PUBLIC "-//W3C//DTD SVG 1.1//EN" "http://www.w3.org/Graphics/SVG/1.1/DTD/svg11.dtd">
<svg width="100%" height="100%" viewBox="0 0 1447 416" version="1.1" xmlns="http://www.w3.org/2000/svg" xmlns:xlink="http://www.w3.org/1999/xlink" xml:space="preserve" xmlns:serif="http://www.serif.com/" style="fill-rule:evenodd;clip-rule:evenodd;stroke-linejoin:round;stroke-miterlimit:2;">
    <g transform="matrix(1,0,0,1,-40909.4,-15928.9)">
        <g transform="matrix(0.408376,0,0,0.191749,30436.4,14678.2)">
            <g transform="matrix(1.58743,0,0,1.73333,-15866,-5633.15)">
                <g transform="matrix(1.54257,0,0,3.00874,7726.47,5439.78)">
                    <path d="M12158.5,565.621C12161,551.18 12180.7,547.442 12205.9,552.013C12208,551.399 12210.2,550.75 12212.5,551.005C12240.2,554.149 12270.4,541.962 12287.1,522.856C12287.1,522.856 12303.6,537.341 12304,537.624C12315.5,548.3 12320.8,560.667 12322.7,574L13389.8,574C13346.7,737.769 13309.3,921.063 13238.9,938.001L12211.9,938.001L11943.5,574C11943.5,574 12138.1,574 12138.1,574C12145.1,570.31 12151.9,567.574 12158.5,565.621Z"/>
                </g>
                <g transform="matrix(1.54257,0,0,3.00874,7726.47,5439.78)">
                    <path d="M12287,556C12294,562.425 12296.9,569.958 12298,578C12298.8,586.509 12297.9,594.542 12295,602C12281.5,588.973 12261.1,590.811 12244,603C12227,615.131 12203.3,634.979 12179,632C12160.6,630.977 12156.3,626.719 12132,631C12113.3,636.803 12101.7,643.264 12096,650C12122.6,609.547 12148.8,592.674 12172,588C12172.8,590.829 12171.3,593.931 12168,599C12173.7,595.558 12177,591.014 12178,585C12177.7,578.827 12181.2,576.43 12187,576C12207.1,574.518 12220.1,583.237 12230,584C12226,579.518 12212.6,578.206 12213,576C12239.5,575.459 12266.3,574.647 12287,556ZM12175,603C12178.6,601.365 12186,599.775 12196,601C12208.4,601.944 12219,599.207 12225,594C12218.9,594.43 12212.8,592.368 12203,588C12190.7,583.4 12185.5,586.634 12184,594C12183.2,597.891 12178.6,600.721 12175,603Z" style="fill:url(#_Linear1);"/>
                    <path d="M11993,599L12108,599L12078,620L12091,637C12071.8,666.671 12068.8,688.766 12074,707L11993,599Z" style="fill:url(#_Linear2);"/>
                    <path d="M11993,599L12108,599L12078,620L12032,651L11993,599Z" style="fill:rgb(196,180,84);"/>
                    <path d="M12269,599C12259.5,598.215 12255.4,600.736 12248,607C12246.4,609.293 12252.4,606.634 12254.8,607.744C12256,619.209 12243.1,624.279 12245,626C12256.8,627.531 12269.3,612.68 12269,599Z" style="fill:rgb(196,180,84);"/>
                    <path d="M12275,602C12282,599.676 12287.9,601.252 12292,605C12289,629.483 12270.1,637.462 12271,632C12277.1,623.01 12279.3,617.729 12281,608C12278.7,603.493 12272.3,604.254 12275,602Z" style="fill:rgb(196,180,84);"/>
                    <path d="M12259,632C12247.7,643.998 12231,649.831 12231,665C12231,679.976 12238.2,684.46 12244,693C12240.2,683.468 12236.4,673.933 12237,666C12240.6,645.121 12248.2,649.329 12259,632Z" style="fill:rgb(150,132,23);"/>
                    <path d="M12244,704C12250.6,710.778 12258.3,714.25 12269,708C12266.7,714.16 12263.7,717.751 12260,718C12252,715.716 12247.1,710.69 12244,704" style="fill:rgb(196,180,84);"/>
                    <path d="M12225,710C12231.9,718.085 12239.8,721.532 12250,715C12249,719.613 12247.1,723.528 12242,725C12233,723.297 12227.9,717.709 12225,710Z" style="fill:rgb(196,180,84);"/>
                    <path d="M12318,599L12433,599L12212,896L12110.1,758.003C12065.3,689.143 12078.1,652.088 12138,641C12180.2,634.758 12204.5,654.065 12213,696C12221.3,718.992 12231.7,727.599 12243,729C12223.2,749.801 12193.7,716.109 12173,680C12160.4,657.154 12149.5,653.633 12128,653C12134.7,654.016 12138.8,656.017 12140,657C12118.1,681.467 12155.4,730.367 12173,751L12216,797L12348,620L12318,599Z" style="fill:url(#_Linear3);"/>
                    <path d="M12128,653C12119.7,653.016 12110.2,653.01 12108.6,652.996C12112.3,648.619 12121.3,644.096 12138,641C12180.2,634.758 12204.5,654.065 12213,696C12221.3,718.992 12231.7,727.599 12243,729C12223.2,749.801 12193.7,716.109 12173,680C12160.4,657.154 12149.5,653.633 12128,653Z" style="fill:url(#_Linear4);"/>
                    <path d="M12318,599L12433,599L12212,896L12216,797L12348,620L12318,599Z" style="fill:url(#_Linear5);"/>
                    <path d="M12318,599L12433,599L12394.3,651L12348,620L12318,599Z" style="fill:url(#_Linear6);"/>
                </g>
                <g transform="matrix(7.86408,-1.78437e-15,1.69052e-15,15.3387,-64702.9,-165591)">
                    <path d="M11645.3,11286.3L11637.3,11314.3L11648.1,11314.3L11658,11279.6L11642.8,11279.6L11645.3,11286.3Z" style="fill:rgb(194,30,58);"/>
                    <path d="M11664,11286.3L11655.9,11314.3L11666.7,11314.3L11669.3,11305.3L11688.1,11305.3C11689.1,11305.3 11690,11305.2 11690.9,11304.9C11691.9,11304.6 11692.7,11304.2 11693.5,11303.7C11694.3,11303.2 11695,11302.6 11695.6,11301.8C11696.2,11301.1 11696.6,11300.2 11696.9,11299.3L11700.8,11285.6C11701,11284.7 11701.1,11283.8 11700.9,11283.1C11700.8,11282.3 11700.5,11281.7 11700,11281.2C11699.5,11280.7 11698.9,11280.3 11698.1,11280C11697.3,11279.7 11696.4,11279.6 11695.5,11279.6L11661.5,11279.6L11664,11286.3ZM11674,11288.9L11689.1,11288.9L11687,11296L11672,11296L11674,11288.9Z" style="fill:rgb(194,30,58);"/>
                    <path d="M11698.7,11314.3L11731.4,11314.3L11734.1,11304.9L11712.2,11304.9L11713.1,11301.6L11731.9,11301.6L11734.5,11292.3L11715.8,11292.3L11716.7,11288.9L11735.9,11288.9C11736.4,11288.9 11736.9,11288.8 11737.4,11288.4C11737.9,11288 11738.3,11287.6 11738.6,11287C11739,11286.5 11739.3,11285.9 11739.6,11285.2C11739.9,11284.6 11740.1,11284 11740.3,11283.4L11741.4,11279.6L11704.2,11279.6L11706.7,11286.3L11698.7,11314.3Z" style="fill:rgb(194,30,58);"/>
                    <path d="M11747.2,11286.3L11739.2,11314.3L11750,11314.3L11752.6,11305.3L11759.5,11305.3L11765.8,11314.3L11778,11314.3L11772.1,11305.3C11773,11305.1 11773.8,11304.9 11774.7,11304.6C11775.5,11304.3 11776.3,11303.8 11777,11303.3C11777.8,11302.8 11778.4,11302.2 11779,11301.6C11779.5,11300.9 11779.9,11300.1 11780.1,11299.3L11784.1,11285.6C11784.3,11284.7 11784.4,11283.8 11784.2,11283.1C11784.1,11282.3 11783.8,11281.7 11783.3,11281.2C11782.8,11280.7 11782.2,11280.3 11781.4,11280C11780.6,11279.7 11779.7,11279.6 11778.8,11279.6L11744.8,11279.6L11747.2,11286.3ZM11757.3,11288.9L11772.3,11288.9L11770.3,11296L11755.3,11296L11757.3,11288.9Z" style="fill:rgb(194,30,58);"/>
                    <path d="M11790.7,11301.6L11807.9,11301.6L11807,11304.9L11782.8,11304.9L11780.1,11314.3L11808,11314.3C11809,11314.3 11809.9,11314.2 11810.9,11313.9C11811.8,11313.6 11812.7,11313.2 11813.4,11312.7C11814.2,11312.2 11814.9,11311.5 11815.5,11310.8C11816,11310 11816.5,11309.2 11816.7,11308.3L11819.6,11298.3C11819.9,11297.4 11819.9,11296.5 11819.8,11295.8C11819.6,11295 11819.3,11294.4 11818.8,11293.9C11818.3,11293.4 11817.7,11293 11816.9,11292.7C11816.1,11292.4 11815.3,11292.3 11814.3,11292.3L11797.2,11292.3L11798.2,11288.9L11819.5,11288.9C11820,11288.9 11820.5,11288.8 11821,11288.4C11821.5,11288 11821.9,11287.6 11822.2,11287C11822.6,11286.5 11822.9,11285.9 11823.2,11285.2C11823.5,11284.6 11823.7,11284 11823.9,11283.4L11825,11279.6L11797,11279.6C11796.1,11279.6 11795.1,11279.7 11794.2,11280C11793.3,11280.3 11792.4,11280.7 11791.6,11281.2C11790.8,11281.7 11790.2,11282.3 11789.6,11283.1C11789,11283.8 11788.6,11284.7 11788.3,11285.6L11785.5,11295.6C11785.2,11296.5 11785.1,11297.4 11785.3,11298.1C11785.4,11298.9 11785.8,11299.5 11786.2,11300C11786.7,11300.5 11787.4,11300.9 11788.1,11301.2C11788.9,11301.5 11789.8,11301.6 11790.7,11301.6Z" style="fill:rgb(194,30,58);"/>
                </g>
                <g transform="matrix(0.89955,0,0,0.89955,2709.13,727.459)">
                    <g transform="matrix(1.71422,-3.8896e-16,3.68501e-16,3.34354,7016.16,-30454)">
                        <path d="M11647.4,11282L11644.5,11274.3L11662.8,11274.3L11673.8,11295.9L11674.2,11295.9L11680.4,11274.3L11692.8,11274.3L11681.4,11314.3L11668.1,11314.3L11657.2,11292.8L11656.8,11292.8L11650.6,11314.3L11638.2,11314.3L11647.4,11282Z" style="fill:rgb(196,180,84);fill-rule:nonzero;"/>
                    </g>
                    <g transform="matrix(1.71422,-3.8896e-16,3.68501e-16,3.34354,7009.78,-30454)">
                        <path d="M11797.8,11281.2L11790.3,11307.3C11790,11308.4 11789.5,11309.4 11788.9,11310.2C11788.2,11311.1 11787.4,11311.8 11786.5,11312.4C11785.6,11313 11784.6,11313.5 11783.5,11313.8C11782.5,11314.1 11781.4,11314.3 11780.3,11314.3L11754.2,11314.3C11753.1,11314.3 11752.1,11314.1 11751.3,11313.8C11750.4,11313.5 11749.7,11313 11749.1,11312.4C11748.6,11311.8 11748.2,11311.1 11748,11310.2C11747.8,11309.4 11747.8,11308.4 11748.2,11307.3L11755.6,11281.2C11756,11280.2 11756.5,11279.2 11757.1,11278.3C11757.8,11277.5 11758.6,11276.7 11759.5,11276.1C11760.4,11275.5 11761.3,11275.1 11762.4,11274.8C11763.5,11274.4 11764.6,11274.3 11765.7,11274.3L11791.8,11274.3C11792.8,11274.3 11793.8,11274.4 11794.7,11274.8C11795.6,11275.1 11796.4,11275.5 11796.9,11276.1C11797.5,11276.7 11797.9,11277.5 11798,11278.3C11798.2,11279.2 11798.1,11280.2 11797.8,11281.2ZM11779,11303.5L11784.3,11285.1L11767,11285.1L11761.7,11303.5L11779,11303.5Z" style="fill:rgb(196,180,84);fill-rule:nonzero;"/>
                    </g>
                    <g transform="matrix(1.71422,-3.8896e-16,3.68501e-16,3.34354,6999.51,-30454)">
                        <path d="M11864.7,11282L11855.4,11314.3L11867.8,11314.3L11870.8,11304L11878.8,11304L11886,11314.3L11900.1,11314.3L11893.3,11303.9C11894.3,11303.8 11895.3,11303.5 11896.2,11303.1C11897.2,11302.7 11898.1,11302.2 11899,11301.7C11899.8,11301.1 11900.5,11300.4 11901.2,11299.6C11901.8,11298.8 11902.3,11298 11902.6,11297L11907.1,11281.2C11907.4,11280.2 11907.5,11279.2 11907.3,11278.3C11907.1,11277.5 11906.7,11276.7 11906.2,11276.1C11905.6,11275.5 11904.9,11275.1 11904,11274.8C11903.1,11274.4 11902.1,11274.3 11901,11274.3L11861.8,11274.3L11864.7,11282ZM11876.2,11285.1L11893.6,11285.1L11891.2,11293.2L11873.9,11293.2L11876.2,11285.1Z" style="fill:rgb(196,180,84);fill-rule:nonzero;"/>
                    </g>
                    <g transform="matrix(1.71422,-3.8896e-16,3.68501e-16,3.34354,6978.55,-30454)">
                        <path d="M11970.9,11285.1L11974,11274.3L12012.4,11274.3L12011.2,11278.7C12011,11279.3 12010.7,11280 12010.4,11280.8C12010.1,11281.5 12009.7,11282.2 12009.3,11282.9C12008.8,11283.5 12008.4,11284 12007.8,11284.4C12007.3,11284.9 12006.7,11285.1 12006.1,11285.1L11996.3,11285.1L11987.9,11314.3L11975.5,11314.3L11983.9,11285.1L11970.9,11285.1Z" style="fill:rgb(196,180,84);fill-rule:nonzero;"/>
                    </g>
                    <g transform="matrix(1.71422,-3.8896e-16,3.68501e-16,3.34354,6967.86,-30454)">
                        <path d="M12079.2,11282L12069.9,11314.3L12082.4,11314.3L12086.6,11299.7L12103.9,11299.7L12099.7,11314.3L12112.1,11314.3L12123.6,11274.3L12111.2,11274.3L12107,11288.9L12089.6,11288.9L12093.8,11274.3L12076.3,11274.3L12079.2,11282Z" style="fill:rgb(196,180,84);fill-rule:nonzero;"/>
                    </g>
                    <g transform="matrix(1.71422,-3.8896e-16,3.68501e-16,3.34354,6946.27,-30454)">
                        <path d="M12204.3,11296.8L12201.1,11274.3L12187.5,11274.3L12193.4,11314.3L12205.2,11314.3L12213.4,11302.7L12215.2,11314.2L12227,11314.3L12255.9,11274.3L12242.1,11274.3L12226,11296.8L12223,11274.3L12209.3,11274.3L12211.2,11286.9L12204.3,11296.8Z" style="fill:rgb(196,180,84);fill-rule:nonzero;"/>
                    </g>
                    <g transform="matrix(1.71422,-3.8896e-16,3.68501e-16,3.34354,6937.13,-30454)">
                        <path d="M12312.5,11314.3L12350.2,11314.3L12353.3,11303.5L12328,11303.5L12329.1,11299.7L12350.8,11299.7L12353.8,11288.9L12332.2,11288.9L12333.3,11285.1L12355.4,11285.1C12356,11285.1 12356.6,11284.9 12357.1,11284.4C12357.6,11284 12358.1,11283.5 12358.5,11282.9C12359,11282.2 12359.3,11281.5 12359.6,11280.8C12360,11280 12360.2,11279.3 12360.4,11278.7L12361.7,11274.3L12318.8,11274.3L12321.7,11282L12312.5,11314.3Z" style="fill:rgb(196,180,84);fill-rule:nonzero;"/>
                    </g>
                    <g transform="matrix(1.71422,-3.8896e-16,3.68501e-16,3.34354,6933.64,-30454)">
                        <path d="M12427.2,11299.7L12447,11299.7L12446,11303.5L12418.1,11303.5L12415,11314.3L12447.2,11314.3C12448.3,11314.3 12449.4,11314.1 12450.5,11313.8C12451.5,11313.5 12452.5,11313 12453.4,11312.4C12454.3,11311.8 12455.1,11311.1 12455.8,11310.2C12456.4,11309.4 12456.9,11308.4 12457.2,11307.3L12460.5,11295.9C12460.9,11294.8 12460.9,11293.8 12460.8,11293C12460.6,11292.1 12460.2,11291.4 12459.6,11290.8C12459.1,11290.2 12458.4,11289.7 12457.5,11289.4C12456.6,11289.1 12455.6,11288.9 12454.5,11288.9L12434.7,11288.9L12435.8,11285.1L12460.4,11285.1C12461,11285.1 12461.6,11284.9 12462.1,11284.4C12462.7,11284 12463.2,11283.5 12463.6,11282.9C12464,11282.2 12464.4,11281.5 12464.7,11280.8C12465,11280 12465.3,11279.3 12465.5,11278.7L12466.7,11274.3L12434.5,11274.3C12433.4,11274.3 12432.3,11274.4 12431.3,11274.8C12430.2,11275.1 12429.2,11275.5 12428.3,11276.1C12427.4,11276.7 12426.6,11277.5 12426,11278.3C12425.3,11279.2 12424.8,11280.2 12424.5,11281.2L12421.2,11292.8C12420.9,11293.8 12420.8,11294.8 12421,11295.7C12421.2,11296.5 12421.5,11297.3 12422.1,11297.9C12422.6,11298.5 12423.4,11298.9 12424.3,11299.2C12425.2,11299.6 12426.2,11299.7 12427.2,11299.7Z" style="fill:rgb(196,180,84);fill-rule:nonzero;"/>
                    </g>
                    <g transform="matrix(1.71422,-3.8896e-16,3.68501e-16,3.34354,6915.75,-30454)">
                        <path d="M12528.5,11285.1L12531.5,11274.3L12570,11274.3L12568.7,11278.7C12568.5,11279.3 12568.2,11280 12567.9,11280.8C12567.6,11281.5 12567.2,11282.2 12566.8,11282.9C12566.4,11283.5 12565.9,11284 12565.4,11284.4C12564.8,11284.9 12564.3,11285.1 12563.7,11285.1L12553.8,11285.1L12545.4,11314.3L12533,11314.3L12541.4,11285.1L12528.5,11285.1Z" style="fill:rgb(196,180,84);fill-rule:nonzero;"/>
                    </g>
                </g>
                <g transform="matrix(1.74504,0,0,4.01714,-562.445,-20656.3)">
                    <path d="M15655.9,7166.64L15643.6,7166.64L15640.9,7161.93L15622.8,7161.93L15620.1,7166.64L15607.9,7166.64L15626.3,7137.9L15637.5,7137.9L15655.9,7166.64ZM15636.9,7154.82L15631.9,7146.1L15626.9,7154.82L15636.9,7154.82Z" style="fill:white;fill-rule:nonzero;"/>
                    <path d="M15714,7166.64L15702,7166.64L15702,7148.31L15691.2,7166.64L15682.2,7166.64L15671.4,7148.31L15671.4,7166.64L15659.4,7166.64L15659.4,7137.88L15673.7,7137.88L15686.7,7158.42L15699.7,7137.88L15714,7137.88L15714,7166.64Z" style="fill:white;fill-rule:nonzero;"/>
                    <path d="M15755.1,7166.64L15720.4,7166.64L15720.4,7137.88L15753.5,7137.88L15753.5,7145L15732.5,7145L15732.5,7149.51L15750.2,7149.51L15750.2,7155.04L15732.5,7155.04L15732.5,7159.53L15755.1,7159.53L15755.1,7166.64Z" style="fill:white;fill-rule:nonzero;"/>
                    <path d="M15799.1,7166.64L15787.7,7166.64C15787.2,7165.92 15786.8,7165 15786.6,7163.88C15786.4,7163.01 15786.2,7162.15 15785.8,7161.32C15785.4,7160.49 15784.8,7159.79 15783.9,7159.24C15782.9,7158.68 15781.6,7158.38 15779.8,7158.34L15771.9,7158.34L15771.9,7166.64L15759.9,7166.64L15759.9,7137.88L15779.5,7137.88C15784.2,7137.88 15788,7138.24 15790.9,7138.94C15793.7,7139.64 15795.8,7140.74 15797.2,7142.24C15798.5,7143.75 15799.1,7145.71 15799.1,7148.12C15799.1,7150.14 15798.7,7151.84 15797.8,7153.21C15796.9,7154.59 15795.4,7155.68 15793.4,7156.48C15795.3,7157.27 15796.6,7158.21 15797.1,7159.32C15797.7,7160.42 15798.1,7161.63 15798.2,7162.95C15798.3,7164.13 15798.6,7165.36 15799.1,7166.64ZM15771.9,7151.25L15778.8,7151.23C15780.8,7151.23 15782.3,7151.14 15783.4,7150.97C15784.5,7150.8 15785.3,7150.56 15785.8,7150.26C15786.4,7149.96 15786.7,7149.62 15786.9,7149.26C15787,7148.89 15787.1,7148.51 15787.1,7148.12C15787.1,7147.74 15787,7147.36 15786.9,7146.98C15786.7,7146.61 15786.4,7146.27 15785.8,7145.97C15785.3,7145.67 15784.5,7145.43 15783.4,7145.26C15782.3,7145.09 15780.8,7145 15778.8,7145L15771.9,7145L15771.9,7151.25Z" style="fill:white;fill-rule:nonzero;"/>
                    <rect x="15803.9" y="7137.88" width="12.064" height="28.757" style="fill:white;fill-rule:nonzero;"/>
                    <path d="M15841,7167.26C15833.9,7167.26 15828.6,7165.8 15825.3,7162.87C15822.3,7160.3 15820.8,7156.77 15820.8,7152.29C15820.8,7147.82 15822.3,7144.28 15825.3,7141.69C15828.6,7138.78 15833.9,7137.32 15841,7137.32C15845.1,7137.32 15848.6,7137.8 15851.3,7138.76C15854,7139.71 15856.1,7141.02 15857.7,7142.67C15859.2,7144.33 15860.2,7146.23 15860.7,7148.36L15848,7148.36C15846.7,7146.13 15844.4,7145.02 15841,7145.02C15838,7145.02 15835.9,7145.86 15834.5,7147.54C15833.4,7148.88 15832.9,7150.46 15832.9,7152.29C15832.9,7154.12 15833.4,7155.71 15834.5,7157.04C15835.9,7158.73 15838,7159.57 15841,7159.57C15844.4,7159.57 15846.7,7158.44 15848,7156.2L15860.7,7156.2C15860.2,7158.35 15859.2,7160.26 15857.7,7161.91C15856.1,7163.57 15854,7164.87 15851.3,7165.83C15848.6,7166.78 15845.1,7167.26 15841,7167.26Z" style="fill:white;fill-rule:nonzero;"/>
                    <path d="M15907.4,7166.64L15895.1,7166.64L15892.4,7161.93L15874.3,7161.93L15871.6,7166.64L15859.4,7166.64L15877.8,7137.9L15889,7137.9L15907.4,7166.64ZM15888.4,7154.82L15883.4,7146.1L15878.4,7154.82L15888.4,7154.82Z" style="fill:white;fill-rule:nonzero;"/>
                    <path d="M15953.5,7166.64L15939.2,7166.64L15922.9,7147.18L15922.9,7166.64L15910.9,7166.64L15910.9,7137.88L15925.2,7137.88L15941.5,7157.24L15941.5,7137.88L15953.5,7137.88L15953.5,7166.64Z" style="fill:white;fill-rule:nonzero;"/>
                    <path d="M15982.2,7166.64L15970.1,7166.64L15970.1,7137.88L16003.2,7137.88L16003.2,7145L15982.2,7145L15982.2,7149.51L15999.9,7149.51L15999.9,7155.04L15982.2,7155.04L15982.2,7166.64Z" style="fill:white;fill-rule:nonzero;"/>
                    <path d="M16024.9,7167.26C16017.8,7167.26 16012.6,7165.8 16009.2,7162.87C16006.2,7160.28 16004.8,7156.75 16004.8,7152.27C16004.8,7147.81 16006.2,7144.28 16009.2,7141.69C16012.6,7138.77 16017.8,7137.3 16024.9,7137.3C16032,7137.3 16037.2,7138.77 16040.6,7141.69C16043.6,7144.28 16045,7147.81 16045,7152.27C16045,7156.75 16043.6,7160.28 16040.6,7162.87C16037.2,7165.8 16032,7167.26 16024.9,7167.26ZM16024.9,7159.55C16027.8,7159.55 16030,7158.71 16031.3,7157.04C16032.4,7155.69 16033,7154.1 16033,7152.27C16033,7150.44 16032.4,7148.86 16031.3,7147.52C16030,7145.84 16027.8,7145 16024.9,7145C16022,7145 16019.8,7145.84 16018.5,7147.52C16017.4,7148.86 16016.8,7150.44 16016.8,7152.27C16016.8,7154.1 16017.4,7155.69 16018.5,7157.04C16019.8,7158.71 16022,7159.55 16024.9,7159.55Z" style="fill:white;fill-rule:nonzero;"/>
                    <path d="M16068.4,7167.26C16061.3,7167.26 16056.1,7165.8 16052.7,7162.87C16049.7,7160.28 16048.2,7156.75 16048.2,7152.27C16048.2,7147.81 16049.7,7144.28 16052.7,7141.69C16056.1,7138.77 16061.3,7137.3 16068.4,7137.3C16075.5,7137.3 16080.7,7138.77 16084.1,7141.69C16087,7144.28 16088.5,7147.81 16088.5,7152.27C16088.5,7156.75 16087,7160.28 16084.1,7162.87C16080.7,7165.8 16075.5,7167.26 16068.4,7167.26ZM16068.4,7159.55C16071.3,7159.55 16073.4,7158.71 16074.8,7157.04C16075.9,7155.69 16076.4,7154.1 16076.4,7152.27C16076.4,7150.44 16075.9,7148.86 16074.8,7147.52C16073.4,7145.84 16071.3,7145 16068.4,7145C16065.5,7145 16063.3,7145.84 16062,7147.52C16060.9,7148.86 16060.3,7150.44 16060.3,7152.27C16060.3,7154.1 16060.9,7155.69 16062,7157.04C16063.3,7158.71 16065.5,7159.55 16068.4,7159.55Z" style="fill:white;fill-rule:nonzero;"/>
                    <path d="M16113.1,7166.64L16101,7166.64L16101,7145L16089.7,7145L16089.7,7137.88L16124.3,7137.88L16124.3,7145L16113.1,7145L16113.1,7166.64Z" style="fill:white;fill-rule:nonzero;"/>
                    <path d="M16149.4,7166.64L16128.7,7166.64L16128.7,7137.9L16149.8,7137.9C16153.5,7137.9 16156.6,7138.07 16159,7138.41C16161.4,7138.76 16163.3,7139.29 16164.6,7140.02C16165.9,7140.75 16166.8,7141.67 16167.3,7142.79C16167.8,7143.92 16168,7145.26 16168,7146.82C16167.9,7148.05 16167.6,7149.07 16167,7149.88C16166.3,7150.69 16165.6,7151.29 16164.8,7151.68C16163.9,7152.07 16163.2,7152.27 16162.5,7152.27C16163.1,7152.27 16163.9,7152.4 16164.7,7152.64C16165.6,7152.89 16166.4,7153.25 16167.2,7153.72C16168,7154.18 16168.6,7154.75 16169.2,7155.42C16169.7,7156.09 16170,7156.85 16170,7157.7C16170,7158.82 16169.8,7159.85 16169.6,7160.79C16169.3,7161.72 16168.8,7162.55 16168,7163.27C16167.2,7163.99 16166.1,7164.61 16164.5,7165.11C16163,7165.61 16161,7165.99 16158.6,7166.25C16156.1,7166.51 16153,7166.64 16149.4,7166.64ZM16148.7,7149.81C16150.4,7149.81 16151.8,7149.72 16152.8,7149.55C16153.7,7149.37 16154.4,7149.11 16154.8,7148.76C16155.2,7148.4 16155.3,7147.95 16155.3,7147.4C16155.3,7146.84 16155.2,7146.38 16154.8,7146.03C16154.4,7145.68 16153.7,7145.42 16152.8,7145.25C16151.8,7145.08 16150.4,7145 16148.7,7145L16140.8,7145L16140.8,7149.81L16148.7,7149.81ZM16148.7,7159.55C16150.5,7159.55 16151.9,7159.5 16153.1,7159.41C16154.2,7159.31 16155,7159.1 16155.5,7158.77C16156,7158.43 16156.3,7157.89 16156.3,7157.14C16156.3,7156.39 16156,7155.85 16155.5,7155.51C16155,7155.17 16154.2,7154.95 16153.1,7154.87C16151.9,7154.78 16150.5,7154.74 16148.7,7154.74L16140.8,7154.74L16140.8,7159.55L16148.7,7159.55Z" style="fill:white;fill-rule:nonzero;"/>
                    <path d="M16217.4,7166.64L16205.2,7166.64L16202.5,7161.93L16184.4,7161.93L16181.7,7166.64L16169.4,7166.64L16187.8,7137.9L16199,7137.9L16217.4,7166.64ZM16198.4,7154.82L16193.5,7146.1L16188.4,7154.82L16198.4,7154.82Z" style="fill:white;fill-rule:nonzero;"/>
                    <path d="M16254.5,7166.64L16221,7166.64L16221,7137.88L16233,7137.88L16233,7159.53L16254.5,7159.53L16254.5,7166.64Z" style="fill:white;fill-rule:nonzero;"/>
                    <path d="M16292.1,7166.64L16258.5,7166.64L16258.5,7137.88L16270.6,7137.88L16270.6,7159.53L16292.1,7159.53L16292.1,7166.64Z" style="fill:white;fill-rule:nonzero;"/>
                    <path d="M16335,7167.26C16327.9,7167.26 16322.7,7165.8 16319.3,7162.87C16316.3,7160.3 16314.9,7156.77 16314.9,7152.29C16314.9,7147.82 16316.3,7144.28 16319.3,7141.69C16322.7,7138.78 16327.9,7137.32 16335,7137.32C16339.2,7137.32 16342.6,7137.8 16345.3,7138.76C16348.1,7139.71 16350.2,7141.02 16351.7,7142.67C16353.2,7144.33 16354.2,7146.23 16354.7,7148.36L16342,7148.36C16340.7,7146.13 16338.4,7145.02 16335,7145.02C16332.1,7145.02 16329.9,7145.86 16328.6,7147.54C16327.5,7148.88 16326.9,7150.46 16326.9,7152.29C16326.9,7154.12 16327.5,7155.71 16328.6,7157.04C16329.9,7158.73 16332.1,7159.57 16335,7159.57C16338.4,7159.57 16340.7,7158.44 16342,7156.2L16354.7,7156.2C16354.2,7158.35 16353.2,7160.26 16351.7,7161.91C16350.2,7163.57 16348.1,7164.87 16345.3,7165.83C16342.6,7166.78 16339.2,7167.26 16335,7167.26Z" style="fill:white;fill-rule:nonzero;"/>
                    <path d="M16393.1,7166.64L16359.5,7166.64L16359.5,7137.88L16371.6,7137.88L16371.6,7159.53L16393.1,7159.53L16393.1,7166.64Z" style="fill:white;fill-rule:nonzero;"/>
                    <path d="M16413.5,7167.26C16406.5,7167.26 16401.5,7165.81 16398.7,7162.89C16396.3,7160.45 16395.1,7156.91 16395.1,7152.29L16395.1,7137.9L16407.1,7137.9L16407.1,7152.29C16407.1,7154.3 16407.5,7155.88 16408.2,7157.04C16409.1,7158.71 16410.9,7159.55 16413.5,7159.55C16416.1,7159.55 16417.9,7158.71 16418.8,7157.04C16419.5,7155.84 16419.9,7154.26 16419.9,7152.29L16419.9,7137.9L16431.9,7137.9L16431.9,7152.45C16431.9,7156.97 16430.7,7160.45 16428.3,7162.89C16425.5,7165.81 16420.5,7167.26 16413.5,7167.26Z" style="fill:white;fill-rule:nonzero;"/>
                    <path d="M16457.6,7166.64L16436.9,7166.64L16436.9,7137.9L16458,7137.9C16461.7,7137.9 16464.8,7138.07 16467.2,7138.41C16469.7,7138.76 16471.5,7139.29 16472.8,7140.02C16474.1,7140.75 16475,7141.67 16475.5,7142.79C16476,7143.92 16476.2,7145.26 16476.2,7146.82C16476.2,7148.05 16475.8,7149.07 16475.2,7149.88C16474.5,7150.69 16473.8,7151.29 16473,7151.68C16472.1,7152.07 16471.4,7152.27 16470.7,7152.27C16471.4,7152.27 16472.1,7152.4 16472.9,7152.64C16473.8,7152.89 16474.6,7153.25 16475.4,7153.72C16476.2,7154.18 16476.8,7154.75 16477.4,7155.42C16477.9,7156.09 16478.2,7156.85 16478.2,7157.7C16478.2,7158.82 16478,7159.85 16477.8,7160.79C16477.5,7161.72 16477,7162.55 16476.2,7163.27C16475.4,7163.99 16474.3,7164.61 16472.7,7165.11C16471.2,7165.61 16469.2,7165.99 16466.8,7166.25C16464.3,7166.51 16461.2,7166.64 16457.6,7166.64ZM16456.9,7149.81C16458.6,7149.81 16460,7149.72 16461,7149.55C16461.9,7149.37 16462.6,7149.11 16463,7148.76C16463.4,7148.4 16463.5,7147.95 16463.5,7147.4C16463.5,7146.84 16463.4,7146.38 16463,7146.03C16462.6,7145.68 16461.9,7145.42 16461,7145.25C16460,7145.08 16458.6,7145 16456.9,7145L16449,7145L16449,7149.81L16456.9,7149.81ZM16456.9,7159.55C16458.7,7159.55 16460.1,7159.5 16461.3,7159.41C16462.4,7159.31 16463.2,7159.1 16463.7,7158.77C16464.2,7158.43 16464.5,7157.89 16464.5,7157.14C16464.5,7156.39 16464.2,7155.85 16463.7,7155.51C16463.2,7155.17 16462.4,7154.95 16461.3,7154.87C16460.1,7154.78 16458.7,7154.74 16456.9,7154.74L16449,7154.74L16449,7159.55L16456.9,7159.55Z" style="fill:white;fill-rule:nonzero;"/>
                </g>
            </g>
        </g>
    </g>
    <defs>
        <linearGradient id="_Linear1" x1="0" y1="0" x2="1" y2="0" gradientUnits="userSpaceOnUse" gradientTransform="matrix(-115,32,-32,-115,12255,585)"><stop offset="0" style="stop-color:rgb(196,180,84);stop-opacity:1"/><stop offset="1" style="stop-color:rgb(150,132,23);stop-opacity:1"/></linearGradient>
        <linearGradient id="_Linear2" x1="0" y1="0" x2="1" y2="0" gradientUnits="userSpaceOnUse" gradientTransform="matrix(-35,-46,46,-35,12084.8,676.923)"><stop offset="0" style="stop-color:rgb(196,180,84);stop-opacity:1"/><stop offset="1" style="stop-color:rgb(150,132,23);stop-opacity:1"/></linearGradient>
        <linearGradient id="_Linear3" x1="0" y1="0" x2="1" y2="0" gradientUnits="userSpaceOnUse" gradientTransform="matrix(29,40.3782,-40.3782,29,12115,695)"><stop offset="0" style="stop-color:rgb(124,24,41);stop-opacity:1"/><stop offset="1" style="stop-color:rgb(194,30,58);stop-opacity:1"/></linearGradient>
        <linearGradient id="_Linear4" x1="0" y1="0" x2="1" y2="0" gradientUnits="userSpaceOnUse" gradientTransform="matrix(-49,-77.6492,77.6492,-49,12213,717.5)"><stop offset="0" style="stop-color:rgb(194,30,58);stop-opacity:1"/><stop offset="1" style="stop-color:rgb(124,24,41);stop-opacity:1"/></linearGradient>
        <linearGradient id="_Linear5" x1="0" y1="0" x2="1" y2="0" gradientUnits="userSpaceOnUse" gradientTransform="matrix(-88,119,-119,-88,12385.8,619.923)"><stop offset="0" style="stop-color:rgb(124,24,41);stop-opacity:1"/><stop offset="1" style="stop-color:rgb(194,30,58);stop-opacity:1"/></linearGradient>
        <linearGradient id="_Linear6" x1="0" y1="0" x2="1" y2="0" gradientUnits="userSpaceOnUse" gradientTransform="matrix(82,86,-86,82,12128.8,715.923)"><stop offset="0" style="stop-color:rgb(124,24,41);stop-opacity:1"/><stop offset="1" style="stop-color:rgb(194,30,58);stop-opacity:1"/></linearGradient>
    </defs>
</svg>
